StartChar: custom_5_5_0_0_0
Encoding: 36468 36468 16500
Width: 70
Flags: H
LayerCount: 2
Fore
SplineSet
23 43 m 1
 21 43 l 1
 21 41 l 1
 23 41 l 1
 23 43 l 1
26 43 m 1
 24 43 l 1
 24 41 l 1
 25 41 l 1
 25 42 l 1
 26 42 l 1
 26 43 l 1
23 35 m 1
 21 35 l 1
 21 33 l 1
 23 33 l 1
 23 35 l 1
25 35 m 1
 24 35 l 1
 24 33 l 1
 26 33 l 1
 26 34 l 1
 25 34 l 1
 25 35 l 1
28 43 m 1
 27 43 l 1
 27 42 l 1
 26 42 l 1
 26 41 l 1
 28 41 l 1
 28 43 l 1
31 43 m 1
 29 43 l 1
 29 41 l 1
 31 41 l 1
 31 43 l 1
41 43 m 1
 39 43 l 1
 39 41 l 1
 41 41 l 1
 41 43 l 1
31 39 m 1
 29 39 l 1
 29 37 l 1
 31 37 l 1
 31 39 l 1
28 35 m 1
 26 35 l 1
 26 34 l 1
 27 34 l 1
 27 33 l 1
 28 33 l 1
 28 35 l 1
31 35 m 1
 29 35 l 1
 29 33 l 1
 31 33 l 1
 31 35 l 1
41 39 m 1
 39 39 l 1
 39 37 l 1
 41 37 l 1
 41 39 l 1
36 37 m 1
 34 37 l 1
 34 35 l 1
 36 35 l 1
 36 37 l 1
41 35 m 1
 39 35 l 1
 39 33 l 1
 41 33 l 1
 41 35 l 1
44 43 m 1
 42 43 l 1
 42 41 l 1
 43 41 l 1
 43 42 l 1
 44 42 l 1
 44 43 l 1
46 43 m 1
 45 43 l 1
 45 42 l 1
 44 42 l 1
 44 41 l 1
 46 41 l 1
 46 43 l 1
49 43 m 1
 47 43 l 1
 47 41 l 1
 49 41 l 1
 49 43 l 1
55 43 m 1
 53 43 l 1
 53 41 l 1
 55 41 l 1
 55 43 l 1
58 43 m 1
 56 43 l 1
 56 41 l 1
 57 41 l 1
 57 42 l 1
 58 42 l 1
 58 43 l 1
43 35 m 1
 42 35 l 1
 42 33 l 1
 44 33 l 1
 44 34 l 1
 43 34 l 1
 43 35 l 1
46 35 m 1
 44 35 l 1
 44 34 l 1
 45 34 l 1
 45 33 l 1
 46 33 l 1
 46 35 l 1
49 35 m 1
 47 35 l 1
 47 33 l 1
 49 33 l 1
 49 35 l 1
55 39 m 1
 53 39 l 1
 53 37 l 1
 55 37 l 1
 55 39 l 1
55 35 m 1
 53 35 l 1
 53 33 l 1
 55 33 l 1
 55 35 l 1
57 35 m 1
 56 35 l 1
 56 33 l 1
 58 33 l 1
 58 34 l 1
 57 34 l 1
 57 35 l 1
60 43 m 1
 59 43 l 1
 59 42 l 1
 58 42 l 1
 58 41 l 1
 60 41 l 1
 60 43 l 1
63 43 m 1
 61 43 l 1
 61 41 l 1
 63 41 l 1
 63 43 l 1
60 35 m 1
 58 35 l 1
 58 34 l 1
 59 34 l 1
 59 33 l 1
 60 33 l 1
 60 35 l 1
63 35 m 1
 61 35 l 1
 61 33 l 1
 63 33 l 1
 63 35 l 1
23 27 m 1
 21 27 l 1
 21 25 l 1
 23 25 l 1
 23 27 l 1
26 27 m 1
 24 27 l 1
 24 25 l 1
 25 25 l 1
 25 26 l 1
 26 26 l 1
 26 27 l 1
31 31 m 1
 29 31 l 1
 29 29 l 1
 31 29 l 1
 31 31 l 1
28 27 m 1
 27 27 l 1
 27 26 l 1
 26 26 l 1
 26 25 l 1
 28 25 l 1
 28 27 l 1
31 27 m 1
 29 27 l 1
 29 25 l 1
 31 25 l 1
 31 27 l 1
36 33 m 1
 34 33 l 1
 34 31 l 1
 36 31 l 1
 36 33 l 1
41 27 m 1
 39 27 l 1
 39 25 l 1
 41 25 l 1
 41 27 l 1
49 31 m 1
 47 31 l 1
 47 29 l 1
 49 29 l 1
 49 31 l 1
44 27 m 1
 42 27 l 1
 42 25 l 1
 43 25 l 1
 43 26 l 1
 44 26 l 1
 44 27 l 1
46 27 m 1
 45 27 l 1
 45 26 l 1
 44 26 l 1
 44 25 l 1
 46 25 l 1
 46 27 l 1
49 27 m 1
 47 27 l 1
 47 25 l 1
 49 25 l 1
 49 27 l 1
55 27 m 1
 53 27 l 1
 53 25 l 1
 55 25 l 1
 55 27 l 1
58 27 m 1
 56 27 l 1
 56 25 l 1
 57 25 l 1
 57 26 l 1
 58 26 l 1
 58 27 l 1
63 31 m 1
 61 31 l 1
 61 29 l 1
 63 29 l 1
 63 31 l 1
60 27 m 1
 59 27 l 1
 59 26 l 1
 58 26 l 1
 58 25 l 1
 60 25 l 1
 60 27 l 1
63 27 m 1
 61 27 l 1
 61 25 l 1
 63 25 l 1
 63 27 l 1
EndSplineSet
EndChar

StartChar: custom_5_5_0_0_1
Encoding: 36469 36469 16501
Width: 70
Flags: H
LayerCount: 2
Fore
SplineSet
23 43 m 1
 21 43 l 1
 21 41 l 1
 23 41 l 1
 23 43 l 1
26 43 m 1
 24 43 l 1
 24 41 l 1
 25 41 l 1
 25 42 l 1
 26 42 l 1
 26 43 l 1
23 35 m 1
 21 35 l 1
 21 33 l 1
 23 33 l 1
 23 35 l 1
25 35 m 1
 24 35 l 1
 24 33 l 1
 26 33 l 1
 26 34 l 1
 25 34 l 1
 25 35 l 1
28 43 m 1
 27 43 l 1
 27 42 l 1
 26 42 l 1
 26 41 l 1
 28 41 l 1
 28 43 l 1
31 43 m 1
 29 43 l 1
 29 41 l 1
 31 41 l 1
 31 43 l 1
41 43 m 1
 39 43 l 1
 39 41 l 1
 41 41 l 1
 41 43 l 1
31 39 m 1
 29 39 l 1
 29 37 l 1
 31 37 l 1
 31 39 l 1
28 35 m 1
 26 35 l 1
 26 34 l 1
 27 34 l 1
 27 33 l 1
 28 33 l 1
 28 35 l 1
31 35 m 1
 29 35 l 1
 29 33 l 1
 31 33 l 1
 31 35 l 1
41 39 m 1
 39 39 l 1
 39 37 l 1
 41 37 l 1
 41 39 l 1
36 37 m 1
 34 37 l 1
 34 35 l 1
 36 35 l 1
 36 37 l 1
41 35 m 1
 39 35 l 1
 39 33 l 1
 41 33 l 1
 41 35 l 1
44 43 m 1
 42 43 l 1
 42 41 l 1
 43 41 l 1
 43 42 l 1
 44 42 l 1
 44 43 l 1
46 43 m 1
 45 43 l 1
 45 42 l 1
 44 42 l 1
 44 41 l 1
 46 41 l 1
 46 43 l 1
49 43 m 1
 47 43 l 1
 47 41 l 1
 49 41 l 1
 49 43 l 1
55 43 m 1
 53 43 l 1
 53 41 l 1
 55 41 l 1
 55 43 l 1
58 43 m 1
 56 43 l 1
 56 41 l 1
 57 41 l 1
 57 42 l 1
 58 42 l 1
 58 43 l 1
43 35 m 1
 42 35 l 1
 42 33 l 1
 44 33 l 1
 44 34 l 1
 43 34 l 1
 43 35 l 1
46 35 m 1
 44 35 l 1
 44 34 l 1
 45 34 l 1
 45 33 l 1
 46 33 l 1
 46 35 l 1
49 35 m 1
 47 35 l 1
 47 33 l 1
 49 33 l 1
 49 35 l 1
55 39 m 1
 53 39 l 1
 53 37 l 1
 55 37 l 1
 55 39 l 1
55 35 m 1
 53 35 l 1
 53 33 l 1
 55 33 l 1
 55 35 l 1
57 35 m 1
 56 35 l 1
 56 33 l 1
 58 33 l 1
 58 34 l 1
 57 34 l 1
 57 35 l 1
60 43 m 1
 59 43 l 1
 59 42 l 1
 58 42 l 1
 58 41 l 1
 60 41 l 1
 60 43 l 1
63 43 m 1
 61 43 l 1
 61 41 l 1
 63 41 l 1
 63 43 l 1
60 35 m 1
 58 35 l 1
 58 34 l 1
 59 34 l 1
 59 33 l 1
 60 33 l 1
 60 35 l 1
63 35 m 1
 61 35 l 1
 61 33 l 1
 63 33 l 1
 63 35 l 1
23 27 m 1
 21 27 l 1
 21 25 l 1
 23 25 l 1
 23 27 l 1
26 27 m 1
 24 27 l 1
 24 25 l 1
 25 25 l 1
 25 26 l 1
 26 26 l 1
 26 27 l 1
31 31 m 1
 29 31 l 1
 29 29 l 1
 31 29 l 1
 31 31 l 1
28 27 m 1
 27 27 l 1
 27 26 l 1
 26 26 l 1
 26 25 l 1
 28 25 l 1
 28 27 l 1
31 27 m 1
 29 27 l 1
 29 25 l 1
 31 25 l 1
 31 27 l 1
36 33 m 1
 34 33 l 1
 34 31 l 1
 36 31 l 1
 36 33 l 1
41 27 m 1
 39 27 l 1
 39 25 l 1
 41 25 l 1
 41 27 l 1
49 31 m 1
 47 31 l 1
 47 29 l 1
 49 29 l 1
 49 31 l 1
44 27 m 1
 42 27 l 1
 42 25 l 1
 43 25 l 1
 43 26 l 1
 44 26 l 1
 44 27 l 1
46 27 m 1
 45 27 l 1
 45 26 l 1
 44 26 l 1
 44 25 l 1
 46 25 l 1
 46 27 l 1
49 27 m 1
 47 27 l 1
 47 25 l 1
 49 25 l 1
 49 27 l 1
55 27 m 1
 53 27 l 1
 53 25 l 1
 55 25 l 1
 55 27 l 1
58 27 m 1
 56 27 l 1
 56 25 l 1
 57 25 l 1
 57 26 l 1
 58 26 l 1
 58 27 l 1
63 31 m 1
 61 31 l 1
 61 29 l 1
 63 29 l 1
 63 31 l 1
60 27 m 1
 59 27 l 1
 59 26 l 1
 58 26 l 1
 58 25 l 1
 60 25 l 1
 60 27 l 1
63 27 m 1
 61 27 l 1
 61 25 l 1
 63 25 l 1
 63 27 l 1
EndSplineSet
EndChar

StartChar: custom_5_5_0_0_2
Encoding: 36470 36470 16502
Width: 70
Flags: H
LayerCount: 2
Fore
SplineSet
23 43 m 1
 21 43 l 1
 21 41 l 1
 23 41 l 1
 23 43 l 1
26 43 m 1
 24 43 l 1
 24 41 l 1
 25 41 l 1
 25 42 l 1
 26 42 l 1
 26 43 l 1
23 35 m 1
 21 35 l 1
 21 33 l 1
 23 33 l 1
 23 35 l 1
25 35 m 1
 24 35 l 1
 24 33 l 1
 26 33 l 1
 26 34 l 1
 25 34 l 1
 25 35 l 1
28 43 m 1
 27 43 l 1
 27 42 l 1
 26 42 l 1
 26 41 l 1
 28 41 l 1
 28 43 l 1
31 43 m 1
 29 43 l 1
 29 41 l 1
 31 41 l 1
 31 43 l 1
41 43 m 1
 39 43 l 1
 39 41 l 1
 41 41 l 1
 41 43 l 1
31 39 m 1
 29 39 l 1
 29 37 l 1
 31 37 l 1
 31 39 l 1
28 35 m 1
 26 35 l 1
 26 34 l 1
 27 34 l 1
 27 33 l 1
 28 33 l 1
 28 35 l 1
31 35 m 1
 29 35 l 1
 29 33 l 1
 31 33 l 1
 31 35 l 1
41 39 m 1
 39 39 l 1
 39 37 l 1
 41 37 l 1
 41 39 l 1
36 37 m 1
 34 37 l 1
 34 35 l 1
 36 35 l 1
 36 37 l 1
41 35 m 1
 39 35 l 1
 39 33 l 1
 41 33 l 1
 41 35 l 1
44 43 m 1
 42 43 l 1
 42 41 l 1
 43 41 l 1
 43 42 l 1
 44 42 l 1
 44 43 l 1
46 43 m 1
 45 43 l 1
 45 42 l 1
 44 42 l 1
 44 41 l 1
 46 41 l 1
 46 43 l 1
49 43 m 1
 47 43 l 1
 47 41 l 1
 49 41 l 1
 49 43 l 1
55 43 m 1
 53 43 l 1
 53 41 l 1
 55 41 l 1
 55 43 l 1
58 43 m 1
 56 43 l 1
 56 41 l 1
 57 41 l 1
 57 42 l 1
 58 42 l 1
 58 43 l 1
43 35 m 1
 42 35 l 1
 42 33 l 1
 44 33 l 1
 44 34 l 1
 43 34 l 1
 43 35 l 1
46 35 m 1
 44 35 l 1
 44 34 l 1
 45 34 l 1
 45 33 l 1
 46 33 l 1
 46 35 l 1
49 35 m 1
 47 35 l 1
 47 33 l 1
 49 33 l 1
 49 35 l 1
55 39 m 1
 53 39 l 1
 53 37 l 1
 55 37 l 1
 55 39 l 1
55 35 m 1
 53 35 l 1
 53 33 l 1
 55 33 l 1
 55 35 l 1
57 35 m 1
 56 35 l 1
 56 33 l 1
 58 33 l 1
 58 34 l 1
 57 34 l 1
 57 35 l 1
60 43 m 1
 59 43 l 1
 59 42 l 1
 58 42 l 1
 58 41 l 1
 60 41 l 1
 60 43 l 1
63 43 m 1
 61 43 l 1
 61 41 l 1
 63 41 l 1
 63 43 l 1
60 35 m 1
 58 35 l 1
 58 34 l 1
 59 34 l 1
 59 33 l 1
 60 33 l 1
 60 35 l 1
63 35 m 1
 61 35 l 1
 61 33 l 1
 63 33 l 1
 63 35 l 1
23 27 m 1
 21 27 l 1
 21 25 l 1
 23 25 l 1
 23 27 l 1
26 27 m 1
 24 27 l 1
 24 25 l 1
 25 25 l 1
 25 26 l 1
 26 26 l 1
 26 27 l 1
31 31 m 1
 29 31 l 1
 29 29 l 1
 31 29 l 1
 31 31 l 1
28 27 m 1
 27 27 l 1
 27 26 l 1
 26 26 l 1
 26 25 l 1
 28 25 l 1
 28 27 l 1
31 27 m 1
 29 27 l 1
 29 25 l 1
 31 25 l 1
 31 27 l 1
36 33 m 1
 34 33 l 1
 34 31 l 1
 36 31 l 1
 36 33 l 1
41 27 m 1
 39 27 l 1
 39 25 l 1
 41 25 l 1
 41 27 l 1
49 31 m 1
 47 31 l 1
 47 29 l 1
 49 29 l 1
 49 31 l 1
44 27 m 1
 42 27 l 1
 42 25 l 1
 43 25 l 1
 43 26 l 1
 44 26 l 1
 44 27 l 1
46 27 m 1
 45 27 l 1
 45 26 l 1
 44 26 l 1
 44 25 l 1
 46 25 l 1
 46 27 l 1
49 27 m 1
 47 27 l 1
 47 25 l 1
 49 25 l 1
 49 27 l 1
55 27 m 1
 53 27 l 1
 53 25 l 1
 55 25 l 1
 55 27 l 1
58 27 m 1
 56 27 l 1
 56 25 l 1
 57 25 l 1
 57 26 l 1
 58 26 l 1
 58 27 l 1
63 31 m 1
 61 31 l 1
 61 29 l 1
 63 29 l 1
 63 31 l 1
60 27 m 1
 59 27 l 1
 59 26 l 1
 58 26 l 1
 58 25 l 1
 60 25 l 1
 60 27 l 1
63 27 m 1
 61 27 l 1
 61 25 l 1
 63 25 l 1
 63 27 l 1
EndSplineSet
EndChar

StartChar: custom_5_5_0_0_3
Encoding: 36471 36471 16503
Width: 70
Flags: H
LayerCount: 2
Fore
SplineSet
23 43 m 1
 21 43 l 1
 21 41 l 1
 23 41 l 1
 23 43 l 1
26 43 m 1
 24 43 l 1
 24 41 l 1
 25 41 l 1
 25 42 l 1
 26 42 l 1
 26 43 l 1
23 35 m 1
 21 35 l 1
 21 33 l 1
 23 33 l 1
 23 35 l 1
25 35 m 1
 24 35 l 1
 24 33 l 1
 26 33 l 1
 26 34 l 1
 25 34 l 1
 25 35 l 1
28 43 m 1
 27 43 l 1
 27 42 l 1
 26 42 l 1
 26 41 l 1
 28 41 l 1
 28 43 l 1
31 43 m 1
 29 43 l 1
 29 41 l 1
 31 41 l 1
 31 43 l 1
41 43 m 1
 39 43 l 1
 39 41 l 1
 41 41 l 1
 41 43 l 1
31 39 m 1
 29 39 l 1
 29 37 l 1
 31 37 l 1
 31 39 l 1
28 35 m 1
 26 35 l 1
 26 34 l 1
 27 34 l 1
 27 33 l 1
 28 33 l 1
 28 35 l 1
31 35 m 1
 29 35 l 1
 29 33 l 1
 31 33 l 1
 31 35 l 1
41 39 m 1
 39 39 l 1
 39 37 l 1
 41 37 l 1
 41 39 l 1
36 37 m 1
 34 37 l 1
 34 35 l 1
 36 35 l 1
 36 37 l 1
41 35 m 1
 39 35 l 1
 39 33 l 1
 41 33 l 1
 41 35 l 1
44 43 m 1
 42 43 l 1
 42 41 l 1
 43 41 l 1
 43 42 l 1
 44 42 l 1
 44 43 l 1
46 43 m 1
 45 43 l 1
 45 42 l 1
 44 42 l 1
 44 41 l 1
 46 41 l 1
 46 43 l 1
49 43 m 1
 47 43 l 1
 47 41 l 1
 49 41 l 1
 49 43 l 1
55 43 m 1
 53 43 l 1
 53 41 l 1
 55 41 l 1
 55 43 l 1
58 43 m 1
 56 43 l 1
 56 41 l 1
 57 41 l 1
 57 42 l 1
 58 42 l 1
 58 43 l 1
43 35 m 1
 42 35 l 1
 42 33 l 1
 44 33 l 1
 44 34 l 1
 43 34 l 1
 43 35 l 1
46 35 m 1
 44 35 l 1
 44 34 l 1
 45 34 l 1
 45 33 l 1
 46 33 l 1
 46 35 l 1
49 35 m 1
 47 35 l 1
 47 33 l 1
 49 33 l 1
 49 35 l 1
55 39 m 1
 53 39 l 1
 53 37 l 1
 55 37 l 1
 55 39 l 1
55 35 m 1
 53 35 l 1
 53 33 l 1
 55 33 l 1
 55 35 l 1
57 35 m 1
 56 35 l 1
 56 33 l 1
 58 33 l 1
 58 34 l 1
 57 34 l 1
 57 35 l 1
60 43 m 1
 59 43 l 1
 59 42 l 1
 58 42 l 1
 58 41 l 1
 60 41 l 1
 60 43 l 1
63 43 m 1
 61 43 l 1
 61 41 l 1
 63 41 l 1
 63 43 l 1
60 35 m 1
 58 35 l 1
 58 34 l 1
 59 34 l 1
 59 33 l 1
 60 33 l 1
 60 35 l 1
63 35 m 1
 61 35 l 1
 61 33 l 1
 63 33 l 1
 63 35 l 1
23 27 m 1
 21 27 l 1
 21 25 l 1
 23 25 l 1
 23 27 l 1
26 27 m 1
 24 27 l 1
 24 25 l 1
 25 25 l 1
 25 26 l 1
 26 26 l 1
 26 27 l 1
31 31 m 1
 29 31 l 1
 29 29 l 1
 31 29 l 1
 31 31 l 1
28 27 m 1
 27 27 l 1
 27 26 l 1
 26 26 l 1
 26 25 l 1
 28 25 l 1
 28 27 l 1
31 27 m 1
 29 27 l 1
 29 25 l 1
 31 25 l 1
 31 27 l 1
36 33 m 1
 34 33 l 1
 34 31 l 1
 36 31 l 1
 36 33 l 1
41 27 m 1
 39 27 l 1
 39 25 l 1
 41 25 l 1
 41 27 l 1
49 31 m 1
 47 31 l 1
 47 29 l 1
 49 29 l 1
 49 31 l 1
44 27 m 1
 42 27 l 1
 42 25 l 1
 43 25 l 1
 43 26 l 1
 44 26 l 1
 44 27 l 1
46 27 m 1
 45 27 l 1
 45 26 l 1
 44 26 l 1
 44 25 l 1
 46 25 l 1
 46 27 l 1
49 27 m 1
 47 27 l 1
 47 25 l 1
 49 25 l 1
 49 27 l 1
55 27 m 1
 53 27 l 1
 53 25 l 1
 55 25 l 1
 55 27 l 1
58 27 m 1
 56 27 l 1
 56 25 l 1
 57 25 l 1
 57 26 l 1
 58 26 l 1
 58 27 l 1
63 31 m 1
 61 31 l 1
 61 29 l 1
 63 29 l 1
 63 31 l 1
60 27 m 1
 59 27 l 1
 59 26 l 1
 58 26 l 1
 58 25 l 1
 60 25 l 1
 60 27 l 1
63 27 m 1
 61 27 l 1
 61 25 l 1
 63 25 l 1
 63 27 l 1
EndSplineSet
EndChar

StartChar: custom_5_5_0_0_4
Encoding: 36472 36472 16504
Width: 70
Flags: H
LayerCount: 2
Fore
SplineSet
23 43 m 1
 21 43 l 1
 21 41 l 1
 23 41 l 1
 23 43 l 1
26 43 m 1
 24 43 l 1
 24 41 l 1
 25 41 l 1
 25 42 l 1
 26 42 l 1
 26 43 l 1
23 35 m 1
 21 35 l 1
 21 33 l 1
 23 33 l 1
 23 35 l 1
25 35 m 1
 24 35 l 1
 24 33 l 1
 26 33 l 1
 26 34 l 1
 25 34 l 1
 25 35 l 1
28 43 m 1
 27 43 l 1
 27 42 l 1
 26 42 l 1
 26 41 l 1
 28 41 l 1
 28 43 l 1
31 43 m 1
 29 43 l 1
 29 41 l 1
 31 41 l 1
 31 43 l 1
41 43 m 1
 39 43 l 1
 39 41 l 1
 41 41 l 1
 41 43 l 1
31 39 m 1
 29 39 l 1
 29 37 l 1
 31 37 l 1
 31 39 l 1
28 35 m 1
 26 35 l 1
 26 34 l 1
 27 34 l 1
 27 33 l 1
 28 33 l 1
 28 35 l 1
31 35 m 1
 29 35 l 1
 29 33 l 1
 31 33 l 1
 31 35 l 1
41 39 m 1
 39 39 l 1
 39 37 l 1
 41 37 l 1
 41 39 l 1
36 37 m 1
 34 37 l 1
 34 35 l 1
 36 35 l 1
 36 37 l 1
41 35 m 1
 39 35 l 1
 39 33 l 1
 41 33 l 1
 41 35 l 1
44 43 m 1
 42 43 l 1
 42 41 l 1
 43 41 l 1
 43 42 l 1
 44 42 l 1
 44 43 l 1
46 43 m 1
 45 43 l 1
 45 42 l 1
 44 42 l 1
 44 41 l 1
 46 41 l 1
 46 43 l 1
49 43 m 1
 47 43 l 1
 47 41 l 1
 49 41 l 1
 49 43 l 1
55 43 m 1
 53 43 l 1
 53 41 l 1
 55 41 l 1
 55 43 l 1
58 43 m 1
 56 43 l 1
 56 41 l 1
 57 41 l 1
 57 42 l 1
 58 42 l 1
 58 43 l 1
43 35 m 1
 42 35 l 1
 42 33 l 1
 44 33 l 1
 44 34 l 1
 43 34 l 1
 43 35 l 1
46 35 m 1
 44 35 l 1
 44 34 l 1
 45 34 l 1
 45 33 l 1
 46 33 l 1
 46 35 l 1
49 35 m 1
 47 35 l 1
 47 33 l 1
 49 33 l 1
 49 35 l 1
55 39 m 1
 53 39 l 1
 53 37 l 1
 55 37 l 1
 55 39 l 1
55 35 m 1
 53 35 l 1
 53 33 l 1
 55 33 l 1
 55 35 l 1
57 35 m 1
 56 35 l 1
 56 33 l 1
 58 33 l 1
 58 34 l 1
 57 34 l 1
 57 35 l 1
60 43 m 1
 59 43 l 1
 59 42 l 1
 58 42 l 1
 58 41 l 1
 60 41 l 1
 60 43 l 1
63 43 m 1
 61 43 l 1
 61 41 l 1
 63 41 l 1
 63 43 l 1
60 35 m 1
 58 35 l 1
 58 34 l 1
 59 34 l 1
 59 33 l 1
 60 33 l 1
 60 35 l 1
63 35 m 1
 61 35 l 1
 61 33 l 1
 63 33 l 1
 63 35 l 1
23 27 m 1
 21 27 l 1
 21 25 l 1
 23 25 l 1
 23 27 l 1
26 27 m 1
 24 27 l 1
 24 25 l 1
 25 25 l 1
 25 26 l 1
 26 26 l 1
 26 27 l 1
31 31 m 1
 29 31 l 1
 29 29 l 1
 31 29 l 1
 31 31 l 1
28 27 m 1
 27 27 l 1
 27 26 l 1
 26 26 l 1
 26 25 l 1
 28 25 l 1
 28 27 l 1
31 27 m 1
 29 27 l 1
 29 25 l 1
 31 25 l 1
 31 27 l 1
36 33 m 1
 34 33 l 1
 34 31 l 1
 36 31 l 1
 36 33 l 1
41 27 m 1
 39 27 l 1
 39 25 l 1
 41 25 l 1
 41 27 l 1
49 31 m 1
 47 31 l 1
 47 29 l 1
 49 29 l 1
 49 31 l 1
44 27 m 1
 42 27 l 1
 42 25 l 1
 43 25 l 1
 43 26 l 1
 44 26 l 1
 44 27 l 1
46 27 m 1
 45 27 l 1
 45 26 l 1
 44 26 l 1
 44 25 l 1
 46 25 l 1
 46 27 l 1
49 27 m 1
 47 27 l 1
 47 25 l 1
 49 25 l 1
 49 27 l 1
55 27 m 1
 53 27 l 1
 53 25 l 1
 55 25 l 1
 55 27 l 1
58 27 m 1
 56 27 l 1
 56 25 l 1
 57 25 l 1
 57 26 l 1
 58 26 l 1
 58 27 l 1
63 31 m 1
 61 31 l 1
 61 29 l 1
 63 29 l 1
 63 31 l 1
60 27 m 1
 59 27 l 1
 59 26 l 1
 58 26 l 1
 58 25 l 1
 60 25 l 1
 60 27 l 1
63 27 m 1
 61 27 l 1
 61 25 l 1
 63 25 l 1
 63 27 l 1
EndSplineSet
EndChar

StartChar: custom_5_5_0_0_5
Encoding: 36473 36473 16505
Width: 70
Flags: H
LayerCount: 2
Fore
SplineSet
23 43 m 1
 21 43 l 1
 21 41 l 1
 23 41 l 1
 23 43 l 1
26 43 m 1
 24 43 l 1
 24 41 l 1
 25 41 l 1
 25 42 l 1
 26 42 l 1
 26 43 l 1
23 35 m 1
 21 35 l 1
 21 33 l 1
 23 33 l 1
 23 35 l 1
25 35 m 1
 24 35 l 1
 24 33 l 1
 26 33 l 1
 26 34 l 1
 25 34 l 1
 25 35 l 1
28 43 m 1
 27 43 l 1
 27 42 l 1
 26 42 l 1
 26 41 l 1
 28 41 l 1
 28 43 l 1
31 43 m 1
 29 43 l 1
 29 41 l 1
 31 41 l 1
 31 43 l 1
41 43 m 1
 39 43 l 1
 39 41 l 1
 41 41 l 1
 41 43 l 1
31 39 m 1
 29 39 l 1
 29 37 l 1
 31 37 l 1
 31 39 l 1
28 35 m 1
 26 35 l 1
 26 34 l 1
 27 34 l 1
 27 33 l 1
 28 33 l 1
 28 35 l 1
31 35 m 1
 29 35 l 1
 29 33 l 1
 31 33 l 1
 31 35 l 1
41 39 m 1
 39 39 l 1
 39 37 l 1
 41 37 l 1
 41 39 l 1
36 37 m 1
 34 37 l 1
 34 35 l 1
 36 35 l 1
 36 37 l 1
41 35 m 1
 39 35 l 1
 39 33 l 1
 41 33 l 1
 41 35 l 1
44 43 m 1
 42 43 l 1
 42 41 l 1
 43 41 l 1
 43 42 l 1
 44 42 l 1
 44 43 l 1
46 43 m 1
 45 43 l 1
 45 42 l 1
 44 42 l 1
 44 41 l 1
 46 41 l 1
 46 43 l 1
49 43 m 1
 47 43 l 1
 47 41 l 1
 49 41 l 1
 49 43 l 1
55 43 m 1
 53 43 l 1
 53 41 l 1
 55 41 l 1
 55 43 l 1
58 43 m 1
 56 43 l 1
 56 41 l 1
 57 41 l 1
 57 42 l 1
 58 42 l 1
 58 43 l 1
43 35 m 1
 42 35 l 1
 42 33 l 1
 44 33 l 1
 44 34 l 1
 43 34 l 1
 43 35 l 1
46 35 m 1
 44 35 l 1
 44 34 l 1
 45 34 l 1
 45 33 l 1
 46 33 l 1
 46 35 l 1
49 35 m 1
 47 35 l 1
 47 33 l 1
 49 33 l 1
 49 35 l 1
55 39 m 1
 53 39 l 1
 53 37 l 1
 55 37 l 1
 55 39 l 1
55 35 m 1
 53 35 l 1
 53 33 l 1
 55 33 l 1
 55 35 l 1
57 35 m 1
 56 35 l 1
 56 33 l 1
 58 33 l 1
 58 34 l 1
 57 34 l 1
 57 35 l 1
60 43 m 1
 59 43 l 1
 59 42 l 1
 58 42 l 1
 58 41 l 1
 60 41 l 1
 60 43 l 1
63 43 m 1
 61 43 l 1
 61 41 l 1
 63 41 l 1
 63 43 l 1
60 35 m 1
 58 35 l 1
 58 34 l 1
 59 34 l 1
 59 33 l 1
 60 33 l 1
 60 35 l 1
63 35 m 1
 61 35 l 1
 61 33 l 1
 63 33 l 1
 63 35 l 1
23 27 m 1
 21 27 l 1
 21 25 l 1
 23 25 l 1
 23 27 l 1
26 27 m 1
 24 27 l 1
 24 25 l 1
 25 25 l 1
 25 26 l 1
 26 26 l 1
 26 27 l 1
31 31 m 1
 29 31 l 1
 29 29 l 1
 31 29 l 1
 31 31 l 1
28 27 m 1
 27 27 l 1
 27 26 l 1
 26 26 l 1
 26 25 l 1
 28 25 l 1
 28 27 l 1
31 27 m 1
 29 27 l 1
 29 25 l 1
 31 25 l 1
 31 27 l 1
36 33 m 1
 34 33 l 1
 34 31 l 1
 36 31 l 1
 36 33 l 1
41 27 m 1
 39 27 l 1
 39 25 l 1
 41 25 l 1
 41 27 l 1
49 31 m 1
 47 31 l 1
 47 29 l 1
 49 29 l 1
 49 31 l 1
44 27 m 1
 42 27 l 1
 42 25 l 1
 43 25 l 1
 43 26 l 1
 44 26 l 1
 44 27 l 1
46 27 m 1
 45 27 l 1
 45 26 l 1
 44 26 l 1
 44 25 l 1
 46 25 l 1
 46 27 l 1
49 27 m 1
 47 27 l 1
 47 25 l 1
 49 25 l 1
 49 27 l 1
55 27 m 1
 53 27 l 1
 53 25 l 1
 55 25 l 1
 55 27 l 1
58 27 m 1
 56 27 l 1
 56 25 l 1
 57 25 l 1
 57 26 l 1
 58 26 l 1
 58 27 l 1
63 31 m 1
 61 31 l 1
 61 29 l 1
 63 29 l 1
 63 31 l 1
60 27 m 1
 59 27 l 1
 59 26 l 1
 58 26 l 1
 58 25 l 1
 60 25 l 1
 60 27 l 1
63 27 m 1
 61 27 l 1
 61 25 l 1
 63 25 l 1
 63 27 l 1
EndSplineSet
EndChar

StartChar: custom_5_5_0_0_6
Encoding: 36474 36474 16506
Width: 70
Flags: H
LayerCount: 2
Fore
SplineSet
23 43 m 1
 21 43 l 1
 21 41 l 1
 23 41 l 1
 23 43 l 1
26 43 m 1
 24 43 l 1
 24 41 l 1
 25 41 l 1
 25 42 l 1
 26 42 l 1
 26 43 l 1
23 35 m 1
 21 35 l 1
 21 33 l 1
 23 33 l 1
 23 35 l 1
25 35 m 1
 24 35 l 1
 24 33 l 1
 26 33 l 1
 26 34 l 1
 25 34 l 1
 25 35 l 1
28 43 m 1
 27 43 l 1
 27 42 l 1
 26 42 l 1
 26 41 l 1
 28 41 l 1
 28 43 l 1
31 43 m 1
 29 43 l 1
 29 41 l 1
 31 41 l 1
 31 43 l 1
41 43 m 1
 39 43 l 1
 39 41 l 1
 41 41 l 1
 41 43 l 1
31 39 m 1
 29 39 l 1
 29 37 l 1
 31 37 l 1
 31 39 l 1
28 35 m 1
 26 35 l 1
 26 34 l 1
 27 34 l 1
 27 33 l 1
 28 33 l 1
 28 35 l 1
31 35 m 1
 29 35 l 1
 29 33 l 1
 31 33 l 1
 31 35 l 1
41 39 m 1
 39 39 l 1
 39 37 l 1
 41 37 l 1
 41 39 l 1
36 37 m 1
 34 37 l 1
 34 35 l 1
 36 35 l 1
 36 37 l 1
41 35 m 1
 39 35 l 1
 39 33 l 1
 41 33 l 1
 41 35 l 1
44 43 m 1
 42 43 l 1
 42 41 l 1
 43 41 l 1
 43 42 l 1
 44 42 l 1
 44 43 l 1
46 43 m 1
 45 43 l 1
 45 42 l 1
 44 42 l 1
 44 41 l 1
 46 41 l 1
 46 43 l 1
49 43 m 1
 47 43 l 1
 47 41 l 1
 49 41 l 1
 49 43 l 1
55 43 m 1
 53 43 l 1
 53 41 l 1
 55 41 l 1
 55 43 l 1
58 43 m 1
 56 43 l 1
 56 41 l 1
 57 41 l 1
 57 42 l 1
 58 42 l 1
 58 43 l 1
43 35 m 1
 42 35 l 1
 42 33 l 1
 44 33 l 1
 44 34 l 1
 43 34 l 1
 43 35 l 1
46 35 m 1
 44 35 l 1
 44 34 l 1
 45 34 l 1
 45 33 l 1
 46 33 l 1
 46 35 l 1
49 35 m 1
 47 35 l 1
 47 33 l 1
 49 33 l 1
 49 35 l 1
55 39 m 1
 53 39 l 1
 53 37 l 1
 55 37 l 1
 55 39 l 1
55 35 m 1
 53 35 l 1
 53 33 l 1
 55 33 l 1
 55 35 l 1
57 35 m 1
 56 35 l 1
 56 33 l 1
 58 33 l 1
 58 34 l 1
 57 34 l 1
 57 35 l 1
60 43 m 1
 59 43 l 1
 59 42 l 1
 58 42 l 1
 58 41 l 1
 60 41 l 1
 60 43 l 1
63 43 m 1
 61 43 l 1
 61 41 l 1
 63 41 l 1
 63 43 l 1
60 35 m 1
 58 35 l 1
 58 34 l 1
 59 34 l 1
 59 33 l 1
 60 33 l 1
 60 35 l 1
63 35 m 1
 61 35 l 1
 61 33 l 1
 63 33 l 1
 63 35 l 1
23 27 m 1
 21 27 l 1
 21 25 l 1
 23 25 l 1
 23 27 l 1
26 27 m 1
 24 27 l 1
 24 25 l 1
 25 25 l 1
 25 26 l 1
 26 26 l 1
 26 27 l 1
31 31 m 1
 29 31 l 1
 29 29 l 1
 31 29 l 1
 31 31 l 1
28 27 m 1
 27 27 l 1
 27 26 l 1
 26 26 l 1
 26 25 l 1
 28 25 l 1
 28 27 l 1
31 27 m 1
 29 27 l 1
 29 25 l 1
 31 25 l 1
 31 27 l 1
36 33 m 1
 34 33 l 1
 34 31 l 1
 36 31 l 1
 36 33 l 1
41 27 m 1
 39 27 l 1
 39 25 l 1
 41 25 l 1
 41 27 l 1
49 31 m 1
 47 31 l 1
 47 29 l 1
 49 29 l 1
 49 31 l 1
44 27 m 1
 42 27 l 1
 42 25 l 1
 43 25 l 1
 43 26 l 1
 44 26 l 1
 44 27 l 1
46 27 m 1
 45 27 l 1
 45 26 l 1
 44 26 l 1
 44 25 l 1
 46 25 l 1
 46 27 l 1
49 27 m 1
 47 27 l 1
 47 25 l 1
 49 25 l 1
 49 27 l 1
55 27 m 1
 53 27 l 1
 53 25 l 1
 55 25 l 1
 55 27 l 1
58 27 m 1
 56 27 l 1
 56 25 l 1
 57 25 l 1
 57 26 l 1
 58 26 l 1
 58 27 l 1
63 31 m 1
 61 31 l 1
 61 29 l 1
 63 29 l 1
 63 31 l 1
60 27 m 1
 59 27 l 1
 59 26 l 1
 58 26 l 1
 58 25 l 1
 60 25 l 1
 60 27 l 1
63 27 m 1
 61 27 l 1
 61 25 l 1
 63 25 l 1
 63 27 l 1
EndSplineSet
EndChar

StartChar: custom_5_5_0_0_7
Encoding: 36475 36475 16507
Width: 70
Flags: H
LayerCount: 2
Fore
SplineSet
23 43 m 1
 21 43 l 1
 21 41 l 1
 23 41 l 1
 23 43 l 1
26 43 m 1
 24 43 l 1
 24 41 l 1
 25 41 l 1
 25 42 l 1
 26 42 l 1
 26 43 l 1
23 35 m 1
 21 35 l 1
 21 33 l 1
 23 33 l 1
 23 35 l 1
25 35 m 1
 24 35 l 1
 24 33 l 1
 26 33 l 1
 26 34 l 1
 25 34 l 1
 25 35 l 1
28 43 m 1
 27 43 l 1
 27 42 l 1
 26 42 l 1
 26 41 l 1
 28 41 l 1
 28 43 l 1
31 43 m 1
 29 43 l 1
 29 41 l 1
 31 41 l 1
 31 43 l 1
41 43 m 1
 39 43 l 1
 39 41 l 1
 41 41 l 1
 41 43 l 1
31 39 m 1
 29 39 l 1
 29 37 l 1
 31 37 l 1
 31 39 l 1
28 35 m 1
 26 35 l 1
 26 34 l 1
 27 34 l 1
 27 33 l 1
 28 33 l 1
 28 35 l 1
31 35 m 1
 29 35 l 1
 29 33 l 1
 31 33 l 1
 31 35 l 1
41 39 m 1
 39 39 l 1
 39 37 l 1
 41 37 l 1
 41 39 l 1
36 37 m 1
 34 37 l 1
 34 35 l 1
 36 35 l 1
 36 37 l 1
41 35 m 1
 39 35 l 1
 39 33 l 1
 41 33 l 1
 41 35 l 1
44 43 m 1
 42 43 l 1
 42 41 l 1
 43 41 l 1
 43 42 l 1
 44 42 l 1
 44 43 l 1
46 43 m 1
 45 43 l 1
 45 42 l 1
 44 42 l 1
 44 41 l 1
 46 41 l 1
 46 43 l 1
49 43 m 1
 47 43 l 1
 47 41 l 1
 49 41 l 1
 49 43 l 1
55 43 m 1
 53 43 l 1
 53 41 l 1
 55 41 l 1
 55 43 l 1
58 43 m 1
 56 43 l 1
 56 41 l 1
 57 41 l 1
 57 42 l 1
 58 42 l 1
 58 43 l 1
43 35 m 1
 42 35 l 1
 42 33 l 1
 44 33 l 1
 44 34 l 1
 43 34 l 1
 43 35 l 1
46 35 m 1
 44 35 l 1
 44 34 l 1
 45 34 l 1
 45 33 l 1
 46 33 l 1
 46 35 l 1
49 35 m 1
 47 35 l 1
 47 33 l 1
 49 33 l 1
 49 35 l 1
55 39 m 1
 53 39 l 1
 53 37 l 1
 55 37 l 1
 55 39 l 1
55 35 m 1
 53 35 l 1
 53 33 l 1
 55 33 l 1
 55 35 l 1
57 35 m 1
 56 35 l 1
 56 33 l 1
 58 33 l 1
 58 34 l 1
 57 34 l 1
 57 35 l 1
60 43 m 1
 59 43 l 1
 59 42 l 1
 58 42 l 1
 58 41 l 1
 60 41 l 1
 60 43 l 1
63 43 m 1
 61 43 l 1
 61 41 l 1
 63 41 l 1
 63 43 l 1
60 35 m 1
 58 35 l 1
 58 34 l 1
 59 34 l 1
 59 33 l 1
 60 33 l 1
 60 35 l 1
63 35 m 1
 61 35 l 1
 61 33 l 1
 63 33 l 1
 63 35 l 1
23 27 m 1
 21 27 l 1
 21 25 l 1
 23 25 l 1
 23 27 l 1
26 27 m 1
 24 27 l 1
 24 25 l 1
 25 25 l 1
 25 26 l 1
 26 26 l 1
 26 27 l 1
31 31 m 1
 29 31 l 1
 29 29 l 1
 31 29 l 1
 31 31 l 1
28 27 m 1
 27 27 l 1
 27 26 l 1
 26 26 l 1
 26 25 l 1
 28 25 l 1
 28 27 l 1
31 27 m 1
 29 27 l 1
 29 25 l 1
 31 25 l 1
 31 27 l 1
36 33 m 1
 34 33 l 1
 34 31 l 1
 36 31 l 1
 36 33 l 1
41 27 m 1
 39 27 l 1
 39 25 l 1
 41 25 l 1
 41 27 l 1
49 31 m 1
 47 31 l 1
 47 29 l 1
 49 29 l 1
 49 31 l 1
44 27 m 1
 42 27 l 1
 42 25 l 1
 43 25 l 1
 43 26 l 1
 44 26 l 1
 44 27 l 1
46 27 m 1
 45 27 l 1
 45 26 l 1
 44 26 l 1
 44 25 l 1
 46 25 l 1
 46 27 l 1
49 27 m 1
 47 27 l 1
 47 25 l 1
 49 25 l 1
 49 27 l 1
55 27 m 1
 53 27 l 1
 53 25 l 1
 55 25 l 1
 55 27 l 1
58 27 m 1
 56 27 l 1
 56 25 l 1
 57 25 l 1
 57 26 l 1
 58 26 l 1
 58 27 l 1
63 31 m 1
 61 31 l 1
 61 29 l 1
 63 29 l 1
 63 31 l 1
60 27 m 1
 59 27 l 1
 59 26 l 1
 58 26 l 1
 58 25 l 1
 60 25 l 1
 60 27 l 1
63 27 m 1
 61 27 l 1
 61 25 l 1
 63 25 l 1
 63 27 l 1
EndSplineSet
EndChar

StartChar: custom_5_5_0_0_8
Encoding: 36476 36476 16508
Width: 70
Flags: H
LayerCount: 2
Fore
SplineSet
23 43 m 1
 21 43 l 1
 21 41 l 1
 23 41 l 1
 23 43 l 1
26 43 m 1
 24 43 l 1
 24 41 l 1
 25 41 l 1
 25 42 l 1
 26 42 l 1
 26 43 l 1
23 35 m 1
 21 35 l 1
 21 33 l 1
 23 33 l 1
 23 35 l 1
25 35 m 1
 24 35 l 1
 24 33 l 1
 26 33 l 1
 26 34 l 1
 25 34 l 1
 25 35 l 1
28 43 m 1
 27 43 l 1
 27 42 l 1
 26 42 l 1
 26 41 l 1
 28 41 l 1
 28 43 l 1
31 43 m 1
 29 43 l 1
 29 41 l 1
 31 41 l 1
 31 43 l 1
41 43 m 1
 39 43 l 1
 39 41 l 1
 41 41 l 1
 41 43 l 1
31 39 m 1
 29 39 l 1
 29 37 l 1
 31 37 l 1
 31 39 l 1
28 35 m 1
 26 35 l 1
 26 34 l 1
 27 34 l 1
 27 33 l 1
 28 33 l 1
 28 35 l 1
31 35 m 1
 29 35 l 1
 29 33 l 1
 31 33 l 1
 31 35 l 1
41 39 m 1
 39 39 l 1
 39 37 l 1
 41 37 l 1
 41 39 l 1
36 37 m 1
 34 37 l 1
 34 35 l 1
 36 35 l 1
 36 37 l 1
41 35 m 1
 39 35 l 1
 39 33 l 1
 41 33 l 1
 41 35 l 1
44 43 m 1
 42 43 l 1
 42 41 l 1
 43 41 l 1
 43 42 l 1
 44 42 l 1
 44 43 l 1
46 43 m 1
 45 43 l 1
 45 42 l 1
 44 42 l 1
 44 41 l 1
 46 41 l 1
 46 43 l 1
49 43 m 1
 47 43 l 1
 47 41 l 1
 49 41 l 1
 49 43 l 1
55 43 m 1
 53 43 l 1
 53 41 l 1
 55 41 l 1
 55 43 l 1
58 43 m 1
 56 43 l 1
 56 41 l 1
 57 41 l 1
 57 42 l 1
 58 42 l 1
 58 43 l 1
43 35 m 1
 42 35 l 1
 42 33 l 1
 44 33 l 1
 44 34 l 1
 43 34 l 1
 43 35 l 1
46 35 m 1
 44 35 l 1
 44 34 l 1
 45 34 l 1
 45 33 l 1
 46 33 l 1
 46 35 l 1
49 35 m 1
 47 35 l 1
 47 33 l 1
 49 33 l 1
 49 35 l 1
55 39 m 1
 53 39 l 1
 53 37 l 1
 55 37 l 1
 55 39 l 1
55 35 m 1
 53 35 l 1
 53 33 l 1
 55 33 l 1
 55 35 l 1
57 35 m 1
 56 35 l 1
 56 33 l 1
 58 33 l 1
 58 34 l 1
 57 34 l 1
 57 35 l 1
60 43 m 1
 59 43 l 1
 59 42 l 1
 58 42 l 1
 58 41 l 1
 60 41 l 1
 60 43 l 1
63 43 m 1
 61 43 l 1
 61 41 l 1
 63 41 l 1
 63 43 l 1
60 35 m 1
 58 35 l 1
 58 34 l 1
 59 34 l 1
 59 33 l 1
 60 33 l 1
 60 35 l 1
63 35 m 1
 61 35 l 1
 61 33 l 1
 63 33 l 1
 63 35 l 1
23 27 m 1
 21 27 l 1
 21 25 l 1
 23 25 l 1
 23 27 l 1
26 27 m 1
 24 27 l 1
 24 25 l 1
 25 25 l 1
 25 26 l 1
 26 26 l 1
 26 27 l 1
31 31 m 1
 29 31 l 1
 29 29 l 1
 31 29 l 1
 31 31 l 1
28 27 m 1
 27 27 l 1
 27 26 l 1
 26 26 l 1
 26 25 l 1
 28 25 l 1
 28 27 l 1
31 27 m 1
 29 27 l 1
 29 25 l 1
 31 25 l 1
 31 27 l 1
36 33 m 1
 34 33 l 1
 34 31 l 1
 36 31 l 1
 36 33 l 1
41 27 m 1
 39 27 l 1
 39 25 l 1
 41 25 l 1
 41 27 l 1
49 31 m 1
 47 31 l 1
 47 29 l 1
 49 29 l 1
 49 31 l 1
44 27 m 1
 42 27 l 1
 42 25 l 1
 43 25 l 1
 43 26 l 1
 44 26 l 1
 44 27 l 1
46 27 m 1
 45 27 l 1
 45 26 l 1
 44 26 l 1
 44 25 l 1
 46 25 l 1
 46 27 l 1
49 27 m 1
 47 27 l 1
 47 25 l 1
 49 25 l 1
 49 27 l 1
55 27 m 1
 53 27 l 1
 53 25 l 1
 55 25 l 1
 55 27 l 1
58 27 m 1
 56 27 l 1
 56 25 l 1
 57 25 l 1
 57 26 l 1
 58 26 l 1
 58 27 l 1
63 31 m 1
 61 31 l 1
 61 29 l 1
 63 29 l 1
 63 31 l 1
60 27 m 1
 59 27 l 1
 59 26 l 1
 58 26 l 1
 58 25 l 1
 60 25 l 1
 60 27 l 1
63 27 m 1
 61 27 l 1
 61 25 l 1
 63 25 l 1
 63 27 l 1
EndSplineSet
EndChar

StartChar: custom_5_5_0_0_9
Encoding: 36477 36477 16509
Width: 70
Flags: H
LayerCount: 2
Fore
SplineSet
23 43 m 1
 21 43 l 1
 21 41 l 1
 23 41 l 1
 23 43 l 1
26 43 m 1
 24 43 l 1
 24 41 l 1
 25 41 l 1
 25 42 l 1
 26 42 l 1
 26 43 l 1
23 35 m 1
 21 35 l 1
 21 33 l 1
 23 33 l 1
 23 35 l 1
25 35 m 1
 24 35 l 1
 24 33 l 1
 26 33 l 1
 26 34 l 1
 25 34 l 1
 25 35 l 1
28 43 m 1
 27 43 l 1
 27 42 l 1
 26 42 l 1
 26 41 l 1
 28 41 l 1
 28 43 l 1
31 43 m 1
 29 43 l 1
 29 41 l 1
 31 41 l 1
 31 43 l 1
41 43 m 1
 39 43 l 1
 39 41 l 1
 41 41 l 1
 41 43 l 1
31 39 m 1
 29 39 l 1
 29 37 l 1
 31 37 l 1
 31 39 l 1
28 35 m 1
 26 35 l 1
 26 34 l 1
 27 34 l 1
 27 33 l 1
 28 33 l 1
 28 35 l 1
31 35 m 1
 29 35 l 1
 29 33 l 1
 31 33 l 1
 31 35 l 1
41 39 m 1
 39 39 l 1
 39 37 l 1
 41 37 l 1
 41 39 l 1
36 37 m 1
 34 37 l 1
 34 35 l 1
 36 35 l 1
 36 37 l 1
41 35 m 1
 39 35 l 1
 39 33 l 1
 41 33 l 1
 41 35 l 1
44 43 m 1
 42 43 l 1
 42 41 l 1
 43 41 l 1
 43 42 l 1
 44 42 l 1
 44 43 l 1
46 43 m 1
 45 43 l 1
 45 42 l 1
 44 42 l 1
 44 41 l 1
 46 41 l 1
 46 43 l 1
49 43 m 1
 47 43 l 1
 47 41 l 1
 49 41 l 1
 49 43 l 1
55 43 m 1
 53 43 l 1
 53 41 l 1
 55 41 l 1
 55 43 l 1
58 43 m 1
 56 43 l 1
 56 41 l 1
 57 41 l 1
 57 42 l 1
 58 42 l 1
 58 43 l 1
43 35 m 1
 42 35 l 1
 42 33 l 1
 44 33 l 1
 44 34 l 1
 43 34 l 1
 43 35 l 1
46 35 m 1
 44 35 l 1
 44 34 l 1
 45 34 l 1
 45 33 l 1
 46 33 l 1
 46 35 l 1
49 35 m 1
 47 35 l 1
 47 33 l 1
 49 33 l 1
 49 35 l 1
55 39 m 1
 53 39 l 1
 53 37 l 1
 55 37 l 1
 55 39 l 1
55 35 m 1
 53 35 l 1
 53 33 l 1
 55 33 l 1
 55 35 l 1
57 35 m 1
 56 35 l 1
 56 33 l 1
 58 33 l 1
 58 34 l 1
 57 34 l 1
 57 35 l 1
60 43 m 1
 59 43 l 1
 59 42 l 1
 58 42 l 1
 58 41 l 1
 60 41 l 1
 60 43 l 1
63 43 m 1
 61 43 l 1
 61 41 l 1
 63 41 l 1
 63 43 l 1
60 35 m 1
 58 35 l 1
 58 34 l 1
 59 34 l 1
 59 33 l 1
 60 33 l 1
 60 35 l 1
63 35 m 1
 61 35 l 1
 61 33 l 1
 63 33 l 1
 63 35 l 1
23 27 m 1
 21 27 l 1
 21 25 l 1
 23 25 l 1
 23 27 l 1
26 27 m 1
 24 27 l 1
 24 25 l 1
 25 25 l 1
 25 26 l 1
 26 26 l 1
 26 27 l 1
31 31 m 1
 29 31 l 1
 29 29 l 1
 31 29 l 1
 31 31 l 1
28 27 m 1
 27 27 l 1
 27 26 l 1
 26 26 l 1
 26 25 l 1
 28 25 l 1
 28 27 l 1
31 27 m 1
 29 27 l 1
 29 25 l 1
 31 25 l 1
 31 27 l 1
36 33 m 1
 34 33 l 1
 34 31 l 1
 36 31 l 1
 36 33 l 1
41 27 m 1
 39 27 l 1
 39 25 l 1
 41 25 l 1
 41 27 l 1
49 31 m 1
 47 31 l 1
 47 29 l 1
 49 29 l 1
 49 31 l 1
44 27 m 1
 42 27 l 1
 42 25 l 1
 43 25 l 1
 43 26 l 1
 44 26 l 1
 44 27 l 1
46 27 m 1
 45 27 l 1
 45 26 l 1
 44 26 l 1
 44 25 l 1
 46 25 l 1
 46 27 l 1
49 27 m 1
 47 27 l 1
 47 25 l 1
 49 25 l 1
 49 27 l 1
55 27 m 1
 53 27 l 1
 53 25 l 1
 55 25 l 1
 55 27 l 1
58 27 m 1
 56 27 l 1
 56 25 l 1
 57 25 l 1
 57 26 l 1
 58 26 l 1
 58 27 l 1
63 31 m 1
 61 31 l 1
 61 29 l 1
 63 29 l 1
 63 31 l 1
60 27 m 1
 59 27 l 1
 59 26 l 1
 58 26 l 1
 58 25 l 1
 60 25 l 1
 60 27 l 1
63 27 m 1
 61 27 l 1
 61 25 l 1
 63 25 l 1
 63 27 l 1
EndSplineSet
EndChar

StartChar: custom_5_5_0_1_0
Encoding: 36478 36478 16510
Width: 70
Flags: H
LayerCount: 2
Fore
SplineSet
23 43 m 1
 21 43 l 1
 21 41 l 1
 23 41 l 1
 23 43 l 1
26 43 m 1
 24 43 l 1
 24 41 l 1
 25 41 l 1
 25 42 l 1
 26 42 l 1
 26 43 l 1
23 35 m 1
 21 35 l 1
 21 33 l 1
 23 33 l 1
 23 35 l 1
25 35 m 1
 24 35 l 1
 24 33 l 1
 26 33 l 1
 26 34 l 1
 25 34 l 1
 25 35 l 1
28 43 m 1
 27 43 l 1
 27 42 l 1
 26 42 l 1
 26 41 l 1
 28 41 l 1
 28 43 l 1
31 43 m 1
 29 43 l 1
 29 41 l 1
 31 41 l 1
 31 43 l 1
41 43 m 1
 39 43 l 1
 39 41 l 1
 41 41 l 1
 41 43 l 1
31 39 m 1
 29 39 l 1
 29 37 l 1
 31 37 l 1
 31 39 l 1
28 35 m 1
 26 35 l 1
 26 34 l 1
 27 34 l 1
 27 33 l 1
 28 33 l 1
 28 35 l 1
31 35 m 1
 29 35 l 1
 29 33 l 1
 31 33 l 1
 31 35 l 1
41 39 m 1
 39 39 l 1
 39 37 l 1
 41 37 l 1
 41 39 l 1
36 37 m 1
 34 37 l 1
 34 35 l 1
 36 35 l 1
 36 37 l 1
41 35 m 1
 39 35 l 1
 39 33 l 1
 41 33 l 1
 41 35 l 1
44 43 m 1
 42 43 l 1
 42 41 l 1
 43 41 l 1
 43 42 l 1
 44 42 l 1
 44 43 l 1
46 43 m 1
 45 43 l 1
 45 42 l 1
 44 42 l 1
 44 41 l 1
 46 41 l 1
 46 43 l 1
49 43 m 1
 47 43 l 1
 47 41 l 1
 49 41 l 1
 49 43 l 1
55 43 m 1
 53 43 l 1
 53 41 l 1
 55 41 l 1
 55 43 l 1
58 43 m 1
 56 43 l 1
 56 41 l 1
 57 41 l 1
 57 42 l 1
 58 42 l 1
 58 43 l 1
43 35 m 1
 42 35 l 1
 42 33 l 1
 44 33 l 1
 44 34 l 1
 43 34 l 1
 43 35 l 1
46 35 m 1
 44 35 l 1
 44 34 l 1
 45 34 l 1
 45 33 l 1
 46 33 l 1
 46 35 l 1
49 35 m 1
 47 35 l 1
 47 33 l 1
 49 33 l 1
 49 35 l 1
55 39 m 1
 53 39 l 1
 53 37 l 1
 55 37 l 1
 55 39 l 1
55 35 m 1
 53 35 l 1
 53 33 l 1
 55 33 l 1
 55 35 l 1
57 35 m 1
 56 35 l 1
 56 33 l 1
 58 33 l 1
 58 34 l 1
 57 34 l 1
 57 35 l 1
60 43 m 1
 59 43 l 1
 59 42 l 1
 58 42 l 1
 58 41 l 1
 60 41 l 1
 60 43 l 1
63 43 m 1
 61 43 l 1
 61 41 l 1
 63 41 l 1
 63 43 l 1
60 35 m 1
 58 35 l 1
 58 34 l 1
 59 34 l 1
 59 33 l 1
 60 33 l 1
 60 35 l 1
63 35 m 1
 61 35 l 1
 61 33 l 1
 63 33 l 1
 63 35 l 1
23 27 m 1
 21 27 l 1
 21 25 l 1
 23 25 l 1
 23 27 l 1
26 27 m 1
 24 27 l 1
 24 25 l 1
 25 25 l 1
 25 26 l 1
 26 26 l 1
 26 27 l 1
31 31 m 1
 29 31 l 1
 29 29 l 1
 31 29 l 1
 31 31 l 1
28 27 m 1
 27 27 l 1
 27 26 l 1
 26 26 l 1
 26 25 l 1
 28 25 l 1
 28 27 l 1
31 27 m 1
 29 27 l 1
 29 25 l 1
 31 25 l 1
 31 27 l 1
36 33 m 1
 34 33 l 1
 34 31 l 1
 36 31 l 1
 36 33 l 1
41 27 m 1
 39 27 l 1
 39 25 l 1
 41 25 l 1
 41 27 l 1
49 31 m 1
 47 31 l 1
 47 29 l 1
 49 29 l 1
 49 31 l 1
44 27 m 1
 42 27 l 1
 42 25 l 1
 43 25 l 1
 43 26 l 1
 44 26 l 1
 44 27 l 1
46 27 m 1
 45 27 l 1
 45 26 l 1
 44 26 l 1
 44 25 l 1
 46 25 l 1
 46 27 l 1
49 27 m 1
 47 27 l 1
 47 25 l 1
 49 25 l 1
 49 27 l 1
55 27 m 1
 53 27 l 1
 53 25 l 1
 55 25 l 1
 55 27 l 1
58 27 m 1
 56 27 l 1
 56 25 l 1
 57 25 l 1
 57 26 l 1
 58 26 l 1
 58 27 l 1
63 31 m 1
 61 31 l 1
 61 29 l 1
 63 29 l 1
 63 31 l 1
60 27 m 1
 59 27 l 1
 59 26 l 1
 58 26 l 1
 58 25 l 1
 60 25 l 1
 60 27 l 1
63 27 m 1
 61 27 l 1
 61 25 l 1
 63 25 l 1
 63 27 l 1
EndSplineSet
EndChar

StartChar: custom_5_5_0_1_1
Encoding: 36479 36479 16511
Width: 70
Flags: H
LayerCount: 2
Fore
SplineSet
23 43 m 1
 21 43 l 1
 21 41 l 1
 23 41 l 1
 23 43 l 1
26 43 m 1
 24 43 l 1
 24 41 l 1
 25 41 l 1
 25 42 l 1
 26 42 l 1
 26 43 l 1
23 35 m 1
 21 35 l 1
 21 33 l 1
 23 33 l 1
 23 35 l 1
25 35 m 1
 24 35 l 1
 24 33 l 1
 26 33 l 1
 26 34 l 1
 25 34 l 1
 25 35 l 1
28 43 m 1
 27 43 l 1
 27 42 l 1
 26 42 l 1
 26 41 l 1
 28 41 l 1
 28 43 l 1
31 43 m 1
 29 43 l 1
 29 41 l 1
 31 41 l 1
 31 43 l 1
41 43 m 1
 39 43 l 1
 39 41 l 1
 41 41 l 1
 41 43 l 1
31 39 m 1
 29 39 l 1
 29 37 l 1
 31 37 l 1
 31 39 l 1
28 35 m 1
 26 35 l 1
 26 34 l 1
 27 34 l 1
 27 33 l 1
 28 33 l 1
 28 35 l 1
31 35 m 1
 29 35 l 1
 29 33 l 1
 31 33 l 1
 31 35 l 1
41 39 m 1
 39 39 l 1
 39 37 l 1
 41 37 l 1
 41 39 l 1
36 37 m 1
 34 37 l 1
 34 35 l 1
 36 35 l 1
 36 37 l 1
41 35 m 1
 39 35 l 1
 39 33 l 1
 41 33 l 1
 41 35 l 1
44 43 m 1
 42 43 l 1
 42 41 l 1
 43 41 l 1
 43 42 l 1
 44 42 l 1
 44 43 l 1
46 43 m 1
 45 43 l 1
 45 42 l 1
 44 42 l 1
 44 41 l 1
 46 41 l 1
 46 43 l 1
49 43 m 1
 47 43 l 1
 47 41 l 1
 49 41 l 1
 49 43 l 1
55 43 m 1
 53 43 l 1
 53 41 l 1
 55 41 l 1
 55 43 l 1
58 43 m 1
 56 43 l 1
 56 41 l 1
 57 41 l 1
 57 42 l 1
 58 42 l 1
 58 43 l 1
43 35 m 1
 42 35 l 1
 42 33 l 1
 44 33 l 1
 44 34 l 1
 43 34 l 1
 43 35 l 1
46 35 m 1
 44 35 l 1
 44 34 l 1
 45 34 l 1
 45 33 l 1
 46 33 l 1
 46 35 l 1
49 35 m 1
 47 35 l 1
 47 33 l 1
 49 33 l 1
 49 35 l 1
55 39 m 1
 53 39 l 1
 53 37 l 1
 55 37 l 1
 55 39 l 1
55 35 m 1
 53 35 l 1
 53 33 l 1
 55 33 l 1
 55 35 l 1
57 35 m 1
 56 35 l 1
 56 33 l 1
 58 33 l 1
 58 34 l 1
 57 34 l 1
 57 35 l 1
60 43 m 1
 59 43 l 1
 59 42 l 1
 58 42 l 1
 58 41 l 1
 60 41 l 1
 60 43 l 1
63 43 m 1
 61 43 l 1
 61 41 l 1
 63 41 l 1
 63 43 l 1
60 35 m 1
 58 35 l 1
 58 34 l 1
 59 34 l 1
 59 33 l 1
 60 33 l 1
 60 35 l 1
63 35 m 1
 61 35 l 1
 61 33 l 1
 63 33 l 1
 63 35 l 1
23 27 m 1
 21 27 l 1
 21 25 l 1
 23 25 l 1
 23 27 l 1
26 27 m 1
 24 27 l 1
 24 25 l 1
 25 25 l 1
 25 26 l 1
 26 26 l 1
 26 27 l 1
31 31 m 1
 29 31 l 1
 29 29 l 1
 31 29 l 1
 31 31 l 1
28 27 m 1
 27 27 l 1
 27 26 l 1
 26 26 l 1
 26 25 l 1
 28 25 l 1
 28 27 l 1
31 27 m 1
 29 27 l 1
 29 25 l 1
 31 25 l 1
 31 27 l 1
36 33 m 1
 34 33 l 1
 34 31 l 1
 36 31 l 1
 36 33 l 1
41 27 m 1
 39 27 l 1
 39 25 l 1
 41 25 l 1
 41 27 l 1
49 31 m 1
 47 31 l 1
 47 29 l 1
 49 29 l 1
 49 31 l 1
44 27 m 1
 42 27 l 1
 42 25 l 1
 43 25 l 1
 43 26 l 1
 44 26 l 1
 44 27 l 1
46 27 m 1
 45 27 l 1
 45 26 l 1
 44 26 l 1
 44 25 l 1
 46 25 l 1
 46 27 l 1
49 27 m 1
 47 27 l 1
 47 25 l 1
 49 25 l 1
 49 27 l 1
55 27 m 1
 53 27 l 1
 53 25 l 1
 55 25 l 1
 55 27 l 1
58 27 m 1
 56 27 l 1
 56 25 l 1
 57 25 l 1
 57 26 l 1
 58 26 l 1
 58 27 l 1
63 31 m 1
 61 31 l 1
 61 29 l 1
 63 29 l 1
 63 31 l 1
60 27 m 1
 59 27 l 1
 59 26 l 1
 58 26 l 1
 58 25 l 1
 60 25 l 1
 60 27 l 1
63 27 m 1
 61 27 l 1
 61 25 l 1
 63 25 l 1
 63 27 l 1
EndSplineSet
EndChar

StartChar: custom_5_5_0_1_2
Encoding: 36480 36480 16512
Width: 70
Flags: H
LayerCount: 2
Fore
SplineSet
23 43 m 1
 21 43 l 1
 21 41 l 1
 23 41 l 1
 23 43 l 1
26 43 m 1
 24 43 l 1
 24 41 l 1
 25 41 l 1
 25 42 l 1
 26 42 l 1
 26 43 l 1
23 35 m 1
 21 35 l 1
 21 33 l 1
 23 33 l 1
 23 35 l 1
25 35 m 1
 24 35 l 1
 24 33 l 1
 26 33 l 1
 26 34 l 1
 25 34 l 1
 25 35 l 1
28 43 m 1
 27 43 l 1
 27 42 l 1
 26 42 l 1
 26 41 l 1
 28 41 l 1
 28 43 l 1
31 43 m 1
 29 43 l 1
 29 41 l 1
 31 41 l 1
 31 43 l 1
41 43 m 1
 39 43 l 1
 39 41 l 1
 41 41 l 1
 41 43 l 1
31 39 m 1
 29 39 l 1
 29 37 l 1
 31 37 l 1
 31 39 l 1
28 35 m 1
 26 35 l 1
 26 34 l 1
 27 34 l 1
 27 33 l 1
 28 33 l 1
 28 35 l 1
31 35 m 1
 29 35 l 1
 29 33 l 1
 31 33 l 1
 31 35 l 1
41 39 m 1
 39 39 l 1
 39 37 l 1
 41 37 l 1
 41 39 l 1
36 37 m 1
 34 37 l 1
 34 35 l 1
 36 35 l 1
 36 37 l 1
41 35 m 1
 39 35 l 1
 39 33 l 1
 41 33 l 1
 41 35 l 1
44 43 m 1
 42 43 l 1
 42 41 l 1
 43 41 l 1
 43 42 l 1
 44 42 l 1
 44 43 l 1
46 43 m 1
 45 43 l 1
 45 42 l 1
 44 42 l 1
 44 41 l 1
 46 41 l 1
 46 43 l 1
49 43 m 1
 47 43 l 1
 47 41 l 1
 49 41 l 1
 49 43 l 1
55 43 m 1
 53 43 l 1
 53 41 l 1
 55 41 l 1
 55 43 l 1
58 43 m 1
 56 43 l 1
 56 41 l 1
 57 41 l 1
 57 42 l 1
 58 42 l 1
 58 43 l 1
43 35 m 1
 42 35 l 1
 42 33 l 1
 44 33 l 1
 44 34 l 1
 43 34 l 1
 43 35 l 1
46 35 m 1
 44 35 l 1
 44 34 l 1
 45 34 l 1
 45 33 l 1
 46 33 l 1
 46 35 l 1
49 35 m 1
 47 35 l 1
 47 33 l 1
 49 33 l 1
 49 35 l 1
55 39 m 1
 53 39 l 1
 53 37 l 1
 55 37 l 1
 55 39 l 1
55 35 m 1
 53 35 l 1
 53 33 l 1
 55 33 l 1
 55 35 l 1
57 35 m 1
 56 35 l 1
 56 33 l 1
 58 33 l 1
 58 34 l 1
 57 34 l 1
 57 35 l 1
60 43 m 1
 59 43 l 1
 59 42 l 1
 58 42 l 1
 58 41 l 1
 60 41 l 1
 60 43 l 1
63 43 m 1
 61 43 l 1
 61 41 l 1
 63 41 l 1
 63 43 l 1
60 35 m 1
 58 35 l 1
 58 34 l 1
 59 34 l 1
 59 33 l 1
 60 33 l 1
 60 35 l 1
63 35 m 1
 61 35 l 1
 61 33 l 1
 63 33 l 1
 63 35 l 1
23 27 m 1
 21 27 l 1
 21 25 l 1
 23 25 l 1
 23 27 l 1
26 27 m 1
 24 27 l 1
 24 25 l 1
 25 25 l 1
 25 26 l 1
 26 26 l 1
 26 27 l 1
31 31 m 1
 29 31 l 1
 29 29 l 1
 31 29 l 1
 31 31 l 1
28 27 m 1
 27 27 l 1
 27 26 l 1
 26 26 l 1
 26 25 l 1
 28 25 l 1
 28 27 l 1
31 27 m 1
 29 27 l 1
 29 25 l 1
 31 25 l 1
 31 27 l 1
36 33 m 1
 34 33 l 1
 34 31 l 1
 36 31 l 1
 36 33 l 1
41 27 m 1
 39 27 l 1
 39 25 l 1
 41 25 l 1
 41 27 l 1
49 31 m 1
 47 31 l 1
 47 29 l 1
 49 29 l 1
 49 31 l 1
44 27 m 1
 42 27 l 1
 42 25 l 1
 43 25 l 1
 43 26 l 1
 44 26 l 1
 44 27 l 1
46 27 m 1
 45 27 l 1
 45 26 l 1
 44 26 l 1
 44 25 l 1
 46 25 l 1
 46 27 l 1
49 27 m 1
 47 27 l 1
 47 25 l 1
 49 25 l 1
 49 27 l 1
55 27 m 1
 53 27 l 1
 53 25 l 1
 55 25 l 1
 55 27 l 1
58 27 m 1
 56 27 l 1
 56 25 l 1
 57 25 l 1
 57 26 l 1
 58 26 l 1
 58 27 l 1
63 31 m 1
 61 31 l 1
 61 29 l 1
 63 29 l 1
 63 31 l 1
60 27 m 1
 59 27 l 1
 59 26 l 1
 58 26 l 1
 58 25 l 1
 60 25 l 1
 60 27 l 1
63 27 m 1
 61 27 l 1
 61 25 l 1
 63 25 l 1
 63 27 l 1
EndSplineSet
EndChar

StartChar: custom_5_5_0_1_3
Encoding: 36481 36481 16513
Width: 70
Flags: H
LayerCount: 2
Fore
SplineSet
23 43 m 1
 21 43 l 1
 21 41 l 1
 23 41 l 1
 23 43 l 1
26 43 m 1
 24 43 l 1
 24 41 l 1
 25 41 l 1
 25 42 l 1
 26 42 l 1
 26 43 l 1
23 35 m 1
 21 35 l 1
 21 33 l 1
 23 33 l 1
 23 35 l 1
25 35 m 1
 24 35 l 1
 24 33 l 1
 26 33 l 1
 26 34 l 1
 25 34 l 1
 25 35 l 1
28 43 m 1
 27 43 l 1
 27 42 l 1
 26 42 l 1
 26 41 l 1
 28 41 l 1
 28 43 l 1
31 43 m 1
 29 43 l 1
 29 41 l 1
 31 41 l 1
 31 43 l 1
41 43 m 1
 39 43 l 1
 39 41 l 1
 41 41 l 1
 41 43 l 1
31 39 m 1
 29 39 l 1
 29 37 l 1
 31 37 l 1
 31 39 l 1
28 35 m 1
 26 35 l 1
 26 34 l 1
 27 34 l 1
 27 33 l 1
 28 33 l 1
 28 35 l 1
31 35 m 1
 29 35 l 1
 29 33 l 1
 31 33 l 1
 31 35 l 1
41 39 m 1
 39 39 l 1
 39 37 l 1
 41 37 l 1
 41 39 l 1
36 37 m 1
 34 37 l 1
 34 35 l 1
 36 35 l 1
 36 37 l 1
41 35 m 1
 39 35 l 1
 39 33 l 1
 41 33 l 1
 41 35 l 1
44 43 m 1
 42 43 l 1
 42 41 l 1
 43 41 l 1
 43 42 l 1
 44 42 l 1
 44 43 l 1
46 43 m 1
 45 43 l 1
 45 42 l 1
 44 42 l 1
 44 41 l 1
 46 41 l 1
 46 43 l 1
49 43 m 1
 47 43 l 1
 47 41 l 1
 49 41 l 1
 49 43 l 1
55 43 m 1
 53 43 l 1
 53 41 l 1
 55 41 l 1
 55 43 l 1
58 43 m 1
 56 43 l 1
 56 41 l 1
 57 41 l 1
 57 42 l 1
 58 42 l 1
 58 43 l 1
43 35 m 1
 42 35 l 1
 42 33 l 1
 44 33 l 1
 44 34 l 1
 43 34 l 1
 43 35 l 1
46 35 m 1
 44 35 l 1
 44 34 l 1
 45 34 l 1
 45 33 l 1
 46 33 l 1
 46 35 l 1
49 35 m 1
 47 35 l 1
 47 33 l 1
 49 33 l 1
 49 35 l 1
55 39 m 1
 53 39 l 1
 53 37 l 1
 55 37 l 1
 55 39 l 1
55 35 m 1
 53 35 l 1
 53 33 l 1
 55 33 l 1
 55 35 l 1
57 35 m 1
 56 35 l 1
 56 33 l 1
 58 33 l 1
 58 34 l 1
 57 34 l 1
 57 35 l 1
60 43 m 1
 59 43 l 1
 59 42 l 1
 58 42 l 1
 58 41 l 1
 60 41 l 1
 60 43 l 1
63 43 m 1
 61 43 l 1
 61 41 l 1
 63 41 l 1
 63 43 l 1
60 35 m 1
 58 35 l 1
 58 34 l 1
 59 34 l 1
 59 33 l 1
 60 33 l 1
 60 35 l 1
63 35 m 1
 61 35 l 1
 61 33 l 1
 63 33 l 1
 63 35 l 1
23 27 m 1
 21 27 l 1
 21 25 l 1
 23 25 l 1
 23 27 l 1
26 27 m 1
 24 27 l 1
 24 25 l 1
 25 25 l 1
 25 26 l 1
 26 26 l 1
 26 27 l 1
31 31 m 1
 29 31 l 1
 29 29 l 1
 31 29 l 1
 31 31 l 1
28 27 m 1
 27 27 l 1
 27 26 l 1
 26 26 l 1
 26 25 l 1
 28 25 l 1
 28 27 l 1
31 27 m 1
 29 27 l 1
 29 25 l 1
 31 25 l 1
 31 27 l 1
36 33 m 1
 34 33 l 1
 34 31 l 1
 36 31 l 1
 36 33 l 1
41 27 m 1
 39 27 l 1
 39 25 l 1
 41 25 l 1
 41 27 l 1
49 31 m 1
 47 31 l 1
 47 29 l 1
 49 29 l 1
 49 31 l 1
44 27 m 1
 42 27 l 1
 42 25 l 1
 43 25 l 1
 43 26 l 1
 44 26 l 1
 44 27 l 1
46 27 m 1
 45 27 l 1
 45 26 l 1
 44 26 l 1
 44 25 l 1
 46 25 l 1
 46 27 l 1
49 27 m 1
 47 27 l 1
 47 25 l 1
 49 25 l 1
 49 27 l 1
55 27 m 1
 53 27 l 1
 53 25 l 1
 55 25 l 1
 55 27 l 1
58 27 m 1
 56 27 l 1
 56 25 l 1
 57 25 l 1
 57 26 l 1
 58 26 l 1
 58 27 l 1
63 31 m 1
 61 31 l 1
 61 29 l 1
 63 29 l 1
 63 31 l 1
60 27 m 1
 59 27 l 1
 59 26 l 1
 58 26 l 1
 58 25 l 1
 60 25 l 1
 60 27 l 1
63 27 m 1
 61 27 l 1
 61 25 l 1
 63 25 l 1
 63 27 l 1
EndSplineSet
EndChar

StartChar: custom_5_5_0_1_4
Encoding: 36482 36482 16514
Width: 70
Flags: H
LayerCount: 2
Fore
SplineSet
23 43 m 1
 21 43 l 1
 21 41 l 1
 23 41 l 1
 23 43 l 1
26 43 m 1
 24 43 l 1
 24 41 l 1
 25 41 l 1
 25 42 l 1
 26 42 l 1
 26 43 l 1
23 35 m 1
 21 35 l 1
 21 33 l 1
 23 33 l 1
 23 35 l 1
25 35 m 1
 24 35 l 1
 24 33 l 1
 26 33 l 1
 26 34 l 1
 25 34 l 1
 25 35 l 1
28 43 m 1
 27 43 l 1
 27 42 l 1
 26 42 l 1
 26 41 l 1
 28 41 l 1
 28 43 l 1
31 43 m 1
 29 43 l 1
 29 41 l 1
 31 41 l 1
 31 43 l 1
41 43 m 1
 39 43 l 1
 39 41 l 1
 41 41 l 1
 41 43 l 1
31 39 m 1
 29 39 l 1
 29 37 l 1
 31 37 l 1
 31 39 l 1
28 35 m 1
 26 35 l 1
 26 34 l 1
 27 34 l 1
 27 33 l 1
 28 33 l 1
 28 35 l 1
31 35 m 1
 29 35 l 1
 29 33 l 1
 31 33 l 1
 31 35 l 1
41 39 m 1
 39 39 l 1
 39 37 l 1
 41 37 l 1
 41 39 l 1
36 37 m 1
 34 37 l 1
 34 35 l 1
 36 35 l 1
 36 37 l 1
41 35 m 1
 39 35 l 1
 39 33 l 1
 41 33 l 1
 41 35 l 1
44 43 m 1
 42 43 l 1
 42 41 l 1
 43 41 l 1
 43 42 l 1
 44 42 l 1
 44 43 l 1
46 43 m 1
 45 43 l 1
 45 42 l 1
 44 42 l 1
 44 41 l 1
 46 41 l 1
 46 43 l 1
49 43 m 1
 47 43 l 1
 47 41 l 1
 49 41 l 1
 49 43 l 1
55 43 m 1
 53 43 l 1
 53 41 l 1
 55 41 l 1
 55 43 l 1
58 43 m 1
 56 43 l 1
 56 41 l 1
 57 41 l 1
 57 42 l 1
 58 42 l 1
 58 43 l 1
43 35 m 1
 42 35 l 1
 42 33 l 1
 44 33 l 1
 44 34 l 1
 43 34 l 1
 43 35 l 1
46 35 m 1
 44 35 l 1
 44 34 l 1
 45 34 l 1
 45 33 l 1
 46 33 l 1
 46 35 l 1
49 35 m 1
 47 35 l 1
 47 33 l 1
 49 33 l 1
 49 35 l 1
55 39 m 1
 53 39 l 1
 53 37 l 1
 55 37 l 1
 55 39 l 1
55 35 m 1
 53 35 l 1
 53 33 l 1
 55 33 l 1
 55 35 l 1
57 35 m 1
 56 35 l 1
 56 33 l 1
 58 33 l 1
 58 34 l 1
 57 34 l 1
 57 35 l 1
60 43 m 1
 59 43 l 1
 59 42 l 1
 58 42 l 1
 58 41 l 1
 60 41 l 1
 60 43 l 1
63 43 m 1
 61 43 l 1
 61 41 l 1
 63 41 l 1
 63 43 l 1
60 35 m 1
 58 35 l 1
 58 34 l 1
 59 34 l 1
 59 33 l 1
 60 33 l 1
 60 35 l 1
63 35 m 1
 61 35 l 1
 61 33 l 1
 63 33 l 1
 63 35 l 1
23 27 m 1
 21 27 l 1
 21 25 l 1
 23 25 l 1
 23 27 l 1
26 27 m 1
 24 27 l 1
 24 25 l 1
 25 25 l 1
 25 26 l 1
 26 26 l 1
 26 27 l 1
31 31 m 1
 29 31 l 1
 29 29 l 1
 31 29 l 1
 31 31 l 1
28 27 m 1
 27 27 l 1
 27 26 l 1
 26 26 l 1
 26 25 l 1
 28 25 l 1
 28 27 l 1
31 27 m 1
 29 27 l 1
 29 25 l 1
 31 25 l 1
 31 27 l 1
36 33 m 1
 34 33 l 1
 34 31 l 1
 36 31 l 1
 36 33 l 1
41 27 m 1
 39 27 l 1
 39 25 l 1
 41 25 l 1
 41 27 l 1
49 31 m 1
 47 31 l 1
 47 29 l 1
 49 29 l 1
 49 31 l 1
44 27 m 1
 42 27 l 1
 42 25 l 1
 43 25 l 1
 43 26 l 1
 44 26 l 1
 44 27 l 1
46 27 m 1
 45 27 l 1
 45 26 l 1
 44 26 l 1
 44 25 l 1
 46 25 l 1
 46 27 l 1
49 27 m 1
 47 27 l 1
 47 25 l 1
 49 25 l 1
 49 27 l 1
55 27 m 1
 53 27 l 1
 53 25 l 1
 55 25 l 1
 55 27 l 1
58 27 m 1
 56 27 l 1
 56 25 l 1
 57 25 l 1
 57 26 l 1
 58 26 l 1
 58 27 l 1
63 31 m 1
 61 31 l 1
 61 29 l 1
 63 29 l 1
 63 31 l 1
60 27 m 1
 59 27 l 1
 59 26 l 1
 58 26 l 1
 58 25 l 1
 60 25 l 1
 60 27 l 1
63 27 m 1
 61 27 l 1
 61 25 l 1
 63 25 l 1
 63 27 l 1
EndSplineSet
EndChar

StartChar: custom_5_5_0_1_5
Encoding: 36483 36483 16515
Width: 70
Flags: H
LayerCount: 2
Fore
SplineSet
23 43 m 1
 21 43 l 1
 21 41 l 1
 23 41 l 1
 23 43 l 1
26 43 m 1
 24 43 l 1
 24 41 l 1
 25 41 l 1
 25 42 l 1
 26 42 l 1
 26 43 l 1
23 35 m 1
 21 35 l 1
 21 33 l 1
 23 33 l 1
 23 35 l 1
25 35 m 1
 24 35 l 1
 24 33 l 1
 26 33 l 1
 26 34 l 1
 25 34 l 1
 25 35 l 1
28 43 m 1
 27 43 l 1
 27 42 l 1
 26 42 l 1
 26 41 l 1
 28 41 l 1
 28 43 l 1
31 43 m 1
 29 43 l 1
 29 41 l 1
 31 41 l 1
 31 43 l 1
41 43 m 1
 39 43 l 1
 39 41 l 1
 41 41 l 1
 41 43 l 1
31 39 m 1
 29 39 l 1
 29 37 l 1
 31 37 l 1
 31 39 l 1
28 35 m 1
 26 35 l 1
 26 34 l 1
 27 34 l 1
 27 33 l 1
 28 33 l 1
 28 35 l 1
31 35 m 1
 29 35 l 1
 29 33 l 1
 31 33 l 1
 31 35 l 1
41 39 m 1
 39 39 l 1
 39 37 l 1
 41 37 l 1
 41 39 l 1
36 37 m 1
 34 37 l 1
 34 35 l 1
 36 35 l 1
 36 37 l 1
41 35 m 1
 39 35 l 1
 39 33 l 1
 41 33 l 1
 41 35 l 1
44 43 m 1
 42 43 l 1
 42 41 l 1
 43 41 l 1
 43 42 l 1
 44 42 l 1
 44 43 l 1
46 43 m 1
 45 43 l 1
 45 42 l 1
 44 42 l 1
 44 41 l 1
 46 41 l 1
 46 43 l 1
49 43 m 1
 47 43 l 1
 47 41 l 1
 49 41 l 1
 49 43 l 1
55 43 m 1
 53 43 l 1
 53 41 l 1
 55 41 l 1
 55 43 l 1
58 43 m 1
 56 43 l 1
 56 41 l 1
 57 41 l 1
 57 42 l 1
 58 42 l 1
 58 43 l 1
43 35 m 1
 42 35 l 1
 42 33 l 1
 44 33 l 1
 44 34 l 1
 43 34 l 1
 43 35 l 1
46 35 m 1
 44 35 l 1
 44 34 l 1
 45 34 l 1
 45 33 l 1
 46 33 l 1
 46 35 l 1
49 35 m 1
 47 35 l 1
 47 33 l 1
 49 33 l 1
 49 35 l 1
55 39 m 1
 53 39 l 1
 53 37 l 1
 55 37 l 1
 55 39 l 1
55 35 m 1
 53 35 l 1
 53 33 l 1
 55 33 l 1
 55 35 l 1
57 35 m 1
 56 35 l 1
 56 33 l 1
 58 33 l 1
 58 34 l 1
 57 34 l 1
 57 35 l 1
60 43 m 1
 59 43 l 1
 59 42 l 1
 58 42 l 1
 58 41 l 1
 60 41 l 1
 60 43 l 1
63 43 m 1
 61 43 l 1
 61 41 l 1
 63 41 l 1
 63 43 l 1
60 35 m 1
 58 35 l 1
 58 34 l 1
 59 34 l 1
 59 33 l 1
 60 33 l 1
 60 35 l 1
63 35 m 1
 61 35 l 1
 61 33 l 1
 63 33 l 1
 63 35 l 1
23 27 m 1
 21 27 l 1
 21 25 l 1
 23 25 l 1
 23 27 l 1
26 27 m 1
 24 27 l 1
 24 25 l 1
 25 25 l 1
 25 26 l 1
 26 26 l 1
 26 27 l 1
31 31 m 1
 29 31 l 1
 29 29 l 1
 31 29 l 1
 31 31 l 1
28 27 m 1
 27 27 l 1
 27 26 l 1
 26 26 l 1
 26 25 l 1
 28 25 l 1
 28 27 l 1
31 27 m 1
 29 27 l 1
 29 25 l 1
 31 25 l 1
 31 27 l 1
36 33 m 1
 34 33 l 1
 34 31 l 1
 36 31 l 1
 36 33 l 1
41 27 m 1
 39 27 l 1
 39 25 l 1
 41 25 l 1
 41 27 l 1
49 31 m 1
 47 31 l 1
 47 29 l 1
 49 29 l 1
 49 31 l 1
44 27 m 1
 42 27 l 1
 42 25 l 1
 43 25 l 1
 43 26 l 1
 44 26 l 1
 44 27 l 1
46 27 m 1
 45 27 l 1
 45 26 l 1
 44 26 l 1
 44 25 l 1
 46 25 l 1
 46 27 l 1
49 27 m 1
 47 27 l 1
 47 25 l 1
 49 25 l 1
 49 27 l 1
55 27 m 1
 53 27 l 1
 53 25 l 1
 55 25 l 1
 55 27 l 1
58 27 m 1
 56 27 l 1
 56 25 l 1
 57 25 l 1
 57 26 l 1
 58 26 l 1
 58 27 l 1
63 31 m 1
 61 31 l 1
 61 29 l 1
 63 29 l 1
 63 31 l 1
60 27 m 1
 59 27 l 1
 59 26 l 1
 58 26 l 1
 58 25 l 1
 60 25 l 1
 60 27 l 1
63 27 m 1
 61 27 l 1
 61 25 l 1
 63 25 l 1
 63 27 l 1
EndSplineSet
EndChar

StartChar: custom_5_5_0_1_6
Encoding: 36484 36484 16516
Width: 70
Flags: H
LayerCount: 2
Fore
SplineSet
23 43 m 1
 21 43 l 1
 21 41 l 1
 23 41 l 1
 23 43 l 1
26 43 m 1
 24 43 l 1
 24 41 l 1
 25 41 l 1
 25 42 l 1
 26 42 l 1
 26 43 l 1
23 35 m 1
 21 35 l 1
 21 33 l 1
 23 33 l 1
 23 35 l 1
25 35 m 1
 24 35 l 1
 24 33 l 1
 26 33 l 1
 26 34 l 1
 25 34 l 1
 25 35 l 1
28 43 m 1
 27 43 l 1
 27 42 l 1
 26 42 l 1
 26 41 l 1
 28 41 l 1
 28 43 l 1
31 43 m 1
 29 43 l 1
 29 41 l 1
 31 41 l 1
 31 43 l 1
41 43 m 1
 39 43 l 1
 39 41 l 1
 41 41 l 1
 41 43 l 1
31 39 m 1
 29 39 l 1
 29 37 l 1
 31 37 l 1
 31 39 l 1
28 35 m 1
 26 35 l 1
 26 34 l 1
 27 34 l 1
 27 33 l 1
 28 33 l 1
 28 35 l 1
31 35 m 1
 29 35 l 1
 29 33 l 1
 31 33 l 1
 31 35 l 1
41 39 m 1
 39 39 l 1
 39 37 l 1
 41 37 l 1
 41 39 l 1
36 37 m 1
 34 37 l 1
 34 35 l 1
 36 35 l 1
 36 37 l 1
41 35 m 1
 39 35 l 1
 39 33 l 1
 41 33 l 1
 41 35 l 1
44 43 m 1
 42 43 l 1
 42 41 l 1
 43 41 l 1
 43 42 l 1
 44 42 l 1
 44 43 l 1
46 43 m 1
 45 43 l 1
 45 42 l 1
 44 42 l 1
 44 41 l 1
 46 41 l 1
 46 43 l 1
49 43 m 1
 47 43 l 1
 47 41 l 1
 49 41 l 1
 49 43 l 1
55 43 m 1
 53 43 l 1
 53 41 l 1
 55 41 l 1
 55 43 l 1
58 43 m 1
 56 43 l 1
 56 41 l 1
 57 41 l 1
 57 42 l 1
 58 42 l 1
 58 43 l 1
43 35 m 1
 42 35 l 1
 42 33 l 1
 44 33 l 1
 44 34 l 1
 43 34 l 1
 43 35 l 1
46 35 m 1
 44 35 l 1
 44 34 l 1
 45 34 l 1
 45 33 l 1
 46 33 l 1
 46 35 l 1
49 35 m 1
 47 35 l 1
 47 33 l 1
 49 33 l 1
 49 35 l 1
55 39 m 1
 53 39 l 1
 53 37 l 1
 55 37 l 1
 55 39 l 1
55 35 m 1
 53 35 l 1
 53 33 l 1
 55 33 l 1
 55 35 l 1
57 35 m 1
 56 35 l 1
 56 33 l 1
 58 33 l 1
 58 34 l 1
 57 34 l 1
 57 35 l 1
60 43 m 1
 59 43 l 1
 59 42 l 1
 58 42 l 1
 58 41 l 1
 60 41 l 1
 60 43 l 1
63 43 m 1
 61 43 l 1
 61 41 l 1
 63 41 l 1
 63 43 l 1
60 35 m 1
 58 35 l 1
 58 34 l 1
 59 34 l 1
 59 33 l 1
 60 33 l 1
 60 35 l 1
63 35 m 1
 61 35 l 1
 61 33 l 1
 63 33 l 1
 63 35 l 1
23 27 m 1
 21 27 l 1
 21 25 l 1
 23 25 l 1
 23 27 l 1
26 27 m 1
 24 27 l 1
 24 25 l 1
 25 25 l 1
 25 26 l 1
 26 26 l 1
 26 27 l 1
31 31 m 1
 29 31 l 1
 29 29 l 1
 31 29 l 1
 31 31 l 1
28 27 m 1
 27 27 l 1
 27 26 l 1
 26 26 l 1
 26 25 l 1
 28 25 l 1
 28 27 l 1
31 27 m 1
 29 27 l 1
 29 25 l 1
 31 25 l 1
 31 27 l 1
36 33 m 1
 34 33 l 1
 34 31 l 1
 36 31 l 1
 36 33 l 1
41 27 m 1
 39 27 l 1
 39 25 l 1
 41 25 l 1
 41 27 l 1
49 31 m 1
 47 31 l 1
 47 29 l 1
 49 29 l 1
 49 31 l 1
44 27 m 1
 42 27 l 1
 42 25 l 1
 43 25 l 1
 43 26 l 1
 44 26 l 1
 44 27 l 1
46 27 m 1
 45 27 l 1
 45 26 l 1
 44 26 l 1
 44 25 l 1
 46 25 l 1
 46 27 l 1
49 27 m 1
 47 27 l 1
 47 25 l 1
 49 25 l 1
 49 27 l 1
55 27 m 1
 53 27 l 1
 53 25 l 1
 55 25 l 1
 55 27 l 1
58 27 m 1
 56 27 l 1
 56 25 l 1
 57 25 l 1
 57 26 l 1
 58 26 l 1
 58 27 l 1
63 31 m 1
 61 31 l 1
 61 29 l 1
 63 29 l 1
 63 31 l 1
60 27 m 1
 59 27 l 1
 59 26 l 1
 58 26 l 1
 58 25 l 1
 60 25 l 1
 60 27 l 1
63 27 m 1
 61 27 l 1
 61 25 l 1
 63 25 l 1
 63 27 l 1
EndSplineSet
EndChar

StartChar: custom_5_5_0_1_7
Encoding: 36485 36485 16517
Width: 70
Flags: H
LayerCount: 2
Fore
SplineSet
23 43 m 1
 21 43 l 1
 21 41 l 1
 23 41 l 1
 23 43 l 1
26 43 m 1
 24 43 l 1
 24 41 l 1
 25 41 l 1
 25 42 l 1
 26 42 l 1
 26 43 l 1
23 35 m 1
 21 35 l 1
 21 33 l 1
 23 33 l 1
 23 35 l 1
25 35 m 1
 24 35 l 1
 24 33 l 1
 26 33 l 1
 26 34 l 1
 25 34 l 1
 25 35 l 1
28 43 m 1
 27 43 l 1
 27 42 l 1
 26 42 l 1
 26 41 l 1
 28 41 l 1
 28 43 l 1
31 43 m 1
 29 43 l 1
 29 41 l 1
 31 41 l 1
 31 43 l 1
41 43 m 1
 39 43 l 1
 39 41 l 1
 41 41 l 1
 41 43 l 1
31 39 m 1
 29 39 l 1
 29 37 l 1
 31 37 l 1
 31 39 l 1
28 35 m 1
 26 35 l 1
 26 34 l 1
 27 34 l 1
 27 33 l 1
 28 33 l 1
 28 35 l 1
31 35 m 1
 29 35 l 1
 29 33 l 1
 31 33 l 1
 31 35 l 1
41 39 m 1
 39 39 l 1
 39 37 l 1
 41 37 l 1
 41 39 l 1
36 37 m 1
 34 37 l 1
 34 35 l 1
 36 35 l 1
 36 37 l 1
41 35 m 1
 39 35 l 1
 39 33 l 1
 41 33 l 1
 41 35 l 1
44 43 m 1
 42 43 l 1
 42 41 l 1
 43 41 l 1
 43 42 l 1
 44 42 l 1
 44 43 l 1
46 43 m 1
 45 43 l 1
 45 42 l 1
 44 42 l 1
 44 41 l 1
 46 41 l 1
 46 43 l 1
49 43 m 1
 47 43 l 1
 47 41 l 1
 49 41 l 1
 49 43 l 1
55 43 m 1
 53 43 l 1
 53 41 l 1
 55 41 l 1
 55 43 l 1
58 43 m 1
 56 43 l 1
 56 41 l 1
 57 41 l 1
 57 42 l 1
 58 42 l 1
 58 43 l 1
43 35 m 1
 42 35 l 1
 42 33 l 1
 44 33 l 1
 44 34 l 1
 43 34 l 1
 43 35 l 1
46 35 m 1
 44 35 l 1
 44 34 l 1
 45 34 l 1
 45 33 l 1
 46 33 l 1
 46 35 l 1
49 35 m 1
 47 35 l 1
 47 33 l 1
 49 33 l 1
 49 35 l 1
55 39 m 1
 53 39 l 1
 53 37 l 1
 55 37 l 1
 55 39 l 1
55 35 m 1
 53 35 l 1
 53 33 l 1
 55 33 l 1
 55 35 l 1
57 35 m 1
 56 35 l 1
 56 33 l 1
 58 33 l 1
 58 34 l 1
 57 34 l 1
 57 35 l 1
60 43 m 1
 59 43 l 1
 59 42 l 1
 58 42 l 1
 58 41 l 1
 60 41 l 1
 60 43 l 1
63 43 m 1
 61 43 l 1
 61 41 l 1
 63 41 l 1
 63 43 l 1
60 35 m 1
 58 35 l 1
 58 34 l 1
 59 34 l 1
 59 33 l 1
 60 33 l 1
 60 35 l 1
63 35 m 1
 61 35 l 1
 61 33 l 1
 63 33 l 1
 63 35 l 1
23 27 m 1
 21 27 l 1
 21 25 l 1
 23 25 l 1
 23 27 l 1
26 27 m 1
 24 27 l 1
 24 25 l 1
 25 25 l 1
 25 26 l 1
 26 26 l 1
 26 27 l 1
31 31 m 1
 29 31 l 1
 29 29 l 1
 31 29 l 1
 31 31 l 1
28 27 m 1
 27 27 l 1
 27 26 l 1
 26 26 l 1
 26 25 l 1
 28 25 l 1
 28 27 l 1
31 27 m 1
 29 27 l 1
 29 25 l 1
 31 25 l 1
 31 27 l 1
36 33 m 1
 34 33 l 1
 34 31 l 1
 36 31 l 1
 36 33 l 1
41 27 m 1
 39 27 l 1
 39 25 l 1
 41 25 l 1
 41 27 l 1
49 31 m 1
 47 31 l 1
 47 29 l 1
 49 29 l 1
 49 31 l 1
44 27 m 1
 42 27 l 1
 42 25 l 1
 43 25 l 1
 43 26 l 1
 44 26 l 1
 44 27 l 1
46 27 m 1
 45 27 l 1
 45 26 l 1
 44 26 l 1
 44 25 l 1
 46 25 l 1
 46 27 l 1
49 27 m 1
 47 27 l 1
 47 25 l 1
 49 25 l 1
 49 27 l 1
55 27 m 1
 53 27 l 1
 53 25 l 1
 55 25 l 1
 55 27 l 1
58 27 m 1
 56 27 l 1
 56 25 l 1
 57 25 l 1
 57 26 l 1
 58 26 l 1
 58 27 l 1
63 31 m 1
 61 31 l 1
 61 29 l 1
 63 29 l 1
 63 31 l 1
60 27 m 1
 59 27 l 1
 59 26 l 1
 58 26 l 1
 58 25 l 1
 60 25 l 1
 60 27 l 1
63 27 m 1
 61 27 l 1
 61 25 l 1
 63 25 l 1
 63 27 l 1
EndSplineSet
EndChar

StartChar: custom_5_5_0_1_8
Encoding: 36486 36486 16518
Width: 70
Flags: H
LayerCount: 2
Fore
SplineSet
23 43 m 1
 21 43 l 1
 21 41 l 1
 23 41 l 1
 23 43 l 1
26 43 m 1
 24 43 l 1
 24 41 l 1
 25 41 l 1
 25 42 l 1
 26 42 l 1
 26 43 l 1
23 35 m 1
 21 35 l 1
 21 33 l 1
 23 33 l 1
 23 35 l 1
25 35 m 1
 24 35 l 1
 24 33 l 1
 26 33 l 1
 26 34 l 1
 25 34 l 1
 25 35 l 1
28 43 m 1
 27 43 l 1
 27 42 l 1
 26 42 l 1
 26 41 l 1
 28 41 l 1
 28 43 l 1
31 43 m 1
 29 43 l 1
 29 41 l 1
 31 41 l 1
 31 43 l 1
41 43 m 1
 39 43 l 1
 39 41 l 1
 41 41 l 1
 41 43 l 1
31 39 m 1
 29 39 l 1
 29 37 l 1
 31 37 l 1
 31 39 l 1
28 35 m 1
 26 35 l 1
 26 34 l 1
 27 34 l 1
 27 33 l 1
 28 33 l 1
 28 35 l 1
31 35 m 1
 29 35 l 1
 29 33 l 1
 31 33 l 1
 31 35 l 1
41 39 m 1
 39 39 l 1
 39 37 l 1
 41 37 l 1
 41 39 l 1
36 37 m 1
 34 37 l 1
 34 35 l 1
 36 35 l 1
 36 37 l 1
41 35 m 1
 39 35 l 1
 39 33 l 1
 41 33 l 1
 41 35 l 1
44 43 m 1
 42 43 l 1
 42 41 l 1
 43 41 l 1
 43 42 l 1
 44 42 l 1
 44 43 l 1
46 43 m 1
 45 43 l 1
 45 42 l 1
 44 42 l 1
 44 41 l 1
 46 41 l 1
 46 43 l 1
49 43 m 1
 47 43 l 1
 47 41 l 1
 49 41 l 1
 49 43 l 1
55 43 m 1
 53 43 l 1
 53 41 l 1
 55 41 l 1
 55 43 l 1
58 43 m 1
 56 43 l 1
 56 41 l 1
 57 41 l 1
 57 42 l 1
 58 42 l 1
 58 43 l 1
43 35 m 1
 42 35 l 1
 42 33 l 1
 44 33 l 1
 44 34 l 1
 43 34 l 1
 43 35 l 1
46 35 m 1
 44 35 l 1
 44 34 l 1
 45 34 l 1
 45 33 l 1
 46 33 l 1
 46 35 l 1
49 35 m 1
 47 35 l 1
 47 33 l 1
 49 33 l 1
 49 35 l 1
55 39 m 1
 53 39 l 1
 53 37 l 1
 55 37 l 1
 55 39 l 1
55 35 m 1
 53 35 l 1
 53 33 l 1
 55 33 l 1
 55 35 l 1
57 35 m 1
 56 35 l 1
 56 33 l 1
 58 33 l 1
 58 34 l 1
 57 34 l 1
 57 35 l 1
60 43 m 1
 59 43 l 1
 59 42 l 1
 58 42 l 1
 58 41 l 1
 60 41 l 1
 60 43 l 1
63 43 m 1
 61 43 l 1
 61 41 l 1
 63 41 l 1
 63 43 l 1
60 35 m 1
 58 35 l 1
 58 34 l 1
 59 34 l 1
 59 33 l 1
 60 33 l 1
 60 35 l 1
63 35 m 1
 61 35 l 1
 61 33 l 1
 63 33 l 1
 63 35 l 1
23 27 m 1
 21 27 l 1
 21 25 l 1
 23 25 l 1
 23 27 l 1
26 27 m 1
 24 27 l 1
 24 25 l 1
 25 25 l 1
 25 26 l 1
 26 26 l 1
 26 27 l 1
31 31 m 1
 29 31 l 1
 29 29 l 1
 31 29 l 1
 31 31 l 1
28 27 m 1
 27 27 l 1
 27 26 l 1
 26 26 l 1
 26 25 l 1
 28 25 l 1
 28 27 l 1
31 27 m 1
 29 27 l 1
 29 25 l 1
 31 25 l 1
 31 27 l 1
36 33 m 1
 34 33 l 1
 34 31 l 1
 36 31 l 1
 36 33 l 1
41 27 m 1
 39 27 l 1
 39 25 l 1
 41 25 l 1
 41 27 l 1
49 31 m 1
 47 31 l 1
 47 29 l 1
 49 29 l 1
 49 31 l 1
44 27 m 1
 42 27 l 1
 42 25 l 1
 43 25 l 1
 43 26 l 1
 44 26 l 1
 44 27 l 1
46 27 m 1
 45 27 l 1
 45 26 l 1
 44 26 l 1
 44 25 l 1
 46 25 l 1
 46 27 l 1
49 27 m 1
 47 27 l 1
 47 25 l 1
 49 25 l 1
 49 27 l 1
55 27 m 1
 53 27 l 1
 53 25 l 1
 55 25 l 1
 55 27 l 1
58 27 m 1
 56 27 l 1
 56 25 l 1
 57 25 l 1
 57 26 l 1
 58 26 l 1
 58 27 l 1
63 31 m 1
 61 31 l 1
 61 29 l 1
 63 29 l 1
 63 31 l 1
60 27 m 1
 59 27 l 1
 59 26 l 1
 58 26 l 1
 58 25 l 1
 60 25 l 1
 60 27 l 1
63 27 m 1
 61 27 l 1
 61 25 l 1
 63 25 l 1
 63 27 l 1
EndSplineSet
EndChar

StartChar: custom_5_5_0_1_9
Encoding: 36487 36487 16519
Width: 70
Flags: H
LayerCount: 2
Fore
SplineSet
23 43 m 1
 21 43 l 1
 21 41 l 1
 23 41 l 1
 23 43 l 1
26 43 m 1
 24 43 l 1
 24 41 l 1
 25 41 l 1
 25 42 l 1
 26 42 l 1
 26 43 l 1
23 35 m 1
 21 35 l 1
 21 33 l 1
 23 33 l 1
 23 35 l 1
25 35 m 1
 24 35 l 1
 24 33 l 1
 26 33 l 1
 26 34 l 1
 25 34 l 1
 25 35 l 1
28 43 m 1
 27 43 l 1
 27 42 l 1
 26 42 l 1
 26 41 l 1
 28 41 l 1
 28 43 l 1
31 43 m 1
 29 43 l 1
 29 41 l 1
 31 41 l 1
 31 43 l 1
41 43 m 1
 39 43 l 1
 39 41 l 1
 41 41 l 1
 41 43 l 1
31 39 m 1
 29 39 l 1
 29 37 l 1
 31 37 l 1
 31 39 l 1
28 35 m 1
 26 35 l 1
 26 34 l 1
 27 34 l 1
 27 33 l 1
 28 33 l 1
 28 35 l 1
31 35 m 1
 29 35 l 1
 29 33 l 1
 31 33 l 1
 31 35 l 1
41 39 m 1
 39 39 l 1
 39 37 l 1
 41 37 l 1
 41 39 l 1
36 37 m 1
 34 37 l 1
 34 35 l 1
 36 35 l 1
 36 37 l 1
41 35 m 1
 39 35 l 1
 39 33 l 1
 41 33 l 1
 41 35 l 1
44 43 m 1
 42 43 l 1
 42 41 l 1
 43 41 l 1
 43 42 l 1
 44 42 l 1
 44 43 l 1
46 43 m 1
 45 43 l 1
 45 42 l 1
 44 42 l 1
 44 41 l 1
 46 41 l 1
 46 43 l 1
49 43 m 1
 47 43 l 1
 47 41 l 1
 49 41 l 1
 49 43 l 1
55 43 m 1
 53 43 l 1
 53 41 l 1
 55 41 l 1
 55 43 l 1
58 43 m 1
 56 43 l 1
 56 41 l 1
 57 41 l 1
 57 42 l 1
 58 42 l 1
 58 43 l 1
43 35 m 1
 42 35 l 1
 42 33 l 1
 44 33 l 1
 44 34 l 1
 43 34 l 1
 43 35 l 1
46 35 m 1
 44 35 l 1
 44 34 l 1
 45 34 l 1
 45 33 l 1
 46 33 l 1
 46 35 l 1
49 35 m 1
 47 35 l 1
 47 33 l 1
 49 33 l 1
 49 35 l 1
55 39 m 1
 53 39 l 1
 53 37 l 1
 55 37 l 1
 55 39 l 1
55 35 m 1
 53 35 l 1
 53 33 l 1
 55 33 l 1
 55 35 l 1
57 35 m 1
 56 35 l 1
 56 33 l 1
 58 33 l 1
 58 34 l 1
 57 34 l 1
 57 35 l 1
60 43 m 1
 59 43 l 1
 59 42 l 1
 58 42 l 1
 58 41 l 1
 60 41 l 1
 60 43 l 1
63 43 m 1
 61 43 l 1
 61 41 l 1
 63 41 l 1
 63 43 l 1
60 35 m 1
 58 35 l 1
 58 34 l 1
 59 34 l 1
 59 33 l 1
 60 33 l 1
 60 35 l 1
63 35 m 1
 61 35 l 1
 61 33 l 1
 63 33 l 1
 63 35 l 1
23 27 m 1
 21 27 l 1
 21 25 l 1
 23 25 l 1
 23 27 l 1
26 27 m 1
 24 27 l 1
 24 25 l 1
 25 25 l 1
 25 26 l 1
 26 26 l 1
 26 27 l 1
31 31 m 1
 29 31 l 1
 29 29 l 1
 31 29 l 1
 31 31 l 1
28 27 m 1
 27 27 l 1
 27 26 l 1
 26 26 l 1
 26 25 l 1
 28 25 l 1
 28 27 l 1
31 27 m 1
 29 27 l 1
 29 25 l 1
 31 25 l 1
 31 27 l 1
36 33 m 1
 34 33 l 1
 34 31 l 1
 36 31 l 1
 36 33 l 1
41 27 m 1
 39 27 l 1
 39 25 l 1
 41 25 l 1
 41 27 l 1
49 31 m 1
 47 31 l 1
 47 29 l 1
 49 29 l 1
 49 31 l 1
44 27 m 1
 42 27 l 1
 42 25 l 1
 43 25 l 1
 43 26 l 1
 44 26 l 1
 44 27 l 1
46 27 m 1
 45 27 l 1
 45 26 l 1
 44 26 l 1
 44 25 l 1
 46 25 l 1
 46 27 l 1
49 27 m 1
 47 27 l 1
 47 25 l 1
 49 25 l 1
 49 27 l 1
55 27 m 1
 53 27 l 1
 53 25 l 1
 55 25 l 1
 55 27 l 1
58 27 m 1
 56 27 l 1
 56 25 l 1
 57 25 l 1
 57 26 l 1
 58 26 l 1
 58 27 l 1
63 31 m 1
 61 31 l 1
 61 29 l 1
 63 29 l 1
 63 31 l 1
60 27 m 1
 59 27 l 1
 59 26 l 1
 58 26 l 1
 58 25 l 1
 60 25 l 1
 60 27 l 1
63 27 m 1
 61 27 l 1
 61 25 l 1
 63 25 l 1
 63 27 l 1
EndSplineSet
EndChar

StartChar: custom_5_5_0_2_0
Encoding: 36488 36488 16520
Width: 70
Flags: H
LayerCount: 2
Fore
SplineSet
23 43 m 1
 21 43 l 1
 21 41 l 1
 23 41 l 1
 23 43 l 1
26 43 m 1
 24 43 l 1
 24 41 l 1
 25 41 l 1
 25 42 l 1
 26 42 l 1
 26 43 l 1
23 35 m 1
 21 35 l 1
 21 33 l 1
 23 33 l 1
 23 35 l 1
25 35 m 1
 24 35 l 1
 24 33 l 1
 26 33 l 1
 26 34 l 1
 25 34 l 1
 25 35 l 1
28 43 m 1
 27 43 l 1
 27 42 l 1
 26 42 l 1
 26 41 l 1
 28 41 l 1
 28 43 l 1
31 43 m 1
 29 43 l 1
 29 41 l 1
 31 41 l 1
 31 43 l 1
41 43 m 1
 39 43 l 1
 39 41 l 1
 41 41 l 1
 41 43 l 1
31 39 m 1
 29 39 l 1
 29 37 l 1
 31 37 l 1
 31 39 l 1
28 35 m 1
 26 35 l 1
 26 34 l 1
 27 34 l 1
 27 33 l 1
 28 33 l 1
 28 35 l 1
31 35 m 1
 29 35 l 1
 29 33 l 1
 31 33 l 1
 31 35 l 1
41 39 m 1
 39 39 l 1
 39 37 l 1
 41 37 l 1
 41 39 l 1
36 37 m 1
 34 37 l 1
 34 35 l 1
 36 35 l 1
 36 37 l 1
41 35 m 1
 39 35 l 1
 39 33 l 1
 41 33 l 1
 41 35 l 1
44 43 m 1
 42 43 l 1
 42 41 l 1
 43 41 l 1
 43 42 l 1
 44 42 l 1
 44 43 l 1
46 43 m 1
 45 43 l 1
 45 42 l 1
 44 42 l 1
 44 41 l 1
 46 41 l 1
 46 43 l 1
49 43 m 1
 47 43 l 1
 47 41 l 1
 49 41 l 1
 49 43 l 1
55 43 m 1
 53 43 l 1
 53 41 l 1
 55 41 l 1
 55 43 l 1
58 43 m 1
 56 43 l 1
 56 41 l 1
 57 41 l 1
 57 42 l 1
 58 42 l 1
 58 43 l 1
43 35 m 1
 42 35 l 1
 42 33 l 1
 44 33 l 1
 44 34 l 1
 43 34 l 1
 43 35 l 1
46 35 m 1
 44 35 l 1
 44 34 l 1
 45 34 l 1
 45 33 l 1
 46 33 l 1
 46 35 l 1
49 35 m 1
 47 35 l 1
 47 33 l 1
 49 33 l 1
 49 35 l 1
55 39 m 1
 53 39 l 1
 53 37 l 1
 55 37 l 1
 55 39 l 1
55 35 m 1
 53 35 l 1
 53 33 l 1
 55 33 l 1
 55 35 l 1
57 35 m 1
 56 35 l 1
 56 33 l 1
 58 33 l 1
 58 34 l 1
 57 34 l 1
 57 35 l 1
60 43 m 1
 59 43 l 1
 59 42 l 1
 58 42 l 1
 58 41 l 1
 60 41 l 1
 60 43 l 1
63 43 m 1
 61 43 l 1
 61 41 l 1
 63 41 l 1
 63 43 l 1
60 35 m 1
 58 35 l 1
 58 34 l 1
 59 34 l 1
 59 33 l 1
 60 33 l 1
 60 35 l 1
63 35 m 1
 61 35 l 1
 61 33 l 1
 63 33 l 1
 63 35 l 1
23 27 m 1
 21 27 l 1
 21 25 l 1
 23 25 l 1
 23 27 l 1
26 27 m 1
 24 27 l 1
 24 25 l 1
 25 25 l 1
 25 26 l 1
 26 26 l 1
 26 27 l 1
31 31 m 1
 29 31 l 1
 29 29 l 1
 31 29 l 1
 31 31 l 1
28 27 m 1
 27 27 l 1
 27 26 l 1
 26 26 l 1
 26 25 l 1
 28 25 l 1
 28 27 l 1
31 27 m 1
 29 27 l 1
 29 25 l 1
 31 25 l 1
 31 27 l 1
36 33 m 1
 34 33 l 1
 34 31 l 1
 36 31 l 1
 36 33 l 1
41 27 m 1
 39 27 l 1
 39 25 l 1
 41 25 l 1
 41 27 l 1
49 31 m 1
 47 31 l 1
 47 29 l 1
 49 29 l 1
 49 31 l 1
44 27 m 1
 42 27 l 1
 42 25 l 1
 43 25 l 1
 43 26 l 1
 44 26 l 1
 44 27 l 1
46 27 m 1
 45 27 l 1
 45 26 l 1
 44 26 l 1
 44 25 l 1
 46 25 l 1
 46 27 l 1
49 27 m 1
 47 27 l 1
 47 25 l 1
 49 25 l 1
 49 27 l 1
55 27 m 1
 53 27 l 1
 53 25 l 1
 55 25 l 1
 55 27 l 1
58 27 m 1
 56 27 l 1
 56 25 l 1
 57 25 l 1
 57 26 l 1
 58 26 l 1
 58 27 l 1
63 31 m 1
 61 31 l 1
 61 29 l 1
 63 29 l 1
 63 31 l 1
60 27 m 1
 59 27 l 1
 59 26 l 1
 58 26 l 1
 58 25 l 1
 60 25 l 1
 60 27 l 1
63 27 m 1
 61 27 l 1
 61 25 l 1
 63 25 l 1
 63 27 l 1
EndSplineSet
EndChar

StartChar: custom_5_5_0_2_1
Encoding: 36489 36489 16521
Width: 70
Flags: H
LayerCount: 2
Fore
SplineSet
23 43 m 1
 21 43 l 1
 21 41 l 1
 23 41 l 1
 23 43 l 1
26 43 m 1
 24 43 l 1
 24 41 l 1
 25 41 l 1
 25 42 l 1
 26 42 l 1
 26 43 l 1
23 35 m 1
 21 35 l 1
 21 33 l 1
 23 33 l 1
 23 35 l 1
25 35 m 1
 24 35 l 1
 24 33 l 1
 26 33 l 1
 26 34 l 1
 25 34 l 1
 25 35 l 1
28 43 m 1
 27 43 l 1
 27 42 l 1
 26 42 l 1
 26 41 l 1
 28 41 l 1
 28 43 l 1
31 43 m 1
 29 43 l 1
 29 41 l 1
 31 41 l 1
 31 43 l 1
41 43 m 1
 39 43 l 1
 39 41 l 1
 41 41 l 1
 41 43 l 1
31 39 m 1
 29 39 l 1
 29 37 l 1
 31 37 l 1
 31 39 l 1
28 35 m 1
 26 35 l 1
 26 34 l 1
 27 34 l 1
 27 33 l 1
 28 33 l 1
 28 35 l 1
31 35 m 1
 29 35 l 1
 29 33 l 1
 31 33 l 1
 31 35 l 1
41 39 m 1
 39 39 l 1
 39 37 l 1
 41 37 l 1
 41 39 l 1
36 37 m 1
 34 37 l 1
 34 35 l 1
 36 35 l 1
 36 37 l 1
41 35 m 1
 39 35 l 1
 39 33 l 1
 41 33 l 1
 41 35 l 1
44 43 m 1
 42 43 l 1
 42 41 l 1
 43 41 l 1
 43 42 l 1
 44 42 l 1
 44 43 l 1
46 43 m 1
 45 43 l 1
 45 42 l 1
 44 42 l 1
 44 41 l 1
 46 41 l 1
 46 43 l 1
49 43 m 1
 47 43 l 1
 47 41 l 1
 49 41 l 1
 49 43 l 1
55 43 m 1
 53 43 l 1
 53 41 l 1
 55 41 l 1
 55 43 l 1
58 43 m 1
 56 43 l 1
 56 41 l 1
 57 41 l 1
 57 42 l 1
 58 42 l 1
 58 43 l 1
43 35 m 1
 42 35 l 1
 42 33 l 1
 44 33 l 1
 44 34 l 1
 43 34 l 1
 43 35 l 1
46 35 m 1
 44 35 l 1
 44 34 l 1
 45 34 l 1
 45 33 l 1
 46 33 l 1
 46 35 l 1
49 35 m 1
 47 35 l 1
 47 33 l 1
 49 33 l 1
 49 35 l 1
55 39 m 1
 53 39 l 1
 53 37 l 1
 55 37 l 1
 55 39 l 1
55 35 m 1
 53 35 l 1
 53 33 l 1
 55 33 l 1
 55 35 l 1
57 35 m 1
 56 35 l 1
 56 33 l 1
 58 33 l 1
 58 34 l 1
 57 34 l 1
 57 35 l 1
60 43 m 1
 59 43 l 1
 59 42 l 1
 58 42 l 1
 58 41 l 1
 60 41 l 1
 60 43 l 1
63 43 m 1
 61 43 l 1
 61 41 l 1
 63 41 l 1
 63 43 l 1
60 35 m 1
 58 35 l 1
 58 34 l 1
 59 34 l 1
 59 33 l 1
 60 33 l 1
 60 35 l 1
63 35 m 1
 61 35 l 1
 61 33 l 1
 63 33 l 1
 63 35 l 1
23 27 m 1
 21 27 l 1
 21 25 l 1
 23 25 l 1
 23 27 l 1
26 27 m 1
 24 27 l 1
 24 25 l 1
 25 25 l 1
 25 26 l 1
 26 26 l 1
 26 27 l 1
31 31 m 1
 29 31 l 1
 29 29 l 1
 31 29 l 1
 31 31 l 1
28 27 m 1
 27 27 l 1
 27 26 l 1
 26 26 l 1
 26 25 l 1
 28 25 l 1
 28 27 l 1
31 27 m 1
 29 27 l 1
 29 25 l 1
 31 25 l 1
 31 27 l 1
36 33 m 1
 34 33 l 1
 34 31 l 1
 36 31 l 1
 36 33 l 1
41 27 m 1
 39 27 l 1
 39 25 l 1
 41 25 l 1
 41 27 l 1
49 31 m 1
 47 31 l 1
 47 29 l 1
 49 29 l 1
 49 31 l 1
44 27 m 1
 42 27 l 1
 42 25 l 1
 43 25 l 1
 43 26 l 1
 44 26 l 1
 44 27 l 1
46 27 m 1
 45 27 l 1
 45 26 l 1
 44 26 l 1
 44 25 l 1
 46 25 l 1
 46 27 l 1
49 27 m 1
 47 27 l 1
 47 25 l 1
 49 25 l 1
 49 27 l 1
55 27 m 1
 53 27 l 1
 53 25 l 1
 55 25 l 1
 55 27 l 1
58 27 m 1
 56 27 l 1
 56 25 l 1
 57 25 l 1
 57 26 l 1
 58 26 l 1
 58 27 l 1
63 31 m 1
 61 31 l 1
 61 29 l 1
 63 29 l 1
 63 31 l 1
60 27 m 1
 59 27 l 1
 59 26 l 1
 58 26 l 1
 58 25 l 1
 60 25 l 1
 60 27 l 1
63 27 m 1
 61 27 l 1
 61 25 l 1
 63 25 l 1
 63 27 l 1
EndSplineSet
EndChar

StartChar: custom_5_5_0_2_2
Encoding: 36490 36490 16522
Width: 70
Flags: H
LayerCount: 2
Fore
SplineSet
23 43 m 1
 21 43 l 1
 21 41 l 1
 23 41 l 1
 23 43 l 1
26 43 m 1
 24 43 l 1
 24 41 l 1
 25 41 l 1
 25 42 l 1
 26 42 l 1
 26 43 l 1
23 35 m 1
 21 35 l 1
 21 33 l 1
 23 33 l 1
 23 35 l 1
25 35 m 1
 24 35 l 1
 24 33 l 1
 26 33 l 1
 26 34 l 1
 25 34 l 1
 25 35 l 1
28 43 m 1
 27 43 l 1
 27 42 l 1
 26 42 l 1
 26 41 l 1
 28 41 l 1
 28 43 l 1
31 43 m 1
 29 43 l 1
 29 41 l 1
 31 41 l 1
 31 43 l 1
41 43 m 1
 39 43 l 1
 39 41 l 1
 41 41 l 1
 41 43 l 1
31 39 m 1
 29 39 l 1
 29 37 l 1
 31 37 l 1
 31 39 l 1
28 35 m 1
 26 35 l 1
 26 34 l 1
 27 34 l 1
 27 33 l 1
 28 33 l 1
 28 35 l 1
31 35 m 1
 29 35 l 1
 29 33 l 1
 31 33 l 1
 31 35 l 1
41 39 m 1
 39 39 l 1
 39 37 l 1
 41 37 l 1
 41 39 l 1
36 37 m 1
 34 37 l 1
 34 35 l 1
 36 35 l 1
 36 37 l 1
41 35 m 1
 39 35 l 1
 39 33 l 1
 41 33 l 1
 41 35 l 1
44 43 m 1
 42 43 l 1
 42 41 l 1
 43 41 l 1
 43 42 l 1
 44 42 l 1
 44 43 l 1
46 43 m 1
 45 43 l 1
 45 42 l 1
 44 42 l 1
 44 41 l 1
 46 41 l 1
 46 43 l 1
49 43 m 1
 47 43 l 1
 47 41 l 1
 49 41 l 1
 49 43 l 1
55 43 m 1
 53 43 l 1
 53 41 l 1
 55 41 l 1
 55 43 l 1
58 43 m 1
 56 43 l 1
 56 41 l 1
 57 41 l 1
 57 42 l 1
 58 42 l 1
 58 43 l 1
43 35 m 1
 42 35 l 1
 42 33 l 1
 44 33 l 1
 44 34 l 1
 43 34 l 1
 43 35 l 1
46 35 m 1
 44 35 l 1
 44 34 l 1
 45 34 l 1
 45 33 l 1
 46 33 l 1
 46 35 l 1
49 35 m 1
 47 35 l 1
 47 33 l 1
 49 33 l 1
 49 35 l 1
55 39 m 1
 53 39 l 1
 53 37 l 1
 55 37 l 1
 55 39 l 1
55 35 m 1
 53 35 l 1
 53 33 l 1
 55 33 l 1
 55 35 l 1
57 35 m 1
 56 35 l 1
 56 33 l 1
 58 33 l 1
 58 34 l 1
 57 34 l 1
 57 35 l 1
60 43 m 1
 59 43 l 1
 59 42 l 1
 58 42 l 1
 58 41 l 1
 60 41 l 1
 60 43 l 1
63 43 m 1
 61 43 l 1
 61 41 l 1
 63 41 l 1
 63 43 l 1
60 35 m 1
 58 35 l 1
 58 34 l 1
 59 34 l 1
 59 33 l 1
 60 33 l 1
 60 35 l 1
63 35 m 1
 61 35 l 1
 61 33 l 1
 63 33 l 1
 63 35 l 1
23 27 m 1
 21 27 l 1
 21 25 l 1
 23 25 l 1
 23 27 l 1
26 27 m 1
 24 27 l 1
 24 25 l 1
 25 25 l 1
 25 26 l 1
 26 26 l 1
 26 27 l 1
31 31 m 1
 29 31 l 1
 29 29 l 1
 31 29 l 1
 31 31 l 1
28 27 m 1
 27 27 l 1
 27 26 l 1
 26 26 l 1
 26 25 l 1
 28 25 l 1
 28 27 l 1
31 27 m 1
 29 27 l 1
 29 25 l 1
 31 25 l 1
 31 27 l 1
36 33 m 1
 34 33 l 1
 34 31 l 1
 36 31 l 1
 36 33 l 1
41 27 m 1
 39 27 l 1
 39 25 l 1
 41 25 l 1
 41 27 l 1
49 31 m 1
 47 31 l 1
 47 29 l 1
 49 29 l 1
 49 31 l 1
44 27 m 1
 42 27 l 1
 42 25 l 1
 43 25 l 1
 43 26 l 1
 44 26 l 1
 44 27 l 1
46 27 m 1
 45 27 l 1
 45 26 l 1
 44 26 l 1
 44 25 l 1
 46 25 l 1
 46 27 l 1
49 27 m 1
 47 27 l 1
 47 25 l 1
 49 25 l 1
 49 27 l 1
55 27 m 1
 53 27 l 1
 53 25 l 1
 55 25 l 1
 55 27 l 1
58 27 m 1
 56 27 l 1
 56 25 l 1
 57 25 l 1
 57 26 l 1
 58 26 l 1
 58 27 l 1
63 31 m 1
 61 31 l 1
 61 29 l 1
 63 29 l 1
 63 31 l 1
60 27 m 1
 59 27 l 1
 59 26 l 1
 58 26 l 1
 58 25 l 1
 60 25 l 1
 60 27 l 1
63 27 m 1
 61 27 l 1
 61 25 l 1
 63 25 l 1
 63 27 l 1
EndSplineSet
EndChar

StartChar: custom_5_5_0_2_3
Encoding: 36491 36491 16523
Width: 70
Flags: H
LayerCount: 2
Fore
SplineSet
23 43 m 1
 21 43 l 1
 21 41 l 1
 23 41 l 1
 23 43 l 1
26 43 m 1
 24 43 l 1
 24 41 l 1
 25 41 l 1
 25 42 l 1
 26 42 l 1
 26 43 l 1
23 35 m 1
 21 35 l 1
 21 33 l 1
 23 33 l 1
 23 35 l 1
25 35 m 1
 24 35 l 1
 24 33 l 1
 26 33 l 1
 26 34 l 1
 25 34 l 1
 25 35 l 1
28 43 m 1
 27 43 l 1
 27 42 l 1
 26 42 l 1
 26 41 l 1
 28 41 l 1
 28 43 l 1
31 43 m 1
 29 43 l 1
 29 41 l 1
 31 41 l 1
 31 43 l 1
41 43 m 1
 39 43 l 1
 39 41 l 1
 41 41 l 1
 41 43 l 1
31 39 m 1
 29 39 l 1
 29 37 l 1
 31 37 l 1
 31 39 l 1
28 35 m 1
 26 35 l 1
 26 34 l 1
 27 34 l 1
 27 33 l 1
 28 33 l 1
 28 35 l 1
31 35 m 1
 29 35 l 1
 29 33 l 1
 31 33 l 1
 31 35 l 1
41 39 m 1
 39 39 l 1
 39 37 l 1
 41 37 l 1
 41 39 l 1
36 37 m 1
 34 37 l 1
 34 35 l 1
 36 35 l 1
 36 37 l 1
41 35 m 1
 39 35 l 1
 39 33 l 1
 41 33 l 1
 41 35 l 1
44 43 m 1
 42 43 l 1
 42 41 l 1
 43 41 l 1
 43 42 l 1
 44 42 l 1
 44 43 l 1
46 43 m 1
 45 43 l 1
 45 42 l 1
 44 42 l 1
 44 41 l 1
 46 41 l 1
 46 43 l 1
49 43 m 1
 47 43 l 1
 47 41 l 1
 49 41 l 1
 49 43 l 1
55 43 m 1
 53 43 l 1
 53 41 l 1
 55 41 l 1
 55 43 l 1
58 43 m 1
 56 43 l 1
 56 41 l 1
 57 41 l 1
 57 42 l 1
 58 42 l 1
 58 43 l 1
43 35 m 1
 42 35 l 1
 42 33 l 1
 44 33 l 1
 44 34 l 1
 43 34 l 1
 43 35 l 1
46 35 m 1
 44 35 l 1
 44 34 l 1
 45 34 l 1
 45 33 l 1
 46 33 l 1
 46 35 l 1
49 35 m 1
 47 35 l 1
 47 33 l 1
 49 33 l 1
 49 35 l 1
55 39 m 1
 53 39 l 1
 53 37 l 1
 55 37 l 1
 55 39 l 1
55 35 m 1
 53 35 l 1
 53 33 l 1
 55 33 l 1
 55 35 l 1
57 35 m 1
 56 35 l 1
 56 33 l 1
 58 33 l 1
 58 34 l 1
 57 34 l 1
 57 35 l 1
60 43 m 1
 59 43 l 1
 59 42 l 1
 58 42 l 1
 58 41 l 1
 60 41 l 1
 60 43 l 1
63 43 m 1
 61 43 l 1
 61 41 l 1
 63 41 l 1
 63 43 l 1
60 35 m 1
 58 35 l 1
 58 34 l 1
 59 34 l 1
 59 33 l 1
 60 33 l 1
 60 35 l 1
63 35 m 1
 61 35 l 1
 61 33 l 1
 63 33 l 1
 63 35 l 1
23 27 m 1
 21 27 l 1
 21 25 l 1
 23 25 l 1
 23 27 l 1
26 27 m 1
 24 27 l 1
 24 25 l 1
 25 25 l 1
 25 26 l 1
 26 26 l 1
 26 27 l 1
31 31 m 1
 29 31 l 1
 29 29 l 1
 31 29 l 1
 31 31 l 1
28 27 m 1
 27 27 l 1
 27 26 l 1
 26 26 l 1
 26 25 l 1
 28 25 l 1
 28 27 l 1
31 27 m 1
 29 27 l 1
 29 25 l 1
 31 25 l 1
 31 27 l 1
36 33 m 1
 34 33 l 1
 34 31 l 1
 36 31 l 1
 36 33 l 1
41 27 m 1
 39 27 l 1
 39 25 l 1
 41 25 l 1
 41 27 l 1
49 31 m 1
 47 31 l 1
 47 29 l 1
 49 29 l 1
 49 31 l 1
44 27 m 1
 42 27 l 1
 42 25 l 1
 43 25 l 1
 43 26 l 1
 44 26 l 1
 44 27 l 1
46 27 m 1
 45 27 l 1
 45 26 l 1
 44 26 l 1
 44 25 l 1
 46 25 l 1
 46 27 l 1
49 27 m 1
 47 27 l 1
 47 25 l 1
 49 25 l 1
 49 27 l 1
55 27 m 1
 53 27 l 1
 53 25 l 1
 55 25 l 1
 55 27 l 1
58 27 m 1
 56 27 l 1
 56 25 l 1
 57 25 l 1
 57 26 l 1
 58 26 l 1
 58 27 l 1
63 31 m 1
 61 31 l 1
 61 29 l 1
 63 29 l 1
 63 31 l 1
60 27 m 1
 59 27 l 1
 59 26 l 1
 58 26 l 1
 58 25 l 1
 60 25 l 1
 60 27 l 1
63 27 m 1
 61 27 l 1
 61 25 l 1
 63 25 l 1
 63 27 l 1
EndSplineSet
EndChar

StartChar: custom_5_5_0_2_4
Encoding: 36492 36492 16524
Width: 70
Flags: H
LayerCount: 2
Fore
SplineSet
23 43 m 1
 21 43 l 1
 21 41 l 1
 23 41 l 1
 23 43 l 1
26 43 m 1
 24 43 l 1
 24 41 l 1
 25 41 l 1
 25 42 l 1
 26 42 l 1
 26 43 l 1
23 35 m 1
 21 35 l 1
 21 33 l 1
 23 33 l 1
 23 35 l 1
25 35 m 1
 24 35 l 1
 24 33 l 1
 26 33 l 1
 26 34 l 1
 25 34 l 1
 25 35 l 1
28 43 m 1
 27 43 l 1
 27 42 l 1
 26 42 l 1
 26 41 l 1
 28 41 l 1
 28 43 l 1
31 43 m 1
 29 43 l 1
 29 41 l 1
 31 41 l 1
 31 43 l 1
41 43 m 1
 39 43 l 1
 39 41 l 1
 41 41 l 1
 41 43 l 1
31 39 m 1
 29 39 l 1
 29 37 l 1
 31 37 l 1
 31 39 l 1
28 35 m 1
 26 35 l 1
 26 34 l 1
 27 34 l 1
 27 33 l 1
 28 33 l 1
 28 35 l 1
31 35 m 1
 29 35 l 1
 29 33 l 1
 31 33 l 1
 31 35 l 1
41 39 m 1
 39 39 l 1
 39 37 l 1
 41 37 l 1
 41 39 l 1
36 37 m 1
 34 37 l 1
 34 35 l 1
 36 35 l 1
 36 37 l 1
41 35 m 1
 39 35 l 1
 39 33 l 1
 41 33 l 1
 41 35 l 1
44 43 m 1
 42 43 l 1
 42 41 l 1
 43 41 l 1
 43 42 l 1
 44 42 l 1
 44 43 l 1
46 43 m 1
 45 43 l 1
 45 42 l 1
 44 42 l 1
 44 41 l 1
 46 41 l 1
 46 43 l 1
49 43 m 1
 47 43 l 1
 47 41 l 1
 49 41 l 1
 49 43 l 1
55 43 m 1
 53 43 l 1
 53 41 l 1
 55 41 l 1
 55 43 l 1
58 43 m 1
 56 43 l 1
 56 41 l 1
 57 41 l 1
 57 42 l 1
 58 42 l 1
 58 43 l 1
43 35 m 1
 42 35 l 1
 42 33 l 1
 44 33 l 1
 44 34 l 1
 43 34 l 1
 43 35 l 1
46 35 m 1
 44 35 l 1
 44 34 l 1
 45 34 l 1
 45 33 l 1
 46 33 l 1
 46 35 l 1
49 35 m 1
 47 35 l 1
 47 33 l 1
 49 33 l 1
 49 35 l 1
55 39 m 1
 53 39 l 1
 53 37 l 1
 55 37 l 1
 55 39 l 1
55 35 m 1
 53 35 l 1
 53 33 l 1
 55 33 l 1
 55 35 l 1
57 35 m 1
 56 35 l 1
 56 33 l 1
 58 33 l 1
 58 34 l 1
 57 34 l 1
 57 35 l 1
60 43 m 1
 59 43 l 1
 59 42 l 1
 58 42 l 1
 58 41 l 1
 60 41 l 1
 60 43 l 1
63 43 m 1
 61 43 l 1
 61 41 l 1
 63 41 l 1
 63 43 l 1
60 35 m 1
 58 35 l 1
 58 34 l 1
 59 34 l 1
 59 33 l 1
 60 33 l 1
 60 35 l 1
63 35 m 1
 61 35 l 1
 61 33 l 1
 63 33 l 1
 63 35 l 1
23 27 m 1
 21 27 l 1
 21 25 l 1
 23 25 l 1
 23 27 l 1
26 27 m 1
 24 27 l 1
 24 25 l 1
 25 25 l 1
 25 26 l 1
 26 26 l 1
 26 27 l 1
31 31 m 1
 29 31 l 1
 29 29 l 1
 31 29 l 1
 31 31 l 1
28 27 m 1
 27 27 l 1
 27 26 l 1
 26 26 l 1
 26 25 l 1
 28 25 l 1
 28 27 l 1
31 27 m 1
 29 27 l 1
 29 25 l 1
 31 25 l 1
 31 27 l 1
36 33 m 1
 34 33 l 1
 34 31 l 1
 36 31 l 1
 36 33 l 1
41 27 m 1
 39 27 l 1
 39 25 l 1
 41 25 l 1
 41 27 l 1
49 31 m 1
 47 31 l 1
 47 29 l 1
 49 29 l 1
 49 31 l 1
44 27 m 1
 42 27 l 1
 42 25 l 1
 43 25 l 1
 43 26 l 1
 44 26 l 1
 44 27 l 1
46 27 m 1
 45 27 l 1
 45 26 l 1
 44 26 l 1
 44 25 l 1
 46 25 l 1
 46 27 l 1
49 27 m 1
 47 27 l 1
 47 25 l 1
 49 25 l 1
 49 27 l 1
55 27 m 1
 53 27 l 1
 53 25 l 1
 55 25 l 1
 55 27 l 1
58 27 m 1
 56 27 l 1
 56 25 l 1
 57 25 l 1
 57 26 l 1
 58 26 l 1
 58 27 l 1
63 31 m 1
 61 31 l 1
 61 29 l 1
 63 29 l 1
 63 31 l 1
60 27 m 1
 59 27 l 1
 59 26 l 1
 58 26 l 1
 58 25 l 1
 60 25 l 1
 60 27 l 1
63 27 m 1
 61 27 l 1
 61 25 l 1
 63 25 l 1
 63 27 l 1
EndSplineSet
EndChar

StartChar: custom_5_5_0_2_5
Encoding: 36493 36493 16525
Width: 70
Flags: H
LayerCount: 2
Fore
SplineSet
23 43 m 1
 21 43 l 1
 21 41 l 1
 23 41 l 1
 23 43 l 1
26 43 m 1
 24 43 l 1
 24 41 l 1
 25 41 l 1
 25 42 l 1
 26 42 l 1
 26 43 l 1
23 35 m 1
 21 35 l 1
 21 33 l 1
 23 33 l 1
 23 35 l 1
25 35 m 1
 24 35 l 1
 24 33 l 1
 26 33 l 1
 26 34 l 1
 25 34 l 1
 25 35 l 1
28 43 m 1
 27 43 l 1
 27 42 l 1
 26 42 l 1
 26 41 l 1
 28 41 l 1
 28 43 l 1
31 43 m 1
 29 43 l 1
 29 41 l 1
 31 41 l 1
 31 43 l 1
41 43 m 1
 39 43 l 1
 39 41 l 1
 41 41 l 1
 41 43 l 1
31 39 m 1
 29 39 l 1
 29 37 l 1
 31 37 l 1
 31 39 l 1
28 35 m 1
 26 35 l 1
 26 34 l 1
 27 34 l 1
 27 33 l 1
 28 33 l 1
 28 35 l 1
31 35 m 1
 29 35 l 1
 29 33 l 1
 31 33 l 1
 31 35 l 1
41 39 m 1
 39 39 l 1
 39 37 l 1
 41 37 l 1
 41 39 l 1
36 37 m 1
 34 37 l 1
 34 35 l 1
 36 35 l 1
 36 37 l 1
41 35 m 1
 39 35 l 1
 39 33 l 1
 41 33 l 1
 41 35 l 1
44 43 m 1
 42 43 l 1
 42 41 l 1
 43 41 l 1
 43 42 l 1
 44 42 l 1
 44 43 l 1
46 43 m 1
 45 43 l 1
 45 42 l 1
 44 42 l 1
 44 41 l 1
 46 41 l 1
 46 43 l 1
49 43 m 1
 47 43 l 1
 47 41 l 1
 49 41 l 1
 49 43 l 1
55 43 m 1
 53 43 l 1
 53 41 l 1
 55 41 l 1
 55 43 l 1
58 43 m 1
 56 43 l 1
 56 41 l 1
 57 41 l 1
 57 42 l 1
 58 42 l 1
 58 43 l 1
43 35 m 1
 42 35 l 1
 42 33 l 1
 44 33 l 1
 44 34 l 1
 43 34 l 1
 43 35 l 1
46 35 m 1
 44 35 l 1
 44 34 l 1
 45 34 l 1
 45 33 l 1
 46 33 l 1
 46 35 l 1
49 35 m 1
 47 35 l 1
 47 33 l 1
 49 33 l 1
 49 35 l 1
55 39 m 1
 53 39 l 1
 53 37 l 1
 55 37 l 1
 55 39 l 1
55 35 m 1
 53 35 l 1
 53 33 l 1
 55 33 l 1
 55 35 l 1
57 35 m 1
 56 35 l 1
 56 33 l 1
 58 33 l 1
 58 34 l 1
 57 34 l 1
 57 35 l 1
60 43 m 1
 59 43 l 1
 59 42 l 1
 58 42 l 1
 58 41 l 1
 60 41 l 1
 60 43 l 1
63 43 m 1
 61 43 l 1
 61 41 l 1
 63 41 l 1
 63 43 l 1
60 35 m 1
 58 35 l 1
 58 34 l 1
 59 34 l 1
 59 33 l 1
 60 33 l 1
 60 35 l 1
63 35 m 1
 61 35 l 1
 61 33 l 1
 63 33 l 1
 63 35 l 1
23 27 m 1
 21 27 l 1
 21 25 l 1
 23 25 l 1
 23 27 l 1
26 27 m 1
 24 27 l 1
 24 25 l 1
 25 25 l 1
 25 26 l 1
 26 26 l 1
 26 27 l 1
31 31 m 1
 29 31 l 1
 29 29 l 1
 31 29 l 1
 31 31 l 1
28 27 m 1
 27 27 l 1
 27 26 l 1
 26 26 l 1
 26 25 l 1
 28 25 l 1
 28 27 l 1
31 27 m 1
 29 27 l 1
 29 25 l 1
 31 25 l 1
 31 27 l 1
36 33 m 1
 34 33 l 1
 34 31 l 1
 36 31 l 1
 36 33 l 1
41 27 m 1
 39 27 l 1
 39 25 l 1
 41 25 l 1
 41 27 l 1
49 31 m 1
 47 31 l 1
 47 29 l 1
 49 29 l 1
 49 31 l 1
44 27 m 1
 42 27 l 1
 42 25 l 1
 43 25 l 1
 43 26 l 1
 44 26 l 1
 44 27 l 1
46 27 m 1
 45 27 l 1
 45 26 l 1
 44 26 l 1
 44 25 l 1
 46 25 l 1
 46 27 l 1
49 27 m 1
 47 27 l 1
 47 25 l 1
 49 25 l 1
 49 27 l 1
55 27 m 1
 53 27 l 1
 53 25 l 1
 55 25 l 1
 55 27 l 1
58 27 m 1
 56 27 l 1
 56 25 l 1
 57 25 l 1
 57 26 l 1
 58 26 l 1
 58 27 l 1
63 31 m 1
 61 31 l 1
 61 29 l 1
 63 29 l 1
 63 31 l 1
60 27 m 1
 59 27 l 1
 59 26 l 1
 58 26 l 1
 58 25 l 1
 60 25 l 1
 60 27 l 1
63 27 m 1
 61 27 l 1
 61 25 l 1
 63 25 l 1
 63 27 l 1
EndSplineSet
EndChar

StartChar: custom_5_5_0_2_6
Encoding: 36494 36494 16526
Width: 70
Flags: H
LayerCount: 2
Fore
SplineSet
23 43 m 1
 21 43 l 1
 21 41 l 1
 23 41 l 1
 23 43 l 1
26 43 m 1
 24 43 l 1
 24 41 l 1
 25 41 l 1
 25 42 l 1
 26 42 l 1
 26 43 l 1
23 35 m 1
 21 35 l 1
 21 33 l 1
 23 33 l 1
 23 35 l 1
25 35 m 1
 24 35 l 1
 24 33 l 1
 26 33 l 1
 26 34 l 1
 25 34 l 1
 25 35 l 1
28 43 m 1
 27 43 l 1
 27 42 l 1
 26 42 l 1
 26 41 l 1
 28 41 l 1
 28 43 l 1
31 43 m 1
 29 43 l 1
 29 41 l 1
 31 41 l 1
 31 43 l 1
41 43 m 1
 39 43 l 1
 39 41 l 1
 41 41 l 1
 41 43 l 1
31 39 m 1
 29 39 l 1
 29 37 l 1
 31 37 l 1
 31 39 l 1
28 35 m 1
 26 35 l 1
 26 34 l 1
 27 34 l 1
 27 33 l 1
 28 33 l 1
 28 35 l 1
31 35 m 1
 29 35 l 1
 29 33 l 1
 31 33 l 1
 31 35 l 1
41 39 m 1
 39 39 l 1
 39 37 l 1
 41 37 l 1
 41 39 l 1
36 37 m 1
 34 37 l 1
 34 35 l 1
 36 35 l 1
 36 37 l 1
41 35 m 1
 39 35 l 1
 39 33 l 1
 41 33 l 1
 41 35 l 1
44 43 m 1
 42 43 l 1
 42 41 l 1
 43 41 l 1
 43 42 l 1
 44 42 l 1
 44 43 l 1
46 43 m 1
 45 43 l 1
 45 42 l 1
 44 42 l 1
 44 41 l 1
 46 41 l 1
 46 43 l 1
49 43 m 1
 47 43 l 1
 47 41 l 1
 49 41 l 1
 49 43 l 1
55 43 m 1
 53 43 l 1
 53 41 l 1
 55 41 l 1
 55 43 l 1
58 43 m 1
 56 43 l 1
 56 41 l 1
 57 41 l 1
 57 42 l 1
 58 42 l 1
 58 43 l 1
43 35 m 1
 42 35 l 1
 42 33 l 1
 44 33 l 1
 44 34 l 1
 43 34 l 1
 43 35 l 1
46 35 m 1
 44 35 l 1
 44 34 l 1
 45 34 l 1
 45 33 l 1
 46 33 l 1
 46 35 l 1
49 35 m 1
 47 35 l 1
 47 33 l 1
 49 33 l 1
 49 35 l 1
55 39 m 1
 53 39 l 1
 53 37 l 1
 55 37 l 1
 55 39 l 1
55 35 m 1
 53 35 l 1
 53 33 l 1
 55 33 l 1
 55 35 l 1
57 35 m 1
 56 35 l 1
 56 33 l 1
 58 33 l 1
 58 34 l 1
 57 34 l 1
 57 35 l 1
60 43 m 1
 59 43 l 1
 59 42 l 1
 58 42 l 1
 58 41 l 1
 60 41 l 1
 60 43 l 1
63 43 m 1
 61 43 l 1
 61 41 l 1
 63 41 l 1
 63 43 l 1
60 35 m 1
 58 35 l 1
 58 34 l 1
 59 34 l 1
 59 33 l 1
 60 33 l 1
 60 35 l 1
63 35 m 1
 61 35 l 1
 61 33 l 1
 63 33 l 1
 63 35 l 1
23 27 m 1
 21 27 l 1
 21 25 l 1
 23 25 l 1
 23 27 l 1
26 27 m 1
 24 27 l 1
 24 25 l 1
 25 25 l 1
 25 26 l 1
 26 26 l 1
 26 27 l 1
31 31 m 1
 29 31 l 1
 29 29 l 1
 31 29 l 1
 31 31 l 1
28 27 m 1
 27 27 l 1
 27 26 l 1
 26 26 l 1
 26 25 l 1
 28 25 l 1
 28 27 l 1
31 27 m 1
 29 27 l 1
 29 25 l 1
 31 25 l 1
 31 27 l 1
36 33 m 1
 34 33 l 1
 34 31 l 1
 36 31 l 1
 36 33 l 1
41 27 m 1
 39 27 l 1
 39 25 l 1
 41 25 l 1
 41 27 l 1
49 31 m 1
 47 31 l 1
 47 29 l 1
 49 29 l 1
 49 31 l 1
44 27 m 1
 42 27 l 1
 42 25 l 1
 43 25 l 1
 43 26 l 1
 44 26 l 1
 44 27 l 1
46 27 m 1
 45 27 l 1
 45 26 l 1
 44 26 l 1
 44 25 l 1
 46 25 l 1
 46 27 l 1
49 27 m 1
 47 27 l 1
 47 25 l 1
 49 25 l 1
 49 27 l 1
55 27 m 1
 53 27 l 1
 53 25 l 1
 55 25 l 1
 55 27 l 1
58 27 m 1
 56 27 l 1
 56 25 l 1
 57 25 l 1
 57 26 l 1
 58 26 l 1
 58 27 l 1
63 31 m 1
 61 31 l 1
 61 29 l 1
 63 29 l 1
 63 31 l 1
60 27 m 1
 59 27 l 1
 59 26 l 1
 58 26 l 1
 58 25 l 1
 60 25 l 1
 60 27 l 1
63 27 m 1
 61 27 l 1
 61 25 l 1
 63 25 l 1
 63 27 l 1
EndSplineSet
EndChar

StartChar: custom_5_5_0_2_7
Encoding: 36495 36495 16527
Width: 70
Flags: H
LayerCount: 2
Fore
SplineSet
23 43 m 1
 21 43 l 1
 21 41 l 1
 23 41 l 1
 23 43 l 1
26 43 m 1
 24 43 l 1
 24 41 l 1
 25 41 l 1
 25 42 l 1
 26 42 l 1
 26 43 l 1
23 35 m 1
 21 35 l 1
 21 33 l 1
 23 33 l 1
 23 35 l 1
25 35 m 1
 24 35 l 1
 24 33 l 1
 26 33 l 1
 26 34 l 1
 25 34 l 1
 25 35 l 1
28 43 m 1
 27 43 l 1
 27 42 l 1
 26 42 l 1
 26 41 l 1
 28 41 l 1
 28 43 l 1
31 43 m 1
 29 43 l 1
 29 41 l 1
 31 41 l 1
 31 43 l 1
41 43 m 1
 39 43 l 1
 39 41 l 1
 41 41 l 1
 41 43 l 1
31 39 m 1
 29 39 l 1
 29 37 l 1
 31 37 l 1
 31 39 l 1
28 35 m 1
 26 35 l 1
 26 34 l 1
 27 34 l 1
 27 33 l 1
 28 33 l 1
 28 35 l 1
31 35 m 1
 29 35 l 1
 29 33 l 1
 31 33 l 1
 31 35 l 1
41 39 m 1
 39 39 l 1
 39 37 l 1
 41 37 l 1
 41 39 l 1
36 37 m 1
 34 37 l 1
 34 35 l 1
 36 35 l 1
 36 37 l 1
41 35 m 1
 39 35 l 1
 39 33 l 1
 41 33 l 1
 41 35 l 1
44 43 m 1
 42 43 l 1
 42 41 l 1
 43 41 l 1
 43 42 l 1
 44 42 l 1
 44 43 l 1
46 43 m 1
 45 43 l 1
 45 42 l 1
 44 42 l 1
 44 41 l 1
 46 41 l 1
 46 43 l 1
49 43 m 1
 47 43 l 1
 47 41 l 1
 49 41 l 1
 49 43 l 1
55 43 m 1
 53 43 l 1
 53 41 l 1
 55 41 l 1
 55 43 l 1
58 43 m 1
 56 43 l 1
 56 41 l 1
 57 41 l 1
 57 42 l 1
 58 42 l 1
 58 43 l 1
43 35 m 1
 42 35 l 1
 42 33 l 1
 44 33 l 1
 44 34 l 1
 43 34 l 1
 43 35 l 1
46 35 m 1
 44 35 l 1
 44 34 l 1
 45 34 l 1
 45 33 l 1
 46 33 l 1
 46 35 l 1
49 35 m 1
 47 35 l 1
 47 33 l 1
 49 33 l 1
 49 35 l 1
55 39 m 1
 53 39 l 1
 53 37 l 1
 55 37 l 1
 55 39 l 1
55 35 m 1
 53 35 l 1
 53 33 l 1
 55 33 l 1
 55 35 l 1
57 35 m 1
 56 35 l 1
 56 33 l 1
 58 33 l 1
 58 34 l 1
 57 34 l 1
 57 35 l 1
60 43 m 1
 59 43 l 1
 59 42 l 1
 58 42 l 1
 58 41 l 1
 60 41 l 1
 60 43 l 1
63 43 m 1
 61 43 l 1
 61 41 l 1
 63 41 l 1
 63 43 l 1
60 35 m 1
 58 35 l 1
 58 34 l 1
 59 34 l 1
 59 33 l 1
 60 33 l 1
 60 35 l 1
63 35 m 1
 61 35 l 1
 61 33 l 1
 63 33 l 1
 63 35 l 1
23 27 m 1
 21 27 l 1
 21 25 l 1
 23 25 l 1
 23 27 l 1
26 27 m 1
 24 27 l 1
 24 25 l 1
 25 25 l 1
 25 26 l 1
 26 26 l 1
 26 27 l 1
31 31 m 1
 29 31 l 1
 29 29 l 1
 31 29 l 1
 31 31 l 1
28 27 m 1
 27 27 l 1
 27 26 l 1
 26 26 l 1
 26 25 l 1
 28 25 l 1
 28 27 l 1
31 27 m 1
 29 27 l 1
 29 25 l 1
 31 25 l 1
 31 27 l 1
36 33 m 1
 34 33 l 1
 34 31 l 1
 36 31 l 1
 36 33 l 1
41 27 m 1
 39 27 l 1
 39 25 l 1
 41 25 l 1
 41 27 l 1
49 31 m 1
 47 31 l 1
 47 29 l 1
 49 29 l 1
 49 31 l 1
44 27 m 1
 42 27 l 1
 42 25 l 1
 43 25 l 1
 43 26 l 1
 44 26 l 1
 44 27 l 1
46 27 m 1
 45 27 l 1
 45 26 l 1
 44 26 l 1
 44 25 l 1
 46 25 l 1
 46 27 l 1
49 27 m 1
 47 27 l 1
 47 25 l 1
 49 25 l 1
 49 27 l 1
55 27 m 1
 53 27 l 1
 53 25 l 1
 55 25 l 1
 55 27 l 1
58 27 m 1
 56 27 l 1
 56 25 l 1
 57 25 l 1
 57 26 l 1
 58 26 l 1
 58 27 l 1
63 31 m 1
 61 31 l 1
 61 29 l 1
 63 29 l 1
 63 31 l 1
60 27 m 1
 59 27 l 1
 59 26 l 1
 58 26 l 1
 58 25 l 1
 60 25 l 1
 60 27 l 1
63 27 m 1
 61 27 l 1
 61 25 l 1
 63 25 l 1
 63 27 l 1
EndSplineSet
EndChar

StartChar: custom_5_5_0_2_8
Encoding: 36496 36496 16528
Width: 70
Flags: H
LayerCount: 2
Fore
SplineSet
23 43 m 1
 21 43 l 1
 21 41 l 1
 23 41 l 1
 23 43 l 1
26 43 m 1
 24 43 l 1
 24 41 l 1
 25 41 l 1
 25 42 l 1
 26 42 l 1
 26 43 l 1
23 35 m 1
 21 35 l 1
 21 33 l 1
 23 33 l 1
 23 35 l 1
25 35 m 1
 24 35 l 1
 24 33 l 1
 26 33 l 1
 26 34 l 1
 25 34 l 1
 25 35 l 1
28 43 m 1
 27 43 l 1
 27 42 l 1
 26 42 l 1
 26 41 l 1
 28 41 l 1
 28 43 l 1
31 43 m 1
 29 43 l 1
 29 41 l 1
 31 41 l 1
 31 43 l 1
41 43 m 1
 39 43 l 1
 39 41 l 1
 41 41 l 1
 41 43 l 1
31 39 m 1
 29 39 l 1
 29 37 l 1
 31 37 l 1
 31 39 l 1
28 35 m 1
 26 35 l 1
 26 34 l 1
 27 34 l 1
 27 33 l 1
 28 33 l 1
 28 35 l 1
31 35 m 1
 29 35 l 1
 29 33 l 1
 31 33 l 1
 31 35 l 1
41 39 m 1
 39 39 l 1
 39 37 l 1
 41 37 l 1
 41 39 l 1
36 37 m 1
 34 37 l 1
 34 35 l 1
 36 35 l 1
 36 37 l 1
41 35 m 1
 39 35 l 1
 39 33 l 1
 41 33 l 1
 41 35 l 1
44 43 m 1
 42 43 l 1
 42 41 l 1
 43 41 l 1
 43 42 l 1
 44 42 l 1
 44 43 l 1
46 43 m 1
 45 43 l 1
 45 42 l 1
 44 42 l 1
 44 41 l 1
 46 41 l 1
 46 43 l 1
49 43 m 1
 47 43 l 1
 47 41 l 1
 49 41 l 1
 49 43 l 1
55 43 m 1
 53 43 l 1
 53 41 l 1
 55 41 l 1
 55 43 l 1
58 43 m 1
 56 43 l 1
 56 41 l 1
 57 41 l 1
 57 42 l 1
 58 42 l 1
 58 43 l 1
43 35 m 1
 42 35 l 1
 42 33 l 1
 44 33 l 1
 44 34 l 1
 43 34 l 1
 43 35 l 1
46 35 m 1
 44 35 l 1
 44 34 l 1
 45 34 l 1
 45 33 l 1
 46 33 l 1
 46 35 l 1
49 35 m 1
 47 35 l 1
 47 33 l 1
 49 33 l 1
 49 35 l 1
55 39 m 1
 53 39 l 1
 53 37 l 1
 55 37 l 1
 55 39 l 1
55 35 m 1
 53 35 l 1
 53 33 l 1
 55 33 l 1
 55 35 l 1
57 35 m 1
 56 35 l 1
 56 33 l 1
 58 33 l 1
 58 34 l 1
 57 34 l 1
 57 35 l 1
60 43 m 1
 59 43 l 1
 59 42 l 1
 58 42 l 1
 58 41 l 1
 60 41 l 1
 60 43 l 1
63 43 m 1
 61 43 l 1
 61 41 l 1
 63 41 l 1
 63 43 l 1
60 35 m 1
 58 35 l 1
 58 34 l 1
 59 34 l 1
 59 33 l 1
 60 33 l 1
 60 35 l 1
63 35 m 1
 61 35 l 1
 61 33 l 1
 63 33 l 1
 63 35 l 1
23 27 m 1
 21 27 l 1
 21 25 l 1
 23 25 l 1
 23 27 l 1
26 27 m 1
 24 27 l 1
 24 25 l 1
 25 25 l 1
 25 26 l 1
 26 26 l 1
 26 27 l 1
31 31 m 1
 29 31 l 1
 29 29 l 1
 31 29 l 1
 31 31 l 1
28 27 m 1
 27 27 l 1
 27 26 l 1
 26 26 l 1
 26 25 l 1
 28 25 l 1
 28 27 l 1
31 27 m 1
 29 27 l 1
 29 25 l 1
 31 25 l 1
 31 27 l 1
36 33 m 1
 34 33 l 1
 34 31 l 1
 36 31 l 1
 36 33 l 1
41 27 m 1
 39 27 l 1
 39 25 l 1
 41 25 l 1
 41 27 l 1
49 31 m 1
 47 31 l 1
 47 29 l 1
 49 29 l 1
 49 31 l 1
44 27 m 1
 42 27 l 1
 42 25 l 1
 43 25 l 1
 43 26 l 1
 44 26 l 1
 44 27 l 1
46 27 m 1
 45 27 l 1
 45 26 l 1
 44 26 l 1
 44 25 l 1
 46 25 l 1
 46 27 l 1
49 27 m 1
 47 27 l 1
 47 25 l 1
 49 25 l 1
 49 27 l 1
55 27 m 1
 53 27 l 1
 53 25 l 1
 55 25 l 1
 55 27 l 1
58 27 m 1
 56 27 l 1
 56 25 l 1
 57 25 l 1
 57 26 l 1
 58 26 l 1
 58 27 l 1
63 31 m 1
 61 31 l 1
 61 29 l 1
 63 29 l 1
 63 31 l 1
60 27 m 1
 59 27 l 1
 59 26 l 1
 58 26 l 1
 58 25 l 1
 60 25 l 1
 60 27 l 1
63 27 m 1
 61 27 l 1
 61 25 l 1
 63 25 l 1
 63 27 l 1
EndSplineSet
EndChar

StartChar: custom_5_5_0_2_9
Encoding: 36497 36497 16529
Width: 70
Flags: H
LayerCount: 2
Fore
SplineSet
23 43 m 1
 21 43 l 1
 21 41 l 1
 23 41 l 1
 23 43 l 1
26 43 m 1
 24 43 l 1
 24 41 l 1
 25 41 l 1
 25 42 l 1
 26 42 l 1
 26 43 l 1
23 35 m 1
 21 35 l 1
 21 33 l 1
 23 33 l 1
 23 35 l 1
25 35 m 1
 24 35 l 1
 24 33 l 1
 26 33 l 1
 26 34 l 1
 25 34 l 1
 25 35 l 1
28 43 m 1
 27 43 l 1
 27 42 l 1
 26 42 l 1
 26 41 l 1
 28 41 l 1
 28 43 l 1
31 43 m 1
 29 43 l 1
 29 41 l 1
 31 41 l 1
 31 43 l 1
41 43 m 1
 39 43 l 1
 39 41 l 1
 41 41 l 1
 41 43 l 1
31 39 m 1
 29 39 l 1
 29 37 l 1
 31 37 l 1
 31 39 l 1
28 35 m 1
 26 35 l 1
 26 34 l 1
 27 34 l 1
 27 33 l 1
 28 33 l 1
 28 35 l 1
31 35 m 1
 29 35 l 1
 29 33 l 1
 31 33 l 1
 31 35 l 1
41 39 m 1
 39 39 l 1
 39 37 l 1
 41 37 l 1
 41 39 l 1
36 37 m 1
 34 37 l 1
 34 35 l 1
 36 35 l 1
 36 37 l 1
41 35 m 1
 39 35 l 1
 39 33 l 1
 41 33 l 1
 41 35 l 1
44 43 m 1
 42 43 l 1
 42 41 l 1
 43 41 l 1
 43 42 l 1
 44 42 l 1
 44 43 l 1
46 43 m 1
 45 43 l 1
 45 42 l 1
 44 42 l 1
 44 41 l 1
 46 41 l 1
 46 43 l 1
49 43 m 1
 47 43 l 1
 47 41 l 1
 49 41 l 1
 49 43 l 1
55 43 m 1
 53 43 l 1
 53 41 l 1
 55 41 l 1
 55 43 l 1
58 43 m 1
 56 43 l 1
 56 41 l 1
 57 41 l 1
 57 42 l 1
 58 42 l 1
 58 43 l 1
43 35 m 1
 42 35 l 1
 42 33 l 1
 44 33 l 1
 44 34 l 1
 43 34 l 1
 43 35 l 1
46 35 m 1
 44 35 l 1
 44 34 l 1
 45 34 l 1
 45 33 l 1
 46 33 l 1
 46 35 l 1
49 35 m 1
 47 35 l 1
 47 33 l 1
 49 33 l 1
 49 35 l 1
55 39 m 1
 53 39 l 1
 53 37 l 1
 55 37 l 1
 55 39 l 1
55 35 m 1
 53 35 l 1
 53 33 l 1
 55 33 l 1
 55 35 l 1
57 35 m 1
 56 35 l 1
 56 33 l 1
 58 33 l 1
 58 34 l 1
 57 34 l 1
 57 35 l 1
60 43 m 1
 59 43 l 1
 59 42 l 1
 58 42 l 1
 58 41 l 1
 60 41 l 1
 60 43 l 1
63 43 m 1
 61 43 l 1
 61 41 l 1
 63 41 l 1
 63 43 l 1
60 35 m 1
 58 35 l 1
 58 34 l 1
 59 34 l 1
 59 33 l 1
 60 33 l 1
 60 35 l 1
63 35 m 1
 61 35 l 1
 61 33 l 1
 63 33 l 1
 63 35 l 1
23 27 m 1
 21 27 l 1
 21 25 l 1
 23 25 l 1
 23 27 l 1
26 27 m 1
 24 27 l 1
 24 25 l 1
 25 25 l 1
 25 26 l 1
 26 26 l 1
 26 27 l 1
31 31 m 1
 29 31 l 1
 29 29 l 1
 31 29 l 1
 31 31 l 1
28 27 m 1
 27 27 l 1
 27 26 l 1
 26 26 l 1
 26 25 l 1
 28 25 l 1
 28 27 l 1
31 27 m 1
 29 27 l 1
 29 25 l 1
 31 25 l 1
 31 27 l 1
36 33 m 1
 34 33 l 1
 34 31 l 1
 36 31 l 1
 36 33 l 1
41 27 m 1
 39 27 l 1
 39 25 l 1
 41 25 l 1
 41 27 l 1
49 31 m 1
 47 31 l 1
 47 29 l 1
 49 29 l 1
 49 31 l 1
44 27 m 1
 42 27 l 1
 42 25 l 1
 43 25 l 1
 43 26 l 1
 44 26 l 1
 44 27 l 1
46 27 m 1
 45 27 l 1
 45 26 l 1
 44 26 l 1
 44 25 l 1
 46 25 l 1
 46 27 l 1
49 27 m 1
 47 27 l 1
 47 25 l 1
 49 25 l 1
 49 27 l 1
55 27 m 1
 53 27 l 1
 53 25 l 1
 55 25 l 1
 55 27 l 1
58 27 m 1
 56 27 l 1
 56 25 l 1
 57 25 l 1
 57 26 l 1
 58 26 l 1
 58 27 l 1
63 31 m 1
 61 31 l 1
 61 29 l 1
 63 29 l 1
 63 31 l 1
60 27 m 1
 59 27 l 1
 59 26 l 1
 58 26 l 1
 58 25 l 1
 60 25 l 1
 60 27 l 1
63 27 m 1
 61 27 l 1
 61 25 l 1
 63 25 l 1
 63 27 l 1
EndSplineSet
EndChar

StartChar: custom_5_5_0_3_0
Encoding: 36498 36498 16530
Width: 70
Flags: H
LayerCount: 2
Fore
SplineSet
23 43 m 1
 21 43 l 1
 21 41 l 1
 23 41 l 1
 23 43 l 1
26 43 m 1
 24 43 l 1
 24 41 l 1
 25 41 l 1
 25 42 l 1
 26 42 l 1
 26 43 l 1
23 35 m 1
 21 35 l 1
 21 33 l 1
 23 33 l 1
 23 35 l 1
25 35 m 1
 24 35 l 1
 24 33 l 1
 26 33 l 1
 26 34 l 1
 25 34 l 1
 25 35 l 1
28 43 m 1
 27 43 l 1
 27 42 l 1
 26 42 l 1
 26 41 l 1
 28 41 l 1
 28 43 l 1
31 43 m 1
 29 43 l 1
 29 41 l 1
 31 41 l 1
 31 43 l 1
41 43 m 1
 39 43 l 1
 39 41 l 1
 41 41 l 1
 41 43 l 1
31 39 m 1
 29 39 l 1
 29 37 l 1
 31 37 l 1
 31 39 l 1
28 35 m 1
 26 35 l 1
 26 34 l 1
 27 34 l 1
 27 33 l 1
 28 33 l 1
 28 35 l 1
31 35 m 1
 29 35 l 1
 29 33 l 1
 31 33 l 1
 31 35 l 1
41 39 m 1
 39 39 l 1
 39 37 l 1
 41 37 l 1
 41 39 l 1
36 37 m 1
 34 37 l 1
 34 35 l 1
 36 35 l 1
 36 37 l 1
41 35 m 1
 39 35 l 1
 39 33 l 1
 41 33 l 1
 41 35 l 1
44 43 m 1
 42 43 l 1
 42 41 l 1
 43 41 l 1
 43 42 l 1
 44 42 l 1
 44 43 l 1
46 43 m 1
 45 43 l 1
 45 42 l 1
 44 42 l 1
 44 41 l 1
 46 41 l 1
 46 43 l 1
49 43 m 1
 47 43 l 1
 47 41 l 1
 49 41 l 1
 49 43 l 1
55 43 m 1
 53 43 l 1
 53 41 l 1
 55 41 l 1
 55 43 l 1
58 43 m 1
 56 43 l 1
 56 41 l 1
 57 41 l 1
 57 42 l 1
 58 42 l 1
 58 43 l 1
43 35 m 1
 42 35 l 1
 42 33 l 1
 44 33 l 1
 44 34 l 1
 43 34 l 1
 43 35 l 1
46 35 m 1
 44 35 l 1
 44 34 l 1
 45 34 l 1
 45 33 l 1
 46 33 l 1
 46 35 l 1
49 35 m 1
 47 35 l 1
 47 33 l 1
 49 33 l 1
 49 35 l 1
55 39 m 1
 53 39 l 1
 53 37 l 1
 55 37 l 1
 55 39 l 1
55 35 m 1
 53 35 l 1
 53 33 l 1
 55 33 l 1
 55 35 l 1
57 35 m 1
 56 35 l 1
 56 33 l 1
 58 33 l 1
 58 34 l 1
 57 34 l 1
 57 35 l 1
60 43 m 1
 59 43 l 1
 59 42 l 1
 58 42 l 1
 58 41 l 1
 60 41 l 1
 60 43 l 1
63 43 m 1
 61 43 l 1
 61 41 l 1
 63 41 l 1
 63 43 l 1
60 35 m 1
 58 35 l 1
 58 34 l 1
 59 34 l 1
 59 33 l 1
 60 33 l 1
 60 35 l 1
63 35 m 1
 61 35 l 1
 61 33 l 1
 63 33 l 1
 63 35 l 1
23 27 m 1
 21 27 l 1
 21 25 l 1
 23 25 l 1
 23 27 l 1
26 27 m 1
 24 27 l 1
 24 25 l 1
 25 25 l 1
 25 26 l 1
 26 26 l 1
 26 27 l 1
31 31 m 1
 29 31 l 1
 29 29 l 1
 31 29 l 1
 31 31 l 1
28 27 m 1
 27 27 l 1
 27 26 l 1
 26 26 l 1
 26 25 l 1
 28 25 l 1
 28 27 l 1
31 27 m 1
 29 27 l 1
 29 25 l 1
 31 25 l 1
 31 27 l 1
36 33 m 1
 34 33 l 1
 34 31 l 1
 36 31 l 1
 36 33 l 1
41 27 m 1
 39 27 l 1
 39 25 l 1
 41 25 l 1
 41 27 l 1
49 31 m 1
 47 31 l 1
 47 29 l 1
 49 29 l 1
 49 31 l 1
44 27 m 1
 42 27 l 1
 42 25 l 1
 43 25 l 1
 43 26 l 1
 44 26 l 1
 44 27 l 1
46 27 m 1
 45 27 l 1
 45 26 l 1
 44 26 l 1
 44 25 l 1
 46 25 l 1
 46 27 l 1
49 27 m 1
 47 27 l 1
 47 25 l 1
 49 25 l 1
 49 27 l 1
55 27 m 1
 53 27 l 1
 53 25 l 1
 55 25 l 1
 55 27 l 1
58 27 m 1
 56 27 l 1
 56 25 l 1
 57 25 l 1
 57 26 l 1
 58 26 l 1
 58 27 l 1
63 31 m 1
 61 31 l 1
 61 29 l 1
 63 29 l 1
 63 31 l 1
60 27 m 1
 59 27 l 1
 59 26 l 1
 58 26 l 1
 58 25 l 1
 60 25 l 1
 60 27 l 1
63 27 m 1
 61 27 l 1
 61 25 l 1
 63 25 l 1
 63 27 l 1
EndSplineSet
EndChar

StartChar: custom_5_5_0_3_1
Encoding: 36499 36499 16531
Width: 70
Flags: H
LayerCount: 2
Fore
SplineSet
23 43 m 1
 21 43 l 1
 21 41 l 1
 23 41 l 1
 23 43 l 1
26 43 m 1
 24 43 l 1
 24 41 l 1
 25 41 l 1
 25 42 l 1
 26 42 l 1
 26 43 l 1
23 35 m 1
 21 35 l 1
 21 33 l 1
 23 33 l 1
 23 35 l 1
25 35 m 1
 24 35 l 1
 24 33 l 1
 26 33 l 1
 26 34 l 1
 25 34 l 1
 25 35 l 1
28 43 m 1
 27 43 l 1
 27 42 l 1
 26 42 l 1
 26 41 l 1
 28 41 l 1
 28 43 l 1
31 43 m 1
 29 43 l 1
 29 41 l 1
 31 41 l 1
 31 43 l 1
41 43 m 1
 39 43 l 1
 39 41 l 1
 41 41 l 1
 41 43 l 1
31 39 m 1
 29 39 l 1
 29 37 l 1
 31 37 l 1
 31 39 l 1
28 35 m 1
 26 35 l 1
 26 34 l 1
 27 34 l 1
 27 33 l 1
 28 33 l 1
 28 35 l 1
31 35 m 1
 29 35 l 1
 29 33 l 1
 31 33 l 1
 31 35 l 1
41 39 m 1
 39 39 l 1
 39 37 l 1
 41 37 l 1
 41 39 l 1
36 37 m 1
 34 37 l 1
 34 35 l 1
 36 35 l 1
 36 37 l 1
41 35 m 1
 39 35 l 1
 39 33 l 1
 41 33 l 1
 41 35 l 1
44 43 m 1
 42 43 l 1
 42 41 l 1
 43 41 l 1
 43 42 l 1
 44 42 l 1
 44 43 l 1
46 43 m 1
 45 43 l 1
 45 42 l 1
 44 42 l 1
 44 41 l 1
 46 41 l 1
 46 43 l 1
49 43 m 1
 47 43 l 1
 47 41 l 1
 49 41 l 1
 49 43 l 1
55 43 m 1
 53 43 l 1
 53 41 l 1
 55 41 l 1
 55 43 l 1
58 43 m 1
 56 43 l 1
 56 41 l 1
 57 41 l 1
 57 42 l 1
 58 42 l 1
 58 43 l 1
43 35 m 1
 42 35 l 1
 42 33 l 1
 44 33 l 1
 44 34 l 1
 43 34 l 1
 43 35 l 1
46 35 m 1
 44 35 l 1
 44 34 l 1
 45 34 l 1
 45 33 l 1
 46 33 l 1
 46 35 l 1
49 35 m 1
 47 35 l 1
 47 33 l 1
 49 33 l 1
 49 35 l 1
55 39 m 1
 53 39 l 1
 53 37 l 1
 55 37 l 1
 55 39 l 1
55 35 m 1
 53 35 l 1
 53 33 l 1
 55 33 l 1
 55 35 l 1
57 35 m 1
 56 35 l 1
 56 33 l 1
 58 33 l 1
 58 34 l 1
 57 34 l 1
 57 35 l 1
60 43 m 1
 59 43 l 1
 59 42 l 1
 58 42 l 1
 58 41 l 1
 60 41 l 1
 60 43 l 1
63 43 m 1
 61 43 l 1
 61 41 l 1
 63 41 l 1
 63 43 l 1
60 35 m 1
 58 35 l 1
 58 34 l 1
 59 34 l 1
 59 33 l 1
 60 33 l 1
 60 35 l 1
63 35 m 1
 61 35 l 1
 61 33 l 1
 63 33 l 1
 63 35 l 1
23 27 m 1
 21 27 l 1
 21 25 l 1
 23 25 l 1
 23 27 l 1
26 27 m 1
 24 27 l 1
 24 25 l 1
 25 25 l 1
 25 26 l 1
 26 26 l 1
 26 27 l 1
31 31 m 1
 29 31 l 1
 29 29 l 1
 31 29 l 1
 31 31 l 1
28 27 m 1
 27 27 l 1
 27 26 l 1
 26 26 l 1
 26 25 l 1
 28 25 l 1
 28 27 l 1
31 27 m 1
 29 27 l 1
 29 25 l 1
 31 25 l 1
 31 27 l 1
36 33 m 1
 34 33 l 1
 34 31 l 1
 36 31 l 1
 36 33 l 1
41 27 m 1
 39 27 l 1
 39 25 l 1
 41 25 l 1
 41 27 l 1
49 31 m 1
 47 31 l 1
 47 29 l 1
 49 29 l 1
 49 31 l 1
44 27 m 1
 42 27 l 1
 42 25 l 1
 43 25 l 1
 43 26 l 1
 44 26 l 1
 44 27 l 1
46 27 m 1
 45 27 l 1
 45 26 l 1
 44 26 l 1
 44 25 l 1
 46 25 l 1
 46 27 l 1
49 27 m 1
 47 27 l 1
 47 25 l 1
 49 25 l 1
 49 27 l 1
55 27 m 1
 53 27 l 1
 53 25 l 1
 55 25 l 1
 55 27 l 1
58 27 m 1
 56 27 l 1
 56 25 l 1
 57 25 l 1
 57 26 l 1
 58 26 l 1
 58 27 l 1
63 31 m 1
 61 31 l 1
 61 29 l 1
 63 29 l 1
 63 31 l 1
60 27 m 1
 59 27 l 1
 59 26 l 1
 58 26 l 1
 58 25 l 1
 60 25 l 1
 60 27 l 1
63 27 m 1
 61 27 l 1
 61 25 l 1
 63 25 l 1
 63 27 l 1
EndSplineSet
EndChar

StartChar: custom_5_5_0_3_2
Encoding: 36500 36500 16532
Width: 70
Flags: H
LayerCount: 2
Fore
SplineSet
23 43 m 1
 21 43 l 1
 21 41 l 1
 23 41 l 1
 23 43 l 1
26 43 m 1
 24 43 l 1
 24 41 l 1
 25 41 l 1
 25 42 l 1
 26 42 l 1
 26 43 l 1
23 35 m 1
 21 35 l 1
 21 33 l 1
 23 33 l 1
 23 35 l 1
25 35 m 1
 24 35 l 1
 24 33 l 1
 26 33 l 1
 26 34 l 1
 25 34 l 1
 25 35 l 1
28 43 m 1
 27 43 l 1
 27 42 l 1
 26 42 l 1
 26 41 l 1
 28 41 l 1
 28 43 l 1
31 43 m 1
 29 43 l 1
 29 41 l 1
 31 41 l 1
 31 43 l 1
41 43 m 1
 39 43 l 1
 39 41 l 1
 41 41 l 1
 41 43 l 1
31 39 m 1
 29 39 l 1
 29 37 l 1
 31 37 l 1
 31 39 l 1
28 35 m 1
 26 35 l 1
 26 34 l 1
 27 34 l 1
 27 33 l 1
 28 33 l 1
 28 35 l 1
31 35 m 1
 29 35 l 1
 29 33 l 1
 31 33 l 1
 31 35 l 1
41 39 m 1
 39 39 l 1
 39 37 l 1
 41 37 l 1
 41 39 l 1
36 37 m 1
 34 37 l 1
 34 35 l 1
 36 35 l 1
 36 37 l 1
41 35 m 1
 39 35 l 1
 39 33 l 1
 41 33 l 1
 41 35 l 1
44 43 m 1
 42 43 l 1
 42 41 l 1
 43 41 l 1
 43 42 l 1
 44 42 l 1
 44 43 l 1
46 43 m 1
 45 43 l 1
 45 42 l 1
 44 42 l 1
 44 41 l 1
 46 41 l 1
 46 43 l 1
49 43 m 1
 47 43 l 1
 47 41 l 1
 49 41 l 1
 49 43 l 1
55 43 m 1
 53 43 l 1
 53 41 l 1
 55 41 l 1
 55 43 l 1
58 43 m 1
 56 43 l 1
 56 41 l 1
 57 41 l 1
 57 42 l 1
 58 42 l 1
 58 43 l 1
43 35 m 1
 42 35 l 1
 42 33 l 1
 44 33 l 1
 44 34 l 1
 43 34 l 1
 43 35 l 1
46 35 m 1
 44 35 l 1
 44 34 l 1
 45 34 l 1
 45 33 l 1
 46 33 l 1
 46 35 l 1
49 35 m 1
 47 35 l 1
 47 33 l 1
 49 33 l 1
 49 35 l 1
55 39 m 1
 53 39 l 1
 53 37 l 1
 55 37 l 1
 55 39 l 1
55 35 m 1
 53 35 l 1
 53 33 l 1
 55 33 l 1
 55 35 l 1
57 35 m 1
 56 35 l 1
 56 33 l 1
 58 33 l 1
 58 34 l 1
 57 34 l 1
 57 35 l 1
60 43 m 1
 59 43 l 1
 59 42 l 1
 58 42 l 1
 58 41 l 1
 60 41 l 1
 60 43 l 1
63 43 m 1
 61 43 l 1
 61 41 l 1
 63 41 l 1
 63 43 l 1
60 35 m 1
 58 35 l 1
 58 34 l 1
 59 34 l 1
 59 33 l 1
 60 33 l 1
 60 35 l 1
63 35 m 1
 61 35 l 1
 61 33 l 1
 63 33 l 1
 63 35 l 1
23 27 m 1
 21 27 l 1
 21 25 l 1
 23 25 l 1
 23 27 l 1
26 27 m 1
 24 27 l 1
 24 25 l 1
 25 25 l 1
 25 26 l 1
 26 26 l 1
 26 27 l 1
31 31 m 1
 29 31 l 1
 29 29 l 1
 31 29 l 1
 31 31 l 1
28 27 m 1
 27 27 l 1
 27 26 l 1
 26 26 l 1
 26 25 l 1
 28 25 l 1
 28 27 l 1
31 27 m 1
 29 27 l 1
 29 25 l 1
 31 25 l 1
 31 27 l 1
36 33 m 1
 34 33 l 1
 34 31 l 1
 36 31 l 1
 36 33 l 1
41 27 m 1
 39 27 l 1
 39 25 l 1
 41 25 l 1
 41 27 l 1
49 31 m 1
 47 31 l 1
 47 29 l 1
 49 29 l 1
 49 31 l 1
44 27 m 1
 42 27 l 1
 42 25 l 1
 43 25 l 1
 43 26 l 1
 44 26 l 1
 44 27 l 1
46 27 m 1
 45 27 l 1
 45 26 l 1
 44 26 l 1
 44 25 l 1
 46 25 l 1
 46 27 l 1
49 27 m 1
 47 27 l 1
 47 25 l 1
 49 25 l 1
 49 27 l 1
55 27 m 1
 53 27 l 1
 53 25 l 1
 55 25 l 1
 55 27 l 1
58 27 m 1
 56 27 l 1
 56 25 l 1
 57 25 l 1
 57 26 l 1
 58 26 l 1
 58 27 l 1
63 31 m 1
 61 31 l 1
 61 29 l 1
 63 29 l 1
 63 31 l 1
60 27 m 1
 59 27 l 1
 59 26 l 1
 58 26 l 1
 58 25 l 1
 60 25 l 1
 60 27 l 1
63 27 m 1
 61 27 l 1
 61 25 l 1
 63 25 l 1
 63 27 l 1
EndSplineSet
EndChar

StartChar: custom_5_5_0_3_3
Encoding: 36501 36501 16533
Width: 70
Flags: H
LayerCount: 2
Fore
SplineSet
23 43 m 1
 21 43 l 1
 21 41 l 1
 23 41 l 1
 23 43 l 1
26 43 m 1
 24 43 l 1
 24 41 l 1
 25 41 l 1
 25 42 l 1
 26 42 l 1
 26 43 l 1
23 35 m 1
 21 35 l 1
 21 33 l 1
 23 33 l 1
 23 35 l 1
25 35 m 1
 24 35 l 1
 24 33 l 1
 26 33 l 1
 26 34 l 1
 25 34 l 1
 25 35 l 1
28 43 m 1
 27 43 l 1
 27 42 l 1
 26 42 l 1
 26 41 l 1
 28 41 l 1
 28 43 l 1
31 43 m 1
 29 43 l 1
 29 41 l 1
 31 41 l 1
 31 43 l 1
41 43 m 1
 39 43 l 1
 39 41 l 1
 41 41 l 1
 41 43 l 1
31 39 m 1
 29 39 l 1
 29 37 l 1
 31 37 l 1
 31 39 l 1
28 35 m 1
 26 35 l 1
 26 34 l 1
 27 34 l 1
 27 33 l 1
 28 33 l 1
 28 35 l 1
31 35 m 1
 29 35 l 1
 29 33 l 1
 31 33 l 1
 31 35 l 1
41 39 m 1
 39 39 l 1
 39 37 l 1
 41 37 l 1
 41 39 l 1
36 37 m 1
 34 37 l 1
 34 35 l 1
 36 35 l 1
 36 37 l 1
41 35 m 1
 39 35 l 1
 39 33 l 1
 41 33 l 1
 41 35 l 1
44 43 m 1
 42 43 l 1
 42 41 l 1
 43 41 l 1
 43 42 l 1
 44 42 l 1
 44 43 l 1
46 43 m 1
 45 43 l 1
 45 42 l 1
 44 42 l 1
 44 41 l 1
 46 41 l 1
 46 43 l 1
49 43 m 1
 47 43 l 1
 47 41 l 1
 49 41 l 1
 49 43 l 1
55 43 m 1
 53 43 l 1
 53 41 l 1
 55 41 l 1
 55 43 l 1
58 43 m 1
 56 43 l 1
 56 41 l 1
 57 41 l 1
 57 42 l 1
 58 42 l 1
 58 43 l 1
43 35 m 1
 42 35 l 1
 42 33 l 1
 44 33 l 1
 44 34 l 1
 43 34 l 1
 43 35 l 1
46 35 m 1
 44 35 l 1
 44 34 l 1
 45 34 l 1
 45 33 l 1
 46 33 l 1
 46 35 l 1
49 35 m 1
 47 35 l 1
 47 33 l 1
 49 33 l 1
 49 35 l 1
55 39 m 1
 53 39 l 1
 53 37 l 1
 55 37 l 1
 55 39 l 1
55 35 m 1
 53 35 l 1
 53 33 l 1
 55 33 l 1
 55 35 l 1
57 35 m 1
 56 35 l 1
 56 33 l 1
 58 33 l 1
 58 34 l 1
 57 34 l 1
 57 35 l 1
60 43 m 1
 59 43 l 1
 59 42 l 1
 58 42 l 1
 58 41 l 1
 60 41 l 1
 60 43 l 1
63 43 m 1
 61 43 l 1
 61 41 l 1
 63 41 l 1
 63 43 l 1
60 35 m 1
 58 35 l 1
 58 34 l 1
 59 34 l 1
 59 33 l 1
 60 33 l 1
 60 35 l 1
63 35 m 1
 61 35 l 1
 61 33 l 1
 63 33 l 1
 63 35 l 1
23 27 m 1
 21 27 l 1
 21 25 l 1
 23 25 l 1
 23 27 l 1
26 27 m 1
 24 27 l 1
 24 25 l 1
 25 25 l 1
 25 26 l 1
 26 26 l 1
 26 27 l 1
31 31 m 1
 29 31 l 1
 29 29 l 1
 31 29 l 1
 31 31 l 1
28 27 m 1
 27 27 l 1
 27 26 l 1
 26 26 l 1
 26 25 l 1
 28 25 l 1
 28 27 l 1
31 27 m 1
 29 27 l 1
 29 25 l 1
 31 25 l 1
 31 27 l 1
36 33 m 1
 34 33 l 1
 34 31 l 1
 36 31 l 1
 36 33 l 1
41 27 m 1
 39 27 l 1
 39 25 l 1
 41 25 l 1
 41 27 l 1
49 31 m 1
 47 31 l 1
 47 29 l 1
 49 29 l 1
 49 31 l 1
44 27 m 1
 42 27 l 1
 42 25 l 1
 43 25 l 1
 43 26 l 1
 44 26 l 1
 44 27 l 1
46 27 m 1
 45 27 l 1
 45 26 l 1
 44 26 l 1
 44 25 l 1
 46 25 l 1
 46 27 l 1
49 27 m 1
 47 27 l 1
 47 25 l 1
 49 25 l 1
 49 27 l 1
55 27 m 1
 53 27 l 1
 53 25 l 1
 55 25 l 1
 55 27 l 1
58 27 m 1
 56 27 l 1
 56 25 l 1
 57 25 l 1
 57 26 l 1
 58 26 l 1
 58 27 l 1
63 31 m 1
 61 31 l 1
 61 29 l 1
 63 29 l 1
 63 31 l 1
60 27 m 1
 59 27 l 1
 59 26 l 1
 58 26 l 1
 58 25 l 1
 60 25 l 1
 60 27 l 1
63 27 m 1
 61 27 l 1
 61 25 l 1
 63 25 l 1
 63 27 l 1
EndSplineSet
EndChar

StartChar: custom_5_5_0_3_4
Encoding: 36502 36502 16534
Width: 70
Flags: H
LayerCount: 2
Fore
SplineSet
23 43 m 1
 21 43 l 1
 21 41 l 1
 23 41 l 1
 23 43 l 1
26 43 m 1
 24 43 l 1
 24 41 l 1
 25 41 l 1
 25 42 l 1
 26 42 l 1
 26 43 l 1
23 35 m 1
 21 35 l 1
 21 33 l 1
 23 33 l 1
 23 35 l 1
25 35 m 1
 24 35 l 1
 24 33 l 1
 26 33 l 1
 26 34 l 1
 25 34 l 1
 25 35 l 1
28 43 m 1
 27 43 l 1
 27 42 l 1
 26 42 l 1
 26 41 l 1
 28 41 l 1
 28 43 l 1
31 43 m 1
 29 43 l 1
 29 41 l 1
 31 41 l 1
 31 43 l 1
41 43 m 1
 39 43 l 1
 39 41 l 1
 41 41 l 1
 41 43 l 1
31 39 m 1
 29 39 l 1
 29 37 l 1
 31 37 l 1
 31 39 l 1
28 35 m 1
 26 35 l 1
 26 34 l 1
 27 34 l 1
 27 33 l 1
 28 33 l 1
 28 35 l 1
31 35 m 1
 29 35 l 1
 29 33 l 1
 31 33 l 1
 31 35 l 1
41 39 m 1
 39 39 l 1
 39 37 l 1
 41 37 l 1
 41 39 l 1
36 37 m 1
 34 37 l 1
 34 35 l 1
 36 35 l 1
 36 37 l 1
41 35 m 1
 39 35 l 1
 39 33 l 1
 41 33 l 1
 41 35 l 1
44 43 m 1
 42 43 l 1
 42 41 l 1
 43 41 l 1
 43 42 l 1
 44 42 l 1
 44 43 l 1
46 43 m 1
 45 43 l 1
 45 42 l 1
 44 42 l 1
 44 41 l 1
 46 41 l 1
 46 43 l 1
49 43 m 1
 47 43 l 1
 47 41 l 1
 49 41 l 1
 49 43 l 1
55 43 m 1
 53 43 l 1
 53 41 l 1
 55 41 l 1
 55 43 l 1
58 43 m 1
 56 43 l 1
 56 41 l 1
 57 41 l 1
 57 42 l 1
 58 42 l 1
 58 43 l 1
43 35 m 1
 42 35 l 1
 42 33 l 1
 44 33 l 1
 44 34 l 1
 43 34 l 1
 43 35 l 1
46 35 m 1
 44 35 l 1
 44 34 l 1
 45 34 l 1
 45 33 l 1
 46 33 l 1
 46 35 l 1
49 35 m 1
 47 35 l 1
 47 33 l 1
 49 33 l 1
 49 35 l 1
55 39 m 1
 53 39 l 1
 53 37 l 1
 55 37 l 1
 55 39 l 1
55 35 m 1
 53 35 l 1
 53 33 l 1
 55 33 l 1
 55 35 l 1
57 35 m 1
 56 35 l 1
 56 33 l 1
 58 33 l 1
 58 34 l 1
 57 34 l 1
 57 35 l 1
60 43 m 1
 59 43 l 1
 59 42 l 1
 58 42 l 1
 58 41 l 1
 60 41 l 1
 60 43 l 1
63 43 m 1
 61 43 l 1
 61 41 l 1
 63 41 l 1
 63 43 l 1
60 35 m 1
 58 35 l 1
 58 34 l 1
 59 34 l 1
 59 33 l 1
 60 33 l 1
 60 35 l 1
63 35 m 1
 61 35 l 1
 61 33 l 1
 63 33 l 1
 63 35 l 1
23 27 m 1
 21 27 l 1
 21 25 l 1
 23 25 l 1
 23 27 l 1
26 27 m 1
 24 27 l 1
 24 25 l 1
 25 25 l 1
 25 26 l 1
 26 26 l 1
 26 27 l 1
31 31 m 1
 29 31 l 1
 29 29 l 1
 31 29 l 1
 31 31 l 1
28 27 m 1
 27 27 l 1
 27 26 l 1
 26 26 l 1
 26 25 l 1
 28 25 l 1
 28 27 l 1
31 27 m 1
 29 27 l 1
 29 25 l 1
 31 25 l 1
 31 27 l 1
36 33 m 1
 34 33 l 1
 34 31 l 1
 36 31 l 1
 36 33 l 1
41 27 m 1
 39 27 l 1
 39 25 l 1
 41 25 l 1
 41 27 l 1
49 31 m 1
 47 31 l 1
 47 29 l 1
 49 29 l 1
 49 31 l 1
44 27 m 1
 42 27 l 1
 42 25 l 1
 43 25 l 1
 43 26 l 1
 44 26 l 1
 44 27 l 1
46 27 m 1
 45 27 l 1
 45 26 l 1
 44 26 l 1
 44 25 l 1
 46 25 l 1
 46 27 l 1
49 27 m 1
 47 27 l 1
 47 25 l 1
 49 25 l 1
 49 27 l 1
55 27 m 1
 53 27 l 1
 53 25 l 1
 55 25 l 1
 55 27 l 1
58 27 m 1
 56 27 l 1
 56 25 l 1
 57 25 l 1
 57 26 l 1
 58 26 l 1
 58 27 l 1
63 31 m 1
 61 31 l 1
 61 29 l 1
 63 29 l 1
 63 31 l 1
60 27 m 1
 59 27 l 1
 59 26 l 1
 58 26 l 1
 58 25 l 1
 60 25 l 1
 60 27 l 1
63 27 m 1
 61 27 l 1
 61 25 l 1
 63 25 l 1
 63 27 l 1
EndSplineSet
EndChar

StartChar: custom_5_5_0_3_5
Encoding: 36503 36503 16535
Width: 70
Flags: H
LayerCount: 2
Fore
SplineSet
23 43 m 1
 21 43 l 1
 21 41 l 1
 23 41 l 1
 23 43 l 1
26 43 m 1
 24 43 l 1
 24 41 l 1
 25 41 l 1
 25 42 l 1
 26 42 l 1
 26 43 l 1
23 35 m 1
 21 35 l 1
 21 33 l 1
 23 33 l 1
 23 35 l 1
25 35 m 1
 24 35 l 1
 24 33 l 1
 26 33 l 1
 26 34 l 1
 25 34 l 1
 25 35 l 1
28 43 m 1
 27 43 l 1
 27 42 l 1
 26 42 l 1
 26 41 l 1
 28 41 l 1
 28 43 l 1
31 43 m 1
 29 43 l 1
 29 41 l 1
 31 41 l 1
 31 43 l 1
41 43 m 1
 39 43 l 1
 39 41 l 1
 41 41 l 1
 41 43 l 1
31 39 m 1
 29 39 l 1
 29 37 l 1
 31 37 l 1
 31 39 l 1
28 35 m 1
 26 35 l 1
 26 34 l 1
 27 34 l 1
 27 33 l 1
 28 33 l 1
 28 35 l 1
31 35 m 1
 29 35 l 1
 29 33 l 1
 31 33 l 1
 31 35 l 1
41 39 m 1
 39 39 l 1
 39 37 l 1
 41 37 l 1
 41 39 l 1
36 37 m 1
 34 37 l 1
 34 35 l 1
 36 35 l 1
 36 37 l 1
41 35 m 1
 39 35 l 1
 39 33 l 1
 41 33 l 1
 41 35 l 1
44 43 m 1
 42 43 l 1
 42 41 l 1
 43 41 l 1
 43 42 l 1
 44 42 l 1
 44 43 l 1
46 43 m 1
 45 43 l 1
 45 42 l 1
 44 42 l 1
 44 41 l 1
 46 41 l 1
 46 43 l 1
49 43 m 1
 47 43 l 1
 47 41 l 1
 49 41 l 1
 49 43 l 1
55 43 m 1
 53 43 l 1
 53 41 l 1
 55 41 l 1
 55 43 l 1
58 43 m 1
 56 43 l 1
 56 41 l 1
 57 41 l 1
 57 42 l 1
 58 42 l 1
 58 43 l 1
43 35 m 1
 42 35 l 1
 42 33 l 1
 44 33 l 1
 44 34 l 1
 43 34 l 1
 43 35 l 1
46 35 m 1
 44 35 l 1
 44 34 l 1
 45 34 l 1
 45 33 l 1
 46 33 l 1
 46 35 l 1
49 35 m 1
 47 35 l 1
 47 33 l 1
 49 33 l 1
 49 35 l 1
55 39 m 1
 53 39 l 1
 53 37 l 1
 55 37 l 1
 55 39 l 1
55 35 m 1
 53 35 l 1
 53 33 l 1
 55 33 l 1
 55 35 l 1
57 35 m 1
 56 35 l 1
 56 33 l 1
 58 33 l 1
 58 34 l 1
 57 34 l 1
 57 35 l 1
60 43 m 1
 59 43 l 1
 59 42 l 1
 58 42 l 1
 58 41 l 1
 60 41 l 1
 60 43 l 1
63 43 m 1
 61 43 l 1
 61 41 l 1
 63 41 l 1
 63 43 l 1
60 35 m 1
 58 35 l 1
 58 34 l 1
 59 34 l 1
 59 33 l 1
 60 33 l 1
 60 35 l 1
63 35 m 1
 61 35 l 1
 61 33 l 1
 63 33 l 1
 63 35 l 1
23 27 m 1
 21 27 l 1
 21 25 l 1
 23 25 l 1
 23 27 l 1
26 27 m 1
 24 27 l 1
 24 25 l 1
 25 25 l 1
 25 26 l 1
 26 26 l 1
 26 27 l 1
31 31 m 1
 29 31 l 1
 29 29 l 1
 31 29 l 1
 31 31 l 1
28 27 m 1
 27 27 l 1
 27 26 l 1
 26 26 l 1
 26 25 l 1
 28 25 l 1
 28 27 l 1
31 27 m 1
 29 27 l 1
 29 25 l 1
 31 25 l 1
 31 27 l 1
36 33 m 1
 34 33 l 1
 34 31 l 1
 36 31 l 1
 36 33 l 1
41 27 m 1
 39 27 l 1
 39 25 l 1
 41 25 l 1
 41 27 l 1
49 31 m 1
 47 31 l 1
 47 29 l 1
 49 29 l 1
 49 31 l 1
44 27 m 1
 42 27 l 1
 42 25 l 1
 43 25 l 1
 43 26 l 1
 44 26 l 1
 44 27 l 1
46 27 m 1
 45 27 l 1
 45 26 l 1
 44 26 l 1
 44 25 l 1
 46 25 l 1
 46 27 l 1
49 27 m 1
 47 27 l 1
 47 25 l 1
 49 25 l 1
 49 27 l 1
55 27 m 1
 53 27 l 1
 53 25 l 1
 55 25 l 1
 55 27 l 1
58 27 m 1
 56 27 l 1
 56 25 l 1
 57 25 l 1
 57 26 l 1
 58 26 l 1
 58 27 l 1
63 31 m 1
 61 31 l 1
 61 29 l 1
 63 29 l 1
 63 31 l 1
60 27 m 1
 59 27 l 1
 59 26 l 1
 58 26 l 1
 58 25 l 1
 60 25 l 1
 60 27 l 1
63 27 m 1
 61 27 l 1
 61 25 l 1
 63 25 l 1
 63 27 l 1
EndSplineSet
EndChar

StartChar: custom_5_5_0_3_6
Encoding: 36504 36504 16536
Width: 70
Flags: H
LayerCount: 2
Fore
SplineSet
23 43 m 1
 21 43 l 1
 21 41 l 1
 23 41 l 1
 23 43 l 1
26 43 m 1
 24 43 l 1
 24 41 l 1
 25 41 l 1
 25 42 l 1
 26 42 l 1
 26 43 l 1
23 35 m 1
 21 35 l 1
 21 33 l 1
 23 33 l 1
 23 35 l 1
25 35 m 1
 24 35 l 1
 24 33 l 1
 26 33 l 1
 26 34 l 1
 25 34 l 1
 25 35 l 1
28 43 m 1
 27 43 l 1
 27 42 l 1
 26 42 l 1
 26 41 l 1
 28 41 l 1
 28 43 l 1
31 43 m 1
 29 43 l 1
 29 41 l 1
 31 41 l 1
 31 43 l 1
41 43 m 1
 39 43 l 1
 39 41 l 1
 41 41 l 1
 41 43 l 1
31 39 m 1
 29 39 l 1
 29 37 l 1
 31 37 l 1
 31 39 l 1
28 35 m 1
 26 35 l 1
 26 34 l 1
 27 34 l 1
 27 33 l 1
 28 33 l 1
 28 35 l 1
31 35 m 1
 29 35 l 1
 29 33 l 1
 31 33 l 1
 31 35 l 1
41 39 m 1
 39 39 l 1
 39 37 l 1
 41 37 l 1
 41 39 l 1
36 37 m 1
 34 37 l 1
 34 35 l 1
 36 35 l 1
 36 37 l 1
41 35 m 1
 39 35 l 1
 39 33 l 1
 41 33 l 1
 41 35 l 1
44 43 m 1
 42 43 l 1
 42 41 l 1
 43 41 l 1
 43 42 l 1
 44 42 l 1
 44 43 l 1
46 43 m 1
 45 43 l 1
 45 42 l 1
 44 42 l 1
 44 41 l 1
 46 41 l 1
 46 43 l 1
49 43 m 1
 47 43 l 1
 47 41 l 1
 49 41 l 1
 49 43 l 1
55 43 m 1
 53 43 l 1
 53 41 l 1
 55 41 l 1
 55 43 l 1
58 43 m 1
 56 43 l 1
 56 41 l 1
 57 41 l 1
 57 42 l 1
 58 42 l 1
 58 43 l 1
43 35 m 1
 42 35 l 1
 42 33 l 1
 44 33 l 1
 44 34 l 1
 43 34 l 1
 43 35 l 1
46 35 m 1
 44 35 l 1
 44 34 l 1
 45 34 l 1
 45 33 l 1
 46 33 l 1
 46 35 l 1
49 35 m 1
 47 35 l 1
 47 33 l 1
 49 33 l 1
 49 35 l 1
55 39 m 1
 53 39 l 1
 53 37 l 1
 55 37 l 1
 55 39 l 1
55 35 m 1
 53 35 l 1
 53 33 l 1
 55 33 l 1
 55 35 l 1
57 35 m 1
 56 35 l 1
 56 33 l 1
 58 33 l 1
 58 34 l 1
 57 34 l 1
 57 35 l 1
60 43 m 1
 59 43 l 1
 59 42 l 1
 58 42 l 1
 58 41 l 1
 60 41 l 1
 60 43 l 1
63 43 m 1
 61 43 l 1
 61 41 l 1
 63 41 l 1
 63 43 l 1
60 35 m 1
 58 35 l 1
 58 34 l 1
 59 34 l 1
 59 33 l 1
 60 33 l 1
 60 35 l 1
63 35 m 1
 61 35 l 1
 61 33 l 1
 63 33 l 1
 63 35 l 1
23 27 m 1
 21 27 l 1
 21 25 l 1
 23 25 l 1
 23 27 l 1
26 27 m 1
 24 27 l 1
 24 25 l 1
 25 25 l 1
 25 26 l 1
 26 26 l 1
 26 27 l 1
31 31 m 1
 29 31 l 1
 29 29 l 1
 31 29 l 1
 31 31 l 1
28 27 m 1
 27 27 l 1
 27 26 l 1
 26 26 l 1
 26 25 l 1
 28 25 l 1
 28 27 l 1
31 27 m 1
 29 27 l 1
 29 25 l 1
 31 25 l 1
 31 27 l 1
36 33 m 1
 34 33 l 1
 34 31 l 1
 36 31 l 1
 36 33 l 1
41 27 m 1
 39 27 l 1
 39 25 l 1
 41 25 l 1
 41 27 l 1
49 31 m 1
 47 31 l 1
 47 29 l 1
 49 29 l 1
 49 31 l 1
44 27 m 1
 42 27 l 1
 42 25 l 1
 43 25 l 1
 43 26 l 1
 44 26 l 1
 44 27 l 1
46 27 m 1
 45 27 l 1
 45 26 l 1
 44 26 l 1
 44 25 l 1
 46 25 l 1
 46 27 l 1
49 27 m 1
 47 27 l 1
 47 25 l 1
 49 25 l 1
 49 27 l 1
55 27 m 1
 53 27 l 1
 53 25 l 1
 55 25 l 1
 55 27 l 1
58 27 m 1
 56 27 l 1
 56 25 l 1
 57 25 l 1
 57 26 l 1
 58 26 l 1
 58 27 l 1
63 31 m 1
 61 31 l 1
 61 29 l 1
 63 29 l 1
 63 31 l 1
60 27 m 1
 59 27 l 1
 59 26 l 1
 58 26 l 1
 58 25 l 1
 60 25 l 1
 60 27 l 1
63 27 m 1
 61 27 l 1
 61 25 l 1
 63 25 l 1
 63 27 l 1
EndSplineSet
EndChar

StartChar: custom_5_5_0_3_7
Encoding: 36505 36505 16537
Width: 70
Flags: H
LayerCount: 2
Fore
SplineSet
23 43 m 1
 21 43 l 1
 21 41 l 1
 23 41 l 1
 23 43 l 1
26 43 m 1
 24 43 l 1
 24 41 l 1
 25 41 l 1
 25 42 l 1
 26 42 l 1
 26 43 l 1
23 35 m 1
 21 35 l 1
 21 33 l 1
 23 33 l 1
 23 35 l 1
25 35 m 1
 24 35 l 1
 24 33 l 1
 26 33 l 1
 26 34 l 1
 25 34 l 1
 25 35 l 1
28 43 m 1
 27 43 l 1
 27 42 l 1
 26 42 l 1
 26 41 l 1
 28 41 l 1
 28 43 l 1
31 43 m 1
 29 43 l 1
 29 41 l 1
 31 41 l 1
 31 43 l 1
41 43 m 1
 39 43 l 1
 39 41 l 1
 41 41 l 1
 41 43 l 1
31 39 m 1
 29 39 l 1
 29 37 l 1
 31 37 l 1
 31 39 l 1
28 35 m 1
 26 35 l 1
 26 34 l 1
 27 34 l 1
 27 33 l 1
 28 33 l 1
 28 35 l 1
31 35 m 1
 29 35 l 1
 29 33 l 1
 31 33 l 1
 31 35 l 1
41 39 m 1
 39 39 l 1
 39 37 l 1
 41 37 l 1
 41 39 l 1
36 37 m 1
 34 37 l 1
 34 35 l 1
 36 35 l 1
 36 37 l 1
41 35 m 1
 39 35 l 1
 39 33 l 1
 41 33 l 1
 41 35 l 1
44 43 m 1
 42 43 l 1
 42 41 l 1
 43 41 l 1
 43 42 l 1
 44 42 l 1
 44 43 l 1
46 43 m 1
 45 43 l 1
 45 42 l 1
 44 42 l 1
 44 41 l 1
 46 41 l 1
 46 43 l 1
49 43 m 1
 47 43 l 1
 47 41 l 1
 49 41 l 1
 49 43 l 1
55 43 m 1
 53 43 l 1
 53 41 l 1
 55 41 l 1
 55 43 l 1
58 43 m 1
 56 43 l 1
 56 41 l 1
 57 41 l 1
 57 42 l 1
 58 42 l 1
 58 43 l 1
43 35 m 1
 42 35 l 1
 42 33 l 1
 44 33 l 1
 44 34 l 1
 43 34 l 1
 43 35 l 1
46 35 m 1
 44 35 l 1
 44 34 l 1
 45 34 l 1
 45 33 l 1
 46 33 l 1
 46 35 l 1
49 35 m 1
 47 35 l 1
 47 33 l 1
 49 33 l 1
 49 35 l 1
55 39 m 1
 53 39 l 1
 53 37 l 1
 55 37 l 1
 55 39 l 1
55 35 m 1
 53 35 l 1
 53 33 l 1
 55 33 l 1
 55 35 l 1
57 35 m 1
 56 35 l 1
 56 33 l 1
 58 33 l 1
 58 34 l 1
 57 34 l 1
 57 35 l 1
60 43 m 1
 59 43 l 1
 59 42 l 1
 58 42 l 1
 58 41 l 1
 60 41 l 1
 60 43 l 1
63 43 m 1
 61 43 l 1
 61 41 l 1
 63 41 l 1
 63 43 l 1
60 35 m 1
 58 35 l 1
 58 34 l 1
 59 34 l 1
 59 33 l 1
 60 33 l 1
 60 35 l 1
63 35 m 1
 61 35 l 1
 61 33 l 1
 63 33 l 1
 63 35 l 1
23 27 m 1
 21 27 l 1
 21 25 l 1
 23 25 l 1
 23 27 l 1
26 27 m 1
 24 27 l 1
 24 25 l 1
 25 25 l 1
 25 26 l 1
 26 26 l 1
 26 27 l 1
31 31 m 1
 29 31 l 1
 29 29 l 1
 31 29 l 1
 31 31 l 1
28 27 m 1
 27 27 l 1
 27 26 l 1
 26 26 l 1
 26 25 l 1
 28 25 l 1
 28 27 l 1
31 27 m 1
 29 27 l 1
 29 25 l 1
 31 25 l 1
 31 27 l 1
36 33 m 1
 34 33 l 1
 34 31 l 1
 36 31 l 1
 36 33 l 1
41 27 m 1
 39 27 l 1
 39 25 l 1
 41 25 l 1
 41 27 l 1
49 31 m 1
 47 31 l 1
 47 29 l 1
 49 29 l 1
 49 31 l 1
44 27 m 1
 42 27 l 1
 42 25 l 1
 43 25 l 1
 43 26 l 1
 44 26 l 1
 44 27 l 1
46 27 m 1
 45 27 l 1
 45 26 l 1
 44 26 l 1
 44 25 l 1
 46 25 l 1
 46 27 l 1
49 27 m 1
 47 27 l 1
 47 25 l 1
 49 25 l 1
 49 27 l 1
55 27 m 1
 53 27 l 1
 53 25 l 1
 55 25 l 1
 55 27 l 1
58 27 m 1
 56 27 l 1
 56 25 l 1
 57 25 l 1
 57 26 l 1
 58 26 l 1
 58 27 l 1
63 31 m 1
 61 31 l 1
 61 29 l 1
 63 29 l 1
 63 31 l 1
60 27 m 1
 59 27 l 1
 59 26 l 1
 58 26 l 1
 58 25 l 1
 60 25 l 1
 60 27 l 1
63 27 m 1
 61 27 l 1
 61 25 l 1
 63 25 l 1
 63 27 l 1
EndSplineSet
EndChar

StartChar: custom_5_5_0_3_8
Encoding: 36506 36506 16538
Width: 70
Flags: H
LayerCount: 2
Fore
SplineSet
23 43 m 1
 21 43 l 1
 21 41 l 1
 23 41 l 1
 23 43 l 1
26 43 m 1
 24 43 l 1
 24 41 l 1
 25 41 l 1
 25 42 l 1
 26 42 l 1
 26 43 l 1
23 35 m 1
 21 35 l 1
 21 33 l 1
 23 33 l 1
 23 35 l 1
25 35 m 1
 24 35 l 1
 24 33 l 1
 26 33 l 1
 26 34 l 1
 25 34 l 1
 25 35 l 1
28 43 m 1
 27 43 l 1
 27 42 l 1
 26 42 l 1
 26 41 l 1
 28 41 l 1
 28 43 l 1
31 43 m 1
 29 43 l 1
 29 41 l 1
 31 41 l 1
 31 43 l 1
41 43 m 1
 39 43 l 1
 39 41 l 1
 41 41 l 1
 41 43 l 1
31 39 m 1
 29 39 l 1
 29 37 l 1
 31 37 l 1
 31 39 l 1
28 35 m 1
 26 35 l 1
 26 34 l 1
 27 34 l 1
 27 33 l 1
 28 33 l 1
 28 35 l 1
31 35 m 1
 29 35 l 1
 29 33 l 1
 31 33 l 1
 31 35 l 1
41 39 m 1
 39 39 l 1
 39 37 l 1
 41 37 l 1
 41 39 l 1
36 37 m 1
 34 37 l 1
 34 35 l 1
 36 35 l 1
 36 37 l 1
41 35 m 1
 39 35 l 1
 39 33 l 1
 41 33 l 1
 41 35 l 1
44 43 m 1
 42 43 l 1
 42 41 l 1
 43 41 l 1
 43 42 l 1
 44 42 l 1
 44 43 l 1
46 43 m 1
 45 43 l 1
 45 42 l 1
 44 42 l 1
 44 41 l 1
 46 41 l 1
 46 43 l 1
49 43 m 1
 47 43 l 1
 47 41 l 1
 49 41 l 1
 49 43 l 1
55 43 m 1
 53 43 l 1
 53 41 l 1
 55 41 l 1
 55 43 l 1
58 43 m 1
 56 43 l 1
 56 41 l 1
 57 41 l 1
 57 42 l 1
 58 42 l 1
 58 43 l 1
43 35 m 1
 42 35 l 1
 42 33 l 1
 44 33 l 1
 44 34 l 1
 43 34 l 1
 43 35 l 1
46 35 m 1
 44 35 l 1
 44 34 l 1
 45 34 l 1
 45 33 l 1
 46 33 l 1
 46 35 l 1
49 35 m 1
 47 35 l 1
 47 33 l 1
 49 33 l 1
 49 35 l 1
55 39 m 1
 53 39 l 1
 53 37 l 1
 55 37 l 1
 55 39 l 1
55 35 m 1
 53 35 l 1
 53 33 l 1
 55 33 l 1
 55 35 l 1
57 35 m 1
 56 35 l 1
 56 33 l 1
 58 33 l 1
 58 34 l 1
 57 34 l 1
 57 35 l 1
60 43 m 1
 59 43 l 1
 59 42 l 1
 58 42 l 1
 58 41 l 1
 60 41 l 1
 60 43 l 1
63 43 m 1
 61 43 l 1
 61 41 l 1
 63 41 l 1
 63 43 l 1
60 35 m 1
 58 35 l 1
 58 34 l 1
 59 34 l 1
 59 33 l 1
 60 33 l 1
 60 35 l 1
63 35 m 1
 61 35 l 1
 61 33 l 1
 63 33 l 1
 63 35 l 1
23 27 m 1
 21 27 l 1
 21 25 l 1
 23 25 l 1
 23 27 l 1
26 27 m 1
 24 27 l 1
 24 25 l 1
 25 25 l 1
 25 26 l 1
 26 26 l 1
 26 27 l 1
31 31 m 1
 29 31 l 1
 29 29 l 1
 31 29 l 1
 31 31 l 1
28 27 m 1
 27 27 l 1
 27 26 l 1
 26 26 l 1
 26 25 l 1
 28 25 l 1
 28 27 l 1
31 27 m 1
 29 27 l 1
 29 25 l 1
 31 25 l 1
 31 27 l 1
36 33 m 1
 34 33 l 1
 34 31 l 1
 36 31 l 1
 36 33 l 1
41 27 m 1
 39 27 l 1
 39 25 l 1
 41 25 l 1
 41 27 l 1
49 31 m 1
 47 31 l 1
 47 29 l 1
 49 29 l 1
 49 31 l 1
44 27 m 1
 42 27 l 1
 42 25 l 1
 43 25 l 1
 43 26 l 1
 44 26 l 1
 44 27 l 1
46 27 m 1
 45 27 l 1
 45 26 l 1
 44 26 l 1
 44 25 l 1
 46 25 l 1
 46 27 l 1
49 27 m 1
 47 27 l 1
 47 25 l 1
 49 25 l 1
 49 27 l 1
55 27 m 1
 53 27 l 1
 53 25 l 1
 55 25 l 1
 55 27 l 1
58 27 m 1
 56 27 l 1
 56 25 l 1
 57 25 l 1
 57 26 l 1
 58 26 l 1
 58 27 l 1
63 31 m 1
 61 31 l 1
 61 29 l 1
 63 29 l 1
 63 31 l 1
60 27 m 1
 59 27 l 1
 59 26 l 1
 58 26 l 1
 58 25 l 1
 60 25 l 1
 60 27 l 1
63 27 m 1
 61 27 l 1
 61 25 l 1
 63 25 l 1
 63 27 l 1
EndSplineSet
EndChar

StartChar: custom_5_5_0_3_9
Encoding: 36507 36507 16539
Width: 70
Flags: H
LayerCount: 2
Fore
SplineSet
23 43 m 1
 21 43 l 1
 21 41 l 1
 23 41 l 1
 23 43 l 1
26 43 m 1
 24 43 l 1
 24 41 l 1
 25 41 l 1
 25 42 l 1
 26 42 l 1
 26 43 l 1
23 35 m 1
 21 35 l 1
 21 33 l 1
 23 33 l 1
 23 35 l 1
25 35 m 1
 24 35 l 1
 24 33 l 1
 26 33 l 1
 26 34 l 1
 25 34 l 1
 25 35 l 1
28 43 m 1
 27 43 l 1
 27 42 l 1
 26 42 l 1
 26 41 l 1
 28 41 l 1
 28 43 l 1
31 43 m 1
 29 43 l 1
 29 41 l 1
 31 41 l 1
 31 43 l 1
41 43 m 1
 39 43 l 1
 39 41 l 1
 41 41 l 1
 41 43 l 1
31 39 m 1
 29 39 l 1
 29 37 l 1
 31 37 l 1
 31 39 l 1
28 35 m 1
 26 35 l 1
 26 34 l 1
 27 34 l 1
 27 33 l 1
 28 33 l 1
 28 35 l 1
31 35 m 1
 29 35 l 1
 29 33 l 1
 31 33 l 1
 31 35 l 1
41 39 m 1
 39 39 l 1
 39 37 l 1
 41 37 l 1
 41 39 l 1
36 37 m 1
 34 37 l 1
 34 35 l 1
 36 35 l 1
 36 37 l 1
41 35 m 1
 39 35 l 1
 39 33 l 1
 41 33 l 1
 41 35 l 1
44 43 m 1
 42 43 l 1
 42 41 l 1
 43 41 l 1
 43 42 l 1
 44 42 l 1
 44 43 l 1
46 43 m 1
 45 43 l 1
 45 42 l 1
 44 42 l 1
 44 41 l 1
 46 41 l 1
 46 43 l 1
49 43 m 1
 47 43 l 1
 47 41 l 1
 49 41 l 1
 49 43 l 1
55 43 m 1
 53 43 l 1
 53 41 l 1
 55 41 l 1
 55 43 l 1
58 43 m 1
 56 43 l 1
 56 41 l 1
 57 41 l 1
 57 42 l 1
 58 42 l 1
 58 43 l 1
43 35 m 1
 42 35 l 1
 42 33 l 1
 44 33 l 1
 44 34 l 1
 43 34 l 1
 43 35 l 1
46 35 m 1
 44 35 l 1
 44 34 l 1
 45 34 l 1
 45 33 l 1
 46 33 l 1
 46 35 l 1
49 35 m 1
 47 35 l 1
 47 33 l 1
 49 33 l 1
 49 35 l 1
55 39 m 1
 53 39 l 1
 53 37 l 1
 55 37 l 1
 55 39 l 1
55 35 m 1
 53 35 l 1
 53 33 l 1
 55 33 l 1
 55 35 l 1
57 35 m 1
 56 35 l 1
 56 33 l 1
 58 33 l 1
 58 34 l 1
 57 34 l 1
 57 35 l 1
60 43 m 1
 59 43 l 1
 59 42 l 1
 58 42 l 1
 58 41 l 1
 60 41 l 1
 60 43 l 1
63 43 m 1
 61 43 l 1
 61 41 l 1
 63 41 l 1
 63 43 l 1
60 35 m 1
 58 35 l 1
 58 34 l 1
 59 34 l 1
 59 33 l 1
 60 33 l 1
 60 35 l 1
63 35 m 1
 61 35 l 1
 61 33 l 1
 63 33 l 1
 63 35 l 1
23 27 m 1
 21 27 l 1
 21 25 l 1
 23 25 l 1
 23 27 l 1
26 27 m 1
 24 27 l 1
 24 25 l 1
 25 25 l 1
 25 26 l 1
 26 26 l 1
 26 27 l 1
31 31 m 1
 29 31 l 1
 29 29 l 1
 31 29 l 1
 31 31 l 1
28 27 m 1
 27 27 l 1
 27 26 l 1
 26 26 l 1
 26 25 l 1
 28 25 l 1
 28 27 l 1
31 27 m 1
 29 27 l 1
 29 25 l 1
 31 25 l 1
 31 27 l 1
36 33 m 1
 34 33 l 1
 34 31 l 1
 36 31 l 1
 36 33 l 1
41 27 m 1
 39 27 l 1
 39 25 l 1
 41 25 l 1
 41 27 l 1
49 31 m 1
 47 31 l 1
 47 29 l 1
 49 29 l 1
 49 31 l 1
44 27 m 1
 42 27 l 1
 42 25 l 1
 43 25 l 1
 43 26 l 1
 44 26 l 1
 44 27 l 1
46 27 m 1
 45 27 l 1
 45 26 l 1
 44 26 l 1
 44 25 l 1
 46 25 l 1
 46 27 l 1
49 27 m 1
 47 27 l 1
 47 25 l 1
 49 25 l 1
 49 27 l 1
55 27 m 1
 53 27 l 1
 53 25 l 1
 55 25 l 1
 55 27 l 1
58 27 m 1
 56 27 l 1
 56 25 l 1
 57 25 l 1
 57 26 l 1
 58 26 l 1
 58 27 l 1
63 31 m 1
 61 31 l 1
 61 29 l 1
 63 29 l 1
 63 31 l 1
60 27 m 1
 59 27 l 1
 59 26 l 1
 58 26 l 1
 58 25 l 1
 60 25 l 1
 60 27 l 1
63 27 m 1
 61 27 l 1
 61 25 l 1
 63 25 l 1
 63 27 l 1
EndSplineSet
EndChar

StartChar: custom_5_5_0_4_0
Encoding: 36508 36508 16540
Width: 70
Flags: H
LayerCount: 2
Fore
SplineSet
23 43 m 1
 21 43 l 1
 21 41 l 1
 23 41 l 1
 23 43 l 1
26 43 m 1
 24 43 l 1
 24 41 l 1
 25 41 l 1
 25 42 l 1
 26 42 l 1
 26 43 l 1
23 35 m 1
 21 35 l 1
 21 33 l 1
 23 33 l 1
 23 35 l 1
25 35 m 1
 24 35 l 1
 24 33 l 1
 26 33 l 1
 26 34 l 1
 25 34 l 1
 25 35 l 1
28 43 m 1
 27 43 l 1
 27 42 l 1
 26 42 l 1
 26 41 l 1
 28 41 l 1
 28 43 l 1
31 43 m 1
 29 43 l 1
 29 41 l 1
 31 41 l 1
 31 43 l 1
41 43 m 1
 39 43 l 1
 39 41 l 1
 41 41 l 1
 41 43 l 1
31 39 m 1
 29 39 l 1
 29 37 l 1
 31 37 l 1
 31 39 l 1
28 35 m 1
 26 35 l 1
 26 34 l 1
 27 34 l 1
 27 33 l 1
 28 33 l 1
 28 35 l 1
31 35 m 1
 29 35 l 1
 29 33 l 1
 31 33 l 1
 31 35 l 1
41 39 m 1
 39 39 l 1
 39 37 l 1
 41 37 l 1
 41 39 l 1
36 37 m 1
 34 37 l 1
 34 35 l 1
 36 35 l 1
 36 37 l 1
41 35 m 1
 39 35 l 1
 39 33 l 1
 41 33 l 1
 41 35 l 1
44 43 m 1
 42 43 l 1
 42 41 l 1
 43 41 l 1
 43 42 l 1
 44 42 l 1
 44 43 l 1
46 43 m 1
 45 43 l 1
 45 42 l 1
 44 42 l 1
 44 41 l 1
 46 41 l 1
 46 43 l 1
49 43 m 1
 47 43 l 1
 47 41 l 1
 49 41 l 1
 49 43 l 1
55 43 m 1
 53 43 l 1
 53 41 l 1
 55 41 l 1
 55 43 l 1
58 43 m 1
 56 43 l 1
 56 41 l 1
 57 41 l 1
 57 42 l 1
 58 42 l 1
 58 43 l 1
43 35 m 1
 42 35 l 1
 42 33 l 1
 44 33 l 1
 44 34 l 1
 43 34 l 1
 43 35 l 1
46 35 m 1
 44 35 l 1
 44 34 l 1
 45 34 l 1
 45 33 l 1
 46 33 l 1
 46 35 l 1
49 35 m 1
 47 35 l 1
 47 33 l 1
 49 33 l 1
 49 35 l 1
55 39 m 1
 53 39 l 1
 53 37 l 1
 55 37 l 1
 55 39 l 1
55 35 m 1
 53 35 l 1
 53 33 l 1
 55 33 l 1
 55 35 l 1
57 35 m 1
 56 35 l 1
 56 33 l 1
 58 33 l 1
 58 34 l 1
 57 34 l 1
 57 35 l 1
60 43 m 1
 59 43 l 1
 59 42 l 1
 58 42 l 1
 58 41 l 1
 60 41 l 1
 60 43 l 1
63 43 m 1
 61 43 l 1
 61 41 l 1
 63 41 l 1
 63 43 l 1
60 35 m 1
 58 35 l 1
 58 34 l 1
 59 34 l 1
 59 33 l 1
 60 33 l 1
 60 35 l 1
63 35 m 1
 61 35 l 1
 61 33 l 1
 63 33 l 1
 63 35 l 1
23 27 m 1
 21 27 l 1
 21 25 l 1
 23 25 l 1
 23 27 l 1
26 27 m 1
 24 27 l 1
 24 25 l 1
 25 25 l 1
 25 26 l 1
 26 26 l 1
 26 27 l 1
31 31 m 1
 29 31 l 1
 29 29 l 1
 31 29 l 1
 31 31 l 1
28 27 m 1
 27 27 l 1
 27 26 l 1
 26 26 l 1
 26 25 l 1
 28 25 l 1
 28 27 l 1
31 27 m 1
 29 27 l 1
 29 25 l 1
 31 25 l 1
 31 27 l 1
36 33 m 1
 34 33 l 1
 34 31 l 1
 36 31 l 1
 36 33 l 1
41 27 m 1
 39 27 l 1
 39 25 l 1
 41 25 l 1
 41 27 l 1
49 31 m 1
 47 31 l 1
 47 29 l 1
 49 29 l 1
 49 31 l 1
44 27 m 1
 42 27 l 1
 42 25 l 1
 43 25 l 1
 43 26 l 1
 44 26 l 1
 44 27 l 1
46 27 m 1
 45 27 l 1
 45 26 l 1
 44 26 l 1
 44 25 l 1
 46 25 l 1
 46 27 l 1
49 27 m 1
 47 27 l 1
 47 25 l 1
 49 25 l 1
 49 27 l 1
55 27 m 1
 53 27 l 1
 53 25 l 1
 55 25 l 1
 55 27 l 1
58 27 m 1
 56 27 l 1
 56 25 l 1
 57 25 l 1
 57 26 l 1
 58 26 l 1
 58 27 l 1
63 31 m 1
 61 31 l 1
 61 29 l 1
 63 29 l 1
 63 31 l 1
60 27 m 1
 59 27 l 1
 59 26 l 1
 58 26 l 1
 58 25 l 1
 60 25 l 1
 60 27 l 1
63 27 m 1
 61 27 l 1
 61 25 l 1
 63 25 l 1
 63 27 l 1
EndSplineSet
EndChar

StartChar: custom_5_5_0_4_1
Encoding: 36509 36509 16541
Width: 70
Flags: H
LayerCount: 2
Fore
SplineSet
23 43 m 1
 21 43 l 1
 21 41 l 1
 23 41 l 1
 23 43 l 1
26 43 m 1
 24 43 l 1
 24 41 l 1
 25 41 l 1
 25 42 l 1
 26 42 l 1
 26 43 l 1
23 35 m 1
 21 35 l 1
 21 33 l 1
 23 33 l 1
 23 35 l 1
25 35 m 1
 24 35 l 1
 24 33 l 1
 26 33 l 1
 26 34 l 1
 25 34 l 1
 25 35 l 1
28 43 m 1
 27 43 l 1
 27 42 l 1
 26 42 l 1
 26 41 l 1
 28 41 l 1
 28 43 l 1
31 43 m 1
 29 43 l 1
 29 41 l 1
 31 41 l 1
 31 43 l 1
41 43 m 1
 39 43 l 1
 39 41 l 1
 41 41 l 1
 41 43 l 1
31 39 m 1
 29 39 l 1
 29 37 l 1
 31 37 l 1
 31 39 l 1
28 35 m 1
 26 35 l 1
 26 34 l 1
 27 34 l 1
 27 33 l 1
 28 33 l 1
 28 35 l 1
31 35 m 1
 29 35 l 1
 29 33 l 1
 31 33 l 1
 31 35 l 1
41 39 m 1
 39 39 l 1
 39 37 l 1
 41 37 l 1
 41 39 l 1
36 37 m 1
 34 37 l 1
 34 35 l 1
 36 35 l 1
 36 37 l 1
41 35 m 1
 39 35 l 1
 39 33 l 1
 41 33 l 1
 41 35 l 1
44 43 m 1
 42 43 l 1
 42 41 l 1
 43 41 l 1
 43 42 l 1
 44 42 l 1
 44 43 l 1
46 43 m 1
 45 43 l 1
 45 42 l 1
 44 42 l 1
 44 41 l 1
 46 41 l 1
 46 43 l 1
49 43 m 1
 47 43 l 1
 47 41 l 1
 49 41 l 1
 49 43 l 1
55 43 m 1
 53 43 l 1
 53 41 l 1
 55 41 l 1
 55 43 l 1
58 43 m 1
 56 43 l 1
 56 41 l 1
 57 41 l 1
 57 42 l 1
 58 42 l 1
 58 43 l 1
43 35 m 1
 42 35 l 1
 42 33 l 1
 44 33 l 1
 44 34 l 1
 43 34 l 1
 43 35 l 1
46 35 m 1
 44 35 l 1
 44 34 l 1
 45 34 l 1
 45 33 l 1
 46 33 l 1
 46 35 l 1
49 35 m 1
 47 35 l 1
 47 33 l 1
 49 33 l 1
 49 35 l 1
55 39 m 1
 53 39 l 1
 53 37 l 1
 55 37 l 1
 55 39 l 1
55 35 m 1
 53 35 l 1
 53 33 l 1
 55 33 l 1
 55 35 l 1
57 35 m 1
 56 35 l 1
 56 33 l 1
 58 33 l 1
 58 34 l 1
 57 34 l 1
 57 35 l 1
60 43 m 1
 59 43 l 1
 59 42 l 1
 58 42 l 1
 58 41 l 1
 60 41 l 1
 60 43 l 1
63 43 m 1
 61 43 l 1
 61 41 l 1
 63 41 l 1
 63 43 l 1
60 35 m 1
 58 35 l 1
 58 34 l 1
 59 34 l 1
 59 33 l 1
 60 33 l 1
 60 35 l 1
63 35 m 1
 61 35 l 1
 61 33 l 1
 63 33 l 1
 63 35 l 1
23 27 m 1
 21 27 l 1
 21 25 l 1
 23 25 l 1
 23 27 l 1
26 27 m 1
 24 27 l 1
 24 25 l 1
 25 25 l 1
 25 26 l 1
 26 26 l 1
 26 27 l 1
31 31 m 1
 29 31 l 1
 29 29 l 1
 31 29 l 1
 31 31 l 1
28 27 m 1
 27 27 l 1
 27 26 l 1
 26 26 l 1
 26 25 l 1
 28 25 l 1
 28 27 l 1
31 27 m 1
 29 27 l 1
 29 25 l 1
 31 25 l 1
 31 27 l 1
36 33 m 1
 34 33 l 1
 34 31 l 1
 36 31 l 1
 36 33 l 1
41 27 m 1
 39 27 l 1
 39 25 l 1
 41 25 l 1
 41 27 l 1
49 31 m 1
 47 31 l 1
 47 29 l 1
 49 29 l 1
 49 31 l 1
44 27 m 1
 42 27 l 1
 42 25 l 1
 43 25 l 1
 43 26 l 1
 44 26 l 1
 44 27 l 1
46 27 m 1
 45 27 l 1
 45 26 l 1
 44 26 l 1
 44 25 l 1
 46 25 l 1
 46 27 l 1
49 27 m 1
 47 27 l 1
 47 25 l 1
 49 25 l 1
 49 27 l 1
55 27 m 1
 53 27 l 1
 53 25 l 1
 55 25 l 1
 55 27 l 1
58 27 m 1
 56 27 l 1
 56 25 l 1
 57 25 l 1
 57 26 l 1
 58 26 l 1
 58 27 l 1
63 31 m 1
 61 31 l 1
 61 29 l 1
 63 29 l 1
 63 31 l 1
60 27 m 1
 59 27 l 1
 59 26 l 1
 58 26 l 1
 58 25 l 1
 60 25 l 1
 60 27 l 1
63 27 m 1
 61 27 l 1
 61 25 l 1
 63 25 l 1
 63 27 l 1
EndSplineSet
EndChar

StartChar: custom_5_5_0_4_2
Encoding: 36510 36510 16542
Width: 70
Flags: H
LayerCount: 2
Fore
SplineSet
23 43 m 1
 21 43 l 1
 21 41 l 1
 23 41 l 1
 23 43 l 1
26 43 m 1
 24 43 l 1
 24 41 l 1
 25 41 l 1
 25 42 l 1
 26 42 l 1
 26 43 l 1
23 35 m 1
 21 35 l 1
 21 33 l 1
 23 33 l 1
 23 35 l 1
25 35 m 1
 24 35 l 1
 24 33 l 1
 26 33 l 1
 26 34 l 1
 25 34 l 1
 25 35 l 1
28 43 m 1
 27 43 l 1
 27 42 l 1
 26 42 l 1
 26 41 l 1
 28 41 l 1
 28 43 l 1
31 43 m 1
 29 43 l 1
 29 41 l 1
 31 41 l 1
 31 43 l 1
41 43 m 1
 39 43 l 1
 39 41 l 1
 41 41 l 1
 41 43 l 1
31 39 m 1
 29 39 l 1
 29 37 l 1
 31 37 l 1
 31 39 l 1
28 35 m 1
 26 35 l 1
 26 34 l 1
 27 34 l 1
 27 33 l 1
 28 33 l 1
 28 35 l 1
31 35 m 1
 29 35 l 1
 29 33 l 1
 31 33 l 1
 31 35 l 1
41 39 m 1
 39 39 l 1
 39 37 l 1
 41 37 l 1
 41 39 l 1
36 37 m 1
 34 37 l 1
 34 35 l 1
 36 35 l 1
 36 37 l 1
41 35 m 1
 39 35 l 1
 39 33 l 1
 41 33 l 1
 41 35 l 1
44 43 m 1
 42 43 l 1
 42 41 l 1
 43 41 l 1
 43 42 l 1
 44 42 l 1
 44 43 l 1
46 43 m 1
 45 43 l 1
 45 42 l 1
 44 42 l 1
 44 41 l 1
 46 41 l 1
 46 43 l 1
49 43 m 1
 47 43 l 1
 47 41 l 1
 49 41 l 1
 49 43 l 1
55 43 m 1
 53 43 l 1
 53 41 l 1
 55 41 l 1
 55 43 l 1
58 43 m 1
 56 43 l 1
 56 41 l 1
 57 41 l 1
 57 42 l 1
 58 42 l 1
 58 43 l 1
43 35 m 1
 42 35 l 1
 42 33 l 1
 44 33 l 1
 44 34 l 1
 43 34 l 1
 43 35 l 1
46 35 m 1
 44 35 l 1
 44 34 l 1
 45 34 l 1
 45 33 l 1
 46 33 l 1
 46 35 l 1
49 35 m 1
 47 35 l 1
 47 33 l 1
 49 33 l 1
 49 35 l 1
55 39 m 1
 53 39 l 1
 53 37 l 1
 55 37 l 1
 55 39 l 1
55 35 m 1
 53 35 l 1
 53 33 l 1
 55 33 l 1
 55 35 l 1
57 35 m 1
 56 35 l 1
 56 33 l 1
 58 33 l 1
 58 34 l 1
 57 34 l 1
 57 35 l 1
60 43 m 1
 59 43 l 1
 59 42 l 1
 58 42 l 1
 58 41 l 1
 60 41 l 1
 60 43 l 1
63 43 m 1
 61 43 l 1
 61 41 l 1
 63 41 l 1
 63 43 l 1
60 35 m 1
 58 35 l 1
 58 34 l 1
 59 34 l 1
 59 33 l 1
 60 33 l 1
 60 35 l 1
63 35 m 1
 61 35 l 1
 61 33 l 1
 63 33 l 1
 63 35 l 1
23 27 m 1
 21 27 l 1
 21 25 l 1
 23 25 l 1
 23 27 l 1
26 27 m 1
 24 27 l 1
 24 25 l 1
 25 25 l 1
 25 26 l 1
 26 26 l 1
 26 27 l 1
31 31 m 1
 29 31 l 1
 29 29 l 1
 31 29 l 1
 31 31 l 1
28 27 m 1
 27 27 l 1
 27 26 l 1
 26 26 l 1
 26 25 l 1
 28 25 l 1
 28 27 l 1
31 27 m 1
 29 27 l 1
 29 25 l 1
 31 25 l 1
 31 27 l 1
36 33 m 1
 34 33 l 1
 34 31 l 1
 36 31 l 1
 36 33 l 1
41 27 m 1
 39 27 l 1
 39 25 l 1
 41 25 l 1
 41 27 l 1
49 31 m 1
 47 31 l 1
 47 29 l 1
 49 29 l 1
 49 31 l 1
44 27 m 1
 42 27 l 1
 42 25 l 1
 43 25 l 1
 43 26 l 1
 44 26 l 1
 44 27 l 1
46 27 m 1
 45 27 l 1
 45 26 l 1
 44 26 l 1
 44 25 l 1
 46 25 l 1
 46 27 l 1
49 27 m 1
 47 27 l 1
 47 25 l 1
 49 25 l 1
 49 27 l 1
55 27 m 1
 53 27 l 1
 53 25 l 1
 55 25 l 1
 55 27 l 1
58 27 m 1
 56 27 l 1
 56 25 l 1
 57 25 l 1
 57 26 l 1
 58 26 l 1
 58 27 l 1
63 31 m 1
 61 31 l 1
 61 29 l 1
 63 29 l 1
 63 31 l 1
60 27 m 1
 59 27 l 1
 59 26 l 1
 58 26 l 1
 58 25 l 1
 60 25 l 1
 60 27 l 1
63 27 m 1
 61 27 l 1
 61 25 l 1
 63 25 l 1
 63 27 l 1
EndSplineSet
EndChar

StartChar: custom_5_5_0_4_3
Encoding: 36511 36511 16543
Width: 70
Flags: H
LayerCount: 2
Fore
SplineSet
23 43 m 1
 21 43 l 1
 21 41 l 1
 23 41 l 1
 23 43 l 1
26 43 m 1
 24 43 l 1
 24 41 l 1
 25 41 l 1
 25 42 l 1
 26 42 l 1
 26 43 l 1
23 35 m 1
 21 35 l 1
 21 33 l 1
 23 33 l 1
 23 35 l 1
25 35 m 1
 24 35 l 1
 24 33 l 1
 26 33 l 1
 26 34 l 1
 25 34 l 1
 25 35 l 1
28 43 m 1
 27 43 l 1
 27 42 l 1
 26 42 l 1
 26 41 l 1
 28 41 l 1
 28 43 l 1
31 43 m 1
 29 43 l 1
 29 41 l 1
 31 41 l 1
 31 43 l 1
41 43 m 1
 39 43 l 1
 39 41 l 1
 41 41 l 1
 41 43 l 1
31 39 m 1
 29 39 l 1
 29 37 l 1
 31 37 l 1
 31 39 l 1
28 35 m 1
 26 35 l 1
 26 34 l 1
 27 34 l 1
 27 33 l 1
 28 33 l 1
 28 35 l 1
31 35 m 1
 29 35 l 1
 29 33 l 1
 31 33 l 1
 31 35 l 1
41 39 m 1
 39 39 l 1
 39 37 l 1
 41 37 l 1
 41 39 l 1
36 37 m 1
 34 37 l 1
 34 35 l 1
 36 35 l 1
 36 37 l 1
41 35 m 1
 39 35 l 1
 39 33 l 1
 41 33 l 1
 41 35 l 1
44 43 m 1
 42 43 l 1
 42 41 l 1
 43 41 l 1
 43 42 l 1
 44 42 l 1
 44 43 l 1
46 43 m 1
 45 43 l 1
 45 42 l 1
 44 42 l 1
 44 41 l 1
 46 41 l 1
 46 43 l 1
49 43 m 1
 47 43 l 1
 47 41 l 1
 49 41 l 1
 49 43 l 1
55 43 m 1
 53 43 l 1
 53 41 l 1
 55 41 l 1
 55 43 l 1
58 43 m 1
 56 43 l 1
 56 41 l 1
 57 41 l 1
 57 42 l 1
 58 42 l 1
 58 43 l 1
43 35 m 1
 42 35 l 1
 42 33 l 1
 44 33 l 1
 44 34 l 1
 43 34 l 1
 43 35 l 1
46 35 m 1
 44 35 l 1
 44 34 l 1
 45 34 l 1
 45 33 l 1
 46 33 l 1
 46 35 l 1
49 35 m 1
 47 35 l 1
 47 33 l 1
 49 33 l 1
 49 35 l 1
55 39 m 1
 53 39 l 1
 53 37 l 1
 55 37 l 1
 55 39 l 1
55 35 m 1
 53 35 l 1
 53 33 l 1
 55 33 l 1
 55 35 l 1
57 35 m 1
 56 35 l 1
 56 33 l 1
 58 33 l 1
 58 34 l 1
 57 34 l 1
 57 35 l 1
60 43 m 1
 59 43 l 1
 59 42 l 1
 58 42 l 1
 58 41 l 1
 60 41 l 1
 60 43 l 1
63 43 m 1
 61 43 l 1
 61 41 l 1
 63 41 l 1
 63 43 l 1
60 35 m 1
 58 35 l 1
 58 34 l 1
 59 34 l 1
 59 33 l 1
 60 33 l 1
 60 35 l 1
63 35 m 1
 61 35 l 1
 61 33 l 1
 63 33 l 1
 63 35 l 1
23 27 m 1
 21 27 l 1
 21 25 l 1
 23 25 l 1
 23 27 l 1
26 27 m 1
 24 27 l 1
 24 25 l 1
 25 25 l 1
 25 26 l 1
 26 26 l 1
 26 27 l 1
31 31 m 1
 29 31 l 1
 29 29 l 1
 31 29 l 1
 31 31 l 1
28 27 m 1
 27 27 l 1
 27 26 l 1
 26 26 l 1
 26 25 l 1
 28 25 l 1
 28 27 l 1
31 27 m 1
 29 27 l 1
 29 25 l 1
 31 25 l 1
 31 27 l 1
36 33 m 1
 34 33 l 1
 34 31 l 1
 36 31 l 1
 36 33 l 1
41 27 m 1
 39 27 l 1
 39 25 l 1
 41 25 l 1
 41 27 l 1
49 31 m 1
 47 31 l 1
 47 29 l 1
 49 29 l 1
 49 31 l 1
44 27 m 1
 42 27 l 1
 42 25 l 1
 43 25 l 1
 43 26 l 1
 44 26 l 1
 44 27 l 1
46 27 m 1
 45 27 l 1
 45 26 l 1
 44 26 l 1
 44 25 l 1
 46 25 l 1
 46 27 l 1
49 27 m 1
 47 27 l 1
 47 25 l 1
 49 25 l 1
 49 27 l 1
55 27 m 1
 53 27 l 1
 53 25 l 1
 55 25 l 1
 55 27 l 1
58 27 m 1
 56 27 l 1
 56 25 l 1
 57 25 l 1
 57 26 l 1
 58 26 l 1
 58 27 l 1
63 31 m 1
 61 31 l 1
 61 29 l 1
 63 29 l 1
 63 31 l 1
60 27 m 1
 59 27 l 1
 59 26 l 1
 58 26 l 1
 58 25 l 1
 60 25 l 1
 60 27 l 1
63 27 m 1
 61 27 l 1
 61 25 l 1
 63 25 l 1
 63 27 l 1
EndSplineSet
EndChar

StartChar: custom_5_5_0_4_4
Encoding: 36512 36512 16544
Width: 70
Flags: H
LayerCount: 2
Fore
SplineSet
23 43 m 1
 21 43 l 1
 21 41 l 1
 23 41 l 1
 23 43 l 1
26 43 m 1
 24 43 l 1
 24 41 l 1
 25 41 l 1
 25 42 l 1
 26 42 l 1
 26 43 l 1
23 35 m 1
 21 35 l 1
 21 33 l 1
 23 33 l 1
 23 35 l 1
25 35 m 1
 24 35 l 1
 24 33 l 1
 26 33 l 1
 26 34 l 1
 25 34 l 1
 25 35 l 1
28 43 m 1
 27 43 l 1
 27 42 l 1
 26 42 l 1
 26 41 l 1
 28 41 l 1
 28 43 l 1
31 43 m 1
 29 43 l 1
 29 41 l 1
 31 41 l 1
 31 43 l 1
41 43 m 1
 39 43 l 1
 39 41 l 1
 41 41 l 1
 41 43 l 1
31 39 m 1
 29 39 l 1
 29 37 l 1
 31 37 l 1
 31 39 l 1
28 35 m 1
 26 35 l 1
 26 34 l 1
 27 34 l 1
 27 33 l 1
 28 33 l 1
 28 35 l 1
31 35 m 1
 29 35 l 1
 29 33 l 1
 31 33 l 1
 31 35 l 1
41 39 m 1
 39 39 l 1
 39 37 l 1
 41 37 l 1
 41 39 l 1
36 37 m 1
 34 37 l 1
 34 35 l 1
 36 35 l 1
 36 37 l 1
41 35 m 1
 39 35 l 1
 39 33 l 1
 41 33 l 1
 41 35 l 1
44 43 m 1
 42 43 l 1
 42 41 l 1
 43 41 l 1
 43 42 l 1
 44 42 l 1
 44 43 l 1
46 43 m 1
 45 43 l 1
 45 42 l 1
 44 42 l 1
 44 41 l 1
 46 41 l 1
 46 43 l 1
49 43 m 1
 47 43 l 1
 47 41 l 1
 49 41 l 1
 49 43 l 1
55 43 m 1
 53 43 l 1
 53 41 l 1
 55 41 l 1
 55 43 l 1
58 43 m 1
 56 43 l 1
 56 41 l 1
 57 41 l 1
 57 42 l 1
 58 42 l 1
 58 43 l 1
43 35 m 1
 42 35 l 1
 42 33 l 1
 44 33 l 1
 44 34 l 1
 43 34 l 1
 43 35 l 1
46 35 m 1
 44 35 l 1
 44 34 l 1
 45 34 l 1
 45 33 l 1
 46 33 l 1
 46 35 l 1
49 35 m 1
 47 35 l 1
 47 33 l 1
 49 33 l 1
 49 35 l 1
55 39 m 1
 53 39 l 1
 53 37 l 1
 55 37 l 1
 55 39 l 1
55 35 m 1
 53 35 l 1
 53 33 l 1
 55 33 l 1
 55 35 l 1
57 35 m 1
 56 35 l 1
 56 33 l 1
 58 33 l 1
 58 34 l 1
 57 34 l 1
 57 35 l 1
60 43 m 1
 59 43 l 1
 59 42 l 1
 58 42 l 1
 58 41 l 1
 60 41 l 1
 60 43 l 1
63 43 m 1
 61 43 l 1
 61 41 l 1
 63 41 l 1
 63 43 l 1
60 35 m 1
 58 35 l 1
 58 34 l 1
 59 34 l 1
 59 33 l 1
 60 33 l 1
 60 35 l 1
63 35 m 1
 61 35 l 1
 61 33 l 1
 63 33 l 1
 63 35 l 1
23 27 m 1
 21 27 l 1
 21 25 l 1
 23 25 l 1
 23 27 l 1
26 27 m 1
 24 27 l 1
 24 25 l 1
 25 25 l 1
 25 26 l 1
 26 26 l 1
 26 27 l 1
31 31 m 1
 29 31 l 1
 29 29 l 1
 31 29 l 1
 31 31 l 1
28 27 m 1
 27 27 l 1
 27 26 l 1
 26 26 l 1
 26 25 l 1
 28 25 l 1
 28 27 l 1
31 27 m 1
 29 27 l 1
 29 25 l 1
 31 25 l 1
 31 27 l 1
36 33 m 1
 34 33 l 1
 34 31 l 1
 36 31 l 1
 36 33 l 1
41 27 m 1
 39 27 l 1
 39 25 l 1
 41 25 l 1
 41 27 l 1
49 31 m 1
 47 31 l 1
 47 29 l 1
 49 29 l 1
 49 31 l 1
44 27 m 1
 42 27 l 1
 42 25 l 1
 43 25 l 1
 43 26 l 1
 44 26 l 1
 44 27 l 1
46 27 m 1
 45 27 l 1
 45 26 l 1
 44 26 l 1
 44 25 l 1
 46 25 l 1
 46 27 l 1
49 27 m 1
 47 27 l 1
 47 25 l 1
 49 25 l 1
 49 27 l 1
55 27 m 1
 53 27 l 1
 53 25 l 1
 55 25 l 1
 55 27 l 1
58 27 m 1
 56 27 l 1
 56 25 l 1
 57 25 l 1
 57 26 l 1
 58 26 l 1
 58 27 l 1
63 31 m 1
 61 31 l 1
 61 29 l 1
 63 29 l 1
 63 31 l 1
60 27 m 1
 59 27 l 1
 59 26 l 1
 58 26 l 1
 58 25 l 1
 60 25 l 1
 60 27 l 1
63 27 m 1
 61 27 l 1
 61 25 l 1
 63 25 l 1
 63 27 l 1
EndSplineSet
EndChar

StartChar: custom_5_5_0_4_5
Encoding: 36513 36513 16545
Width: 70
Flags: H
LayerCount: 2
Fore
SplineSet
23 43 m 1
 21 43 l 1
 21 41 l 1
 23 41 l 1
 23 43 l 1
26 43 m 1
 24 43 l 1
 24 41 l 1
 25 41 l 1
 25 42 l 1
 26 42 l 1
 26 43 l 1
23 35 m 1
 21 35 l 1
 21 33 l 1
 23 33 l 1
 23 35 l 1
25 35 m 1
 24 35 l 1
 24 33 l 1
 26 33 l 1
 26 34 l 1
 25 34 l 1
 25 35 l 1
28 43 m 1
 27 43 l 1
 27 42 l 1
 26 42 l 1
 26 41 l 1
 28 41 l 1
 28 43 l 1
31 43 m 1
 29 43 l 1
 29 41 l 1
 31 41 l 1
 31 43 l 1
41 43 m 1
 39 43 l 1
 39 41 l 1
 41 41 l 1
 41 43 l 1
31 39 m 1
 29 39 l 1
 29 37 l 1
 31 37 l 1
 31 39 l 1
28 35 m 1
 26 35 l 1
 26 34 l 1
 27 34 l 1
 27 33 l 1
 28 33 l 1
 28 35 l 1
31 35 m 1
 29 35 l 1
 29 33 l 1
 31 33 l 1
 31 35 l 1
41 39 m 1
 39 39 l 1
 39 37 l 1
 41 37 l 1
 41 39 l 1
36 37 m 1
 34 37 l 1
 34 35 l 1
 36 35 l 1
 36 37 l 1
41 35 m 1
 39 35 l 1
 39 33 l 1
 41 33 l 1
 41 35 l 1
44 43 m 1
 42 43 l 1
 42 41 l 1
 43 41 l 1
 43 42 l 1
 44 42 l 1
 44 43 l 1
46 43 m 1
 45 43 l 1
 45 42 l 1
 44 42 l 1
 44 41 l 1
 46 41 l 1
 46 43 l 1
49 43 m 1
 47 43 l 1
 47 41 l 1
 49 41 l 1
 49 43 l 1
55 43 m 1
 53 43 l 1
 53 41 l 1
 55 41 l 1
 55 43 l 1
58 43 m 1
 56 43 l 1
 56 41 l 1
 57 41 l 1
 57 42 l 1
 58 42 l 1
 58 43 l 1
43 35 m 1
 42 35 l 1
 42 33 l 1
 44 33 l 1
 44 34 l 1
 43 34 l 1
 43 35 l 1
46 35 m 1
 44 35 l 1
 44 34 l 1
 45 34 l 1
 45 33 l 1
 46 33 l 1
 46 35 l 1
49 35 m 1
 47 35 l 1
 47 33 l 1
 49 33 l 1
 49 35 l 1
55 39 m 1
 53 39 l 1
 53 37 l 1
 55 37 l 1
 55 39 l 1
55 35 m 1
 53 35 l 1
 53 33 l 1
 55 33 l 1
 55 35 l 1
57 35 m 1
 56 35 l 1
 56 33 l 1
 58 33 l 1
 58 34 l 1
 57 34 l 1
 57 35 l 1
60 43 m 1
 59 43 l 1
 59 42 l 1
 58 42 l 1
 58 41 l 1
 60 41 l 1
 60 43 l 1
63 43 m 1
 61 43 l 1
 61 41 l 1
 63 41 l 1
 63 43 l 1
60 35 m 1
 58 35 l 1
 58 34 l 1
 59 34 l 1
 59 33 l 1
 60 33 l 1
 60 35 l 1
63 35 m 1
 61 35 l 1
 61 33 l 1
 63 33 l 1
 63 35 l 1
23 27 m 1
 21 27 l 1
 21 25 l 1
 23 25 l 1
 23 27 l 1
26 27 m 1
 24 27 l 1
 24 25 l 1
 25 25 l 1
 25 26 l 1
 26 26 l 1
 26 27 l 1
31 31 m 1
 29 31 l 1
 29 29 l 1
 31 29 l 1
 31 31 l 1
28 27 m 1
 27 27 l 1
 27 26 l 1
 26 26 l 1
 26 25 l 1
 28 25 l 1
 28 27 l 1
31 27 m 1
 29 27 l 1
 29 25 l 1
 31 25 l 1
 31 27 l 1
36 33 m 1
 34 33 l 1
 34 31 l 1
 36 31 l 1
 36 33 l 1
41 27 m 1
 39 27 l 1
 39 25 l 1
 41 25 l 1
 41 27 l 1
49 31 m 1
 47 31 l 1
 47 29 l 1
 49 29 l 1
 49 31 l 1
44 27 m 1
 42 27 l 1
 42 25 l 1
 43 25 l 1
 43 26 l 1
 44 26 l 1
 44 27 l 1
46 27 m 1
 45 27 l 1
 45 26 l 1
 44 26 l 1
 44 25 l 1
 46 25 l 1
 46 27 l 1
49 27 m 1
 47 27 l 1
 47 25 l 1
 49 25 l 1
 49 27 l 1
55 27 m 1
 53 27 l 1
 53 25 l 1
 55 25 l 1
 55 27 l 1
58 27 m 1
 56 27 l 1
 56 25 l 1
 57 25 l 1
 57 26 l 1
 58 26 l 1
 58 27 l 1
63 31 m 1
 61 31 l 1
 61 29 l 1
 63 29 l 1
 63 31 l 1
60 27 m 1
 59 27 l 1
 59 26 l 1
 58 26 l 1
 58 25 l 1
 60 25 l 1
 60 27 l 1
63 27 m 1
 61 27 l 1
 61 25 l 1
 63 25 l 1
 63 27 l 1
EndSplineSet
EndChar

StartChar: custom_5_5_0_4_6
Encoding: 36514 36514 16546
Width: 70
Flags: H
LayerCount: 2
Fore
SplineSet
23 43 m 1
 21 43 l 1
 21 41 l 1
 23 41 l 1
 23 43 l 1
26 43 m 1
 24 43 l 1
 24 41 l 1
 25 41 l 1
 25 42 l 1
 26 42 l 1
 26 43 l 1
23 35 m 1
 21 35 l 1
 21 33 l 1
 23 33 l 1
 23 35 l 1
25 35 m 1
 24 35 l 1
 24 33 l 1
 26 33 l 1
 26 34 l 1
 25 34 l 1
 25 35 l 1
28 43 m 1
 27 43 l 1
 27 42 l 1
 26 42 l 1
 26 41 l 1
 28 41 l 1
 28 43 l 1
31 43 m 1
 29 43 l 1
 29 41 l 1
 31 41 l 1
 31 43 l 1
41 43 m 1
 39 43 l 1
 39 41 l 1
 41 41 l 1
 41 43 l 1
31 39 m 1
 29 39 l 1
 29 37 l 1
 31 37 l 1
 31 39 l 1
28 35 m 1
 26 35 l 1
 26 34 l 1
 27 34 l 1
 27 33 l 1
 28 33 l 1
 28 35 l 1
31 35 m 1
 29 35 l 1
 29 33 l 1
 31 33 l 1
 31 35 l 1
41 39 m 1
 39 39 l 1
 39 37 l 1
 41 37 l 1
 41 39 l 1
36 37 m 1
 34 37 l 1
 34 35 l 1
 36 35 l 1
 36 37 l 1
41 35 m 1
 39 35 l 1
 39 33 l 1
 41 33 l 1
 41 35 l 1
44 43 m 1
 42 43 l 1
 42 41 l 1
 43 41 l 1
 43 42 l 1
 44 42 l 1
 44 43 l 1
46 43 m 1
 45 43 l 1
 45 42 l 1
 44 42 l 1
 44 41 l 1
 46 41 l 1
 46 43 l 1
49 43 m 1
 47 43 l 1
 47 41 l 1
 49 41 l 1
 49 43 l 1
55 43 m 1
 53 43 l 1
 53 41 l 1
 55 41 l 1
 55 43 l 1
58 43 m 1
 56 43 l 1
 56 41 l 1
 57 41 l 1
 57 42 l 1
 58 42 l 1
 58 43 l 1
43 35 m 1
 42 35 l 1
 42 33 l 1
 44 33 l 1
 44 34 l 1
 43 34 l 1
 43 35 l 1
46 35 m 1
 44 35 l 1
 44 34 l 1
 45 34 l 1
 45 33 l 1
 46 33 l 1
 46 35 l 1
49 35 m 1
 47 35 l 1
 47 33 l 1
 49 33 l 1
 49 35 l 1
55 39 m 1
 53 39 l 1
 53 37 l 1
 55 37 l 1
 55 39 l 1
55 35 m 1
 53 35 l 1
 53 33 l 1
 55 33 l 1
 55 35 l 1
57 35 m 1
 56 35 l 1
 56 33 l 1
 58 33 l 1
 58 34 l 1
 57 34 l 1
 57 35 l 1
60 43 m 1
 59 43 l 1
 59 42 l 1
 58 42 l 1
 58 41 l 1
 60 41 l 1
 60 43 l 1
63 43 m 1
 61 43 l 1
 61 41 l 1
 63 41 l 1
 63 43 l 1
60 35 m 1
 58 35 l 1
 58 34 l 1
 59 34 l 1
 59 33 l 1
 60 33 l 1
 60 35 l 1
63 35 m 1
 61 35 l 1
 61 33 l 1
 63 33 l 1
 63 35 l 1
23 27 m 1
 21 27 l 1
 21 25 l 1
 23 25 l 1
 23 27 l 1
26 27 m 1
 24 27 l 1
 24 25 l 1
 25 25 l 1
 25 26 l 1
 26 26 l 1
 26 27 l 1
31 31 m 1
 29 31 l 1
 29 29 l 1
 31 29 l 1
 31 31 l 1
28 27 m 1
 27 27 l 1
 27 26 l 1
 26 26 l 1
 26 25 l 1
 28 25 l 1
 28 27 l 1
31 27 m 1
 29 27 l 1
 29 25 l 1
 31 25 l 1
 31 27 l 1
36 33 m 1
 34 33 l 1
 34 31 l 1
 36 31 l 1
 36 33 l 1
41 27 m 1
 39 27 l 1
 39 25 l 1
 41 25 l 1
 41 27 l 1
49 31 m 1
 47 31 l 1
 47 29 l 1
 49 29 l 1
 49 31 l 1
44 27 m 1
 42 27 l 1
 42 25 l 1
 43 25 l 1
 43 26 l 1
 44 26 l 1
 44 27 l 1
46 27 m 1
 45 27 l 1
 45 26 l 1
 44 26 l 1
 44 25 l 1
 46 25 l 1
 46 27 l 1
49 27 m 1
 47 27 l 1
 47 25 l 1
 49 25 l 1
 49 27 l 1
55 27 m 1
 53 27 l 1
 53 25 l 1
 55 25 l 1
 55 27 l 1
58 27 m 1
 56 27 l 1
 56 25 l 1
 57 25 l 1
 57 26 l 1
 58 26 l 1
 58 27 l 1
63 31 m 1
 61 31 l 1
 61 29 l 1
 63 29 l 1
 63 31 l 1
60 27 m 1
 59 27 l 1
 59 26 l 1
 58 26 l 1
 58 25 l 1
 60 25 l 1
 60 27 l 1
63 27 m 1
 61 27 l 1
 61 25 l 1
 63 25 l 1
 63 27 l 1
EndSplineSet
EndChar

StartChar: custom_5_5_0_4_7
Encoding: 36515 36515 16547
Width: 70
Flags: H
LayerCount: 2
Fore
SplineSet
23 43 m 1
 21 43 l 1
 21 41 l 1
 23 41 l 1
 23 43 l 1
26 43 m 1
 24 43 l 1
 24 41 l 1
 25 41 l 1
 25 42 l 1
 26 42 l 1
 26 43 l 1
23 35 m 1
 21 35 l 1
 21 33 l 1
 23 33 l 1
 23 35 l 1
25 35 m 1
 24 35 l 1
 24 33 l 1
 26 33 l 1
 26 34 l 1
 25 34 l 1
 25 35 l 1
28 43 m 1
 27 43 l 1
 27 42 l 1
 26 42 l 1
 26 41 l 1
 28 41 l 1
 28 43 l 1
31 43 m 1
 29 43 l 1
 29 41 l 1
 31 41 l 1
 31 43 l 1
41 43 m 1
 39 43 l 1
 39 41 l 1
 41 41 l 1
 41 43 l 1
31 39 m 1
 29 39 l 1
 29 37 l 1
 31 37 l 1
 31 39 l 1
28 35 m 1
 26 35 l 1
 26 34 l 1
 27 34 l 1
 27 33 l 1
 28 33 l 1
 28 35 l 1
31 35 m 1
 29 35 l 1
 29 33 l 1
 31 33 l 1
 31 35 l 1
41 39 m 1
 39 39 l 1
 39 37 l 1
 41 37 l 1
 41 39 l 1
36 37 m 1
 34 37 l 1
 34 35 l 1
 36 35 l 1
 36 37 l 1
41 35 m 1
 39 35 l 1
 39 33 l 1
 41 33 l 1
 41 35 l 1
44 43 m 1
 42 43 l 1
 42 41 l 1
 43 41 l 1
 43 42 l 1
 44 42 l 1
 44 43 l 1
46 43 m 1
 45 43 l 1
 45 42 l 1
 44 42 l 1
 44 41 l 1
 46 41 l 1
 46 43 l 1
49 43 m 1
 47 43 l 1
 47 41 l 1
 49 41 l 1
 49 43 l 1
55 43 m 1
 53 43 l 1
 53 41 l 1
 55 41 l 1
 55 43 l 1
58 43 m 1
 56 43 l 1
 56 41 l 1
 57 41 l 1
 57 42 l 1
 58 42 l 1
 58 43 l 1
43 35 m 1
 42 35 l 1
 42 33 l 1
 44 33 l 1
 44 34 l 1
 43 34 l 1
 43 35 l 1
46 35 m 1
 44 35 l 1
 44 34 l 1
 45 34 l 1
 45 33 l 1
 46 33 l 1
 46 35 l 1
49 35 m 1
 47 35 l 1
 47 33 l 1
 49 33 l 1
 49 35 l 1
55 39 m 1
 53 39 l 1
 53 37 l 1
 55 37 l 1
 55 39 l 1
55 35 m 1
 53 35 l 1
 53 33 l 1
 55 33 l 1
 55 35 l 1
57 35 m 1
 56 35 l 1
 56 33 l 1
 58 33 l 1
 58 34 l 1
 57 34 l 1
 57 35 l 1
60 43 m 1
 59 43 l 1
 59 42 l 1
 58 42 l 1
 58 41 l 1
 60 41 l 1
 60 43 l 1
63 43 m 1
 61 43 l 1
 61 41 l 1
 63 41 l 1
 63 43 l 1
60 35 m 1
 58 35 l 1
 58 34 l 1
 59 34 l 1
 59 33 l 1
 60 33 l 1
 60 35 l 1
63 35 m 1
 61 35 l 1
 61 33 l 1
 63 33 l 1
 63 35 l 1
23 27 m 1
 21 27 l 1
 21 25 l 1
 23 25 l 1
 23 27 l 1
26 27 m 1
 24 27 l 1
 24 25 l 1
 25 25 l 1
 25 26 l 1
 26 26 l 1
 26 27 l 1
31 31 m 1
 29 31 l 1
 29 29 l 1
 31 29 l 1
 31 31 l 1
28 27 m 1
 27 27 l 1
 27 26 l 1
 26 26 l 1
 26 25 l 1
 28 25 l 1
 28 27 l 1
31 27 m 1
 29 27 l 1
 29 25 l 1
 31 25 l 1
 31 27 l 1
36 33 m 1
 34 33 l 1
 34 31 l 1
 36 31 l 1
 36 33 l 1
41 27 m 1
 39 27 l 1
 39 25 l 1
 41 25 l 1
 41 27 l 1
49 31 m 1
 47 31 l 1
 47 29 l 1
 49 29 l 1
 49 31 l 1
44 27 m 1
 42 27 l 1
 42 25 l 1
 43 25 l 1
 43 26 l 1
 44 26 l 1
 44 27 l 1
46 27 m 1
 45 27 l 1
 45 26 l 1
 44 26 l 1
 44 25 l 1
 46 25 l 1
 46 27 l 1
49 27 m 1
 47 27 l 1
 47 25 l 1
 49 25 l 1
 49 27 l 1
55 27 m 1
 53 27 l 1
 53 25 l 1
 55 25 l 1
 55 27 l 1
58 27 m 1
 56 27 l 1
 56 25 l 1
 57 25 l 1
 57 26 l 1
 58 26 l 1
 58 27 l 1
63 31 m 1
 61 31 l 1
 61 29 l 1
 63 29 l 1
 63 31 l 1
60 27 m 1
 59 27 l 1
 59 26 l 1
 58 26 l 1
 58 25 l 1
 60 25 l 1
 60 27 l 1
63 27 m 1
 61 27 l 1
 61 25 l 1
 63 25 l 1
 63 27 l 1
EndSplineSet
EndChar

StartChar: custom_5_5_0_4_8
Encoding: 36516 36516 16548
Width: 70
Flags: H
LayerCount: 2
Fore
SplineSet
23 43 m 1
 21 43 l 1
 21 41 l 1
 23 41 l 1
 23 43 l 1
26 43 m 1
 24 43 l 1
 24 41 l 1
 25 41 l 1
 25 42 l 1
 26 42 l 1
 26 43 l 1
23 35 m 1
 21 35 l 1
 21 33 l 1
 23 33 l 1
 23 35 l 1
25 35 m 1
 24 35 l 1
 24 33 l 1
 26 33 l 1
 26 34 l 1
 25 34 l 1
 25 35 l 1
28 43 m 1
 27 43 l 1
 27 42 l 1
 26 42 l 1
 26 41 l 1
 28 41 l 1
 28 43 l 1
31 43 m 1
 29 43 l 1
 29 41 l 1
 31 41 l 1
 31 43 l 1
41 43 m 1
 39 43 l 1
 39 41 l 1
 41 41 l 1
 41 43 l 1
31 39 m 1
 29 39 l 1
 29 37 l 1
 31 37 l 1
 31 39 l 1
28 35 m 1
 26 35 l 1
 26 34 l 1
 27 34 l 1
 27 33 l 1
 28 33 l 1
 28 35 l 1
31 35 m 1
 29 35 l 1
 29 33 l 1
 31 33 l 1
 31 35 l 1
41 39 m 1
 39 39 l 1
 39 37 l 1
 41 37 l 1
 41 39 l 1
36 37 m 1
 34 37 l 1
 34 35 l 1
 36 35 l 1
 36 37 l 1
41 35 m 1
 39 35 l 1
 39 33 l 1
 41 33 l 1
 41 35 l 1
44 43 m 1
 42 43 l 1
 42 41 l 1
 43 41 l 1
 43 42 l 1
 44 42 l 1
 44 43 l 1
46 43 m 1
 45 43 l 1
 45 42 l 1
 44 42 l 1
 44 41 l 1
 46 41 l 1
 46 43 l 1
49 43 m 1
 47 43 l 1
 47 41 l 1
 49 41 l 1
 49 43 l 1
55 43 m 1
 53 43 l 1
 53 41 l 1
 55 41 l 1
 55 43 l 1
58 43 m 1
 56 43 l 1
 56 41 l 1
 57 41 l 1
 57 42 l 1
 58 42 l 1
 58 43 l 1
43 35 m 1
 42 35 l 1
 42 33 l 1
 44 33 l 1
 44 34 l 1
 43 34 l 1
 43 35 l 1
46 35 m 1
 44 35 l 1
 44 34 l 1
 45 34 l 1
 45 33 l 1
 46 33 l 1
 46 35 l 1
49 35 m 1
 47 35 l 1
 47 33 l 1
 49 33 l 1
 49 35 l 1
55 39 m 1
 53 39 l 1
 53 37 l 1
 55 37 l 1
 55 39 l 1
55 35 m 1
 53 35 l 1
 53 33 l 1
 55 33 l 1
 55 35 l 1
57 35 m 1
 56 35 l 1
 56 33 l 1
 58 33 l 1
 58 34 l 1
 57 34 l 1
 57 35 l 1
60 43 m 1
 59 43 l 1
 59 42 l 1
 58 42 l 1
 58 41 l 1
 60 41 l 1
 60 43 l 1
63 43 m 1
 61 43 l 1
 61 41 l 1
 63 41 l 1
 63 43 l 1
60 35 m 1
 58 35 l 1
 58 34 l 1
 59 34 l 1
 59 33 l 1
 60 33 l 1
 60 35 l 1
63 35 m 1
 61 35 l 1
 61 33 l 1
 63 33 l 1
 63 35 l 1
23 27 m 1
 21 27 l 1
 21 25 l 1
 23 25 l 1
 23 27 l 1
26 27 m 1
 24 27 l 1
 24 25 l 1
 25 25 l 1
 25 26 l 1
 26 26 l 1
 26 27 l 1
31 31 m 1
 29 31 l 1
 29 29 l 1
 31 29 l 1
 31 31 l 1
28 27 m 1
 27 27 l 1
 27 26 l 1
 26 26 l 1
 26 25 l 1
 28 25 l 1
 28 27 l 1
31 27 m 1
 29 27 l 1
 29 25 l 1
 31 25 l 1
 31 27 l 1
36 33 m 1
 34 33 l 1
 34 31 l 1
 36 31 l 1
 36 33 l 1
41 27 m 1
 39 27 l 1
 39 25 l 1
 41 25 l 1
 41 27 l 1
49 31 m 1
 47 31 l 1
 47 29 l 1
 49 29 l 1
 49 31 l 1
44 27 m 1
 42 27 l 1
 42 25 l 1
 43 25 l 1
 43 26 l 1
 44 26 l 1
 44 27 l 1
46 27 m 1
 45 27 l 1
 45 26 l 1
 44 26 l 1
 44 25 l 1
 46 25 l 1
 46 27 l 1
49 27 m 1
 47 27 l 1
 47 25 l 1
 49 25 l 1
 49 27 l 1
55 27 m 1
 53 27 l 1
 53 25 l 1
 55 25 l 1
 55 27 l 1
58 27 m 1
 56 27 l 1
 56 25 l 1
 57 25 l 1
 57 26 l 1
 58 26 l 1
 58 27 l 1
63 31 m 1
 61 31 l 1
 61 29 l 1
 63 29 l 1
 63 31 l 1
60 27 m 1
 59 27 l 1
 59 26 l 1
 58 26 l 1
 58 25 l 1
 60 25 l 1
 60 27 l 1
63 27 m 1
 61 27 l 1
 61 25 l 1
 63 25 l 1
 63 27 l 1
EndSplineSet
EndChar

StartChar: custom_5_5_0_4_9
Encoding: 36517 36517 16549
Width: 70
Flags: H
LayerCount: 2
Fore
SplineSet
23 43 m 1
 21 43 l 1
 21 41 l 1
 23 41 l 1
 23 43 l 1
26 43 m 1
 24 43 l 1
 24 41 l 1
 25 41 l 1
 25 42 l 1
 26 42 l 1
 26 43 l 1
23 35 m 1
 21 35 l 1
 21 33 l 1
 23 33 l 1
 23 35 l 1
25 35 m 1
 24 35 l 1
 24 33 l 1
 26 33 l 1
 26 34 l 1
 25 34 l 1
 25 35 l 1
28 43 m 1
 27 43 l 1
 27 42 l 1
 26 42 l 1
 26 41 l 1
 28 41 l 1
 28 43 l 1
31 43 m 1
 29 43 l 1
 29 41 l 1
 31 41 l 1
 31 43 l 1
41 43 m 1
 39 43 l 1
 39 41 l 1
 41 41 l 1
 41 43 l 1
31 39 m 1
 29 39 l 1
 29 37 l 1
 31 37 l 1
 31 39 l 1
28 35 m 1
 26 35 l 1
 26 34 l 1
 27 34 l 1
 27 33 l 1
 28 33 l 1
 28 35 l 1
31 35 m 1
 29 35 l 1
 29 33 l 1
 31 33 l 1
 31 35 l 1
41 39 m 1
 39 39 l 1
 39 37 l 1
 41 37 l 1
 41 39 l 1
36 37 m 1
 34 37 l 1
 34 35 l 1
 36 35 l 1
 36 37 l 1
41 35 m 1
 39 35 l 1
 39 33 l 1
 41 33 l 1
 41 35 l 1
44 43 m 1
 42 43 l 1
 42 41 l 1
 43 41 l 1
 43 42 l 1
 44 42 l 1
 44 43 l 1
46 43 m 1
 45 43 l 1
 45 42 l 1
 44 42 l 1
 44 41 l 1
 46 41 l 1
 46 43 l 1
49 43 m 1
 47 43 l 1
 47 41 l 1
 49 41 l 1
 49 43 l 1
55 43 m 1
 53 43 l 1
 53 41 l 1
 55 41 l 1
 55 43 l 1
58 43 m 1
 56 43 l 1
 56 41 l 1
 57 41 l 1
 57 42 l 1
 58 42 l 1
 58 43 l 1
43 35 m 1
 42 35 l 1
 42 33 l 1
 44 33 l 1
 44 34 l 1
 43 34 l 1
 43 35 l 1
46 35 m 1
 44 35 l 1
 44 34 l 1
 45 34 l 1
 45 33 l 1
 46 33 l 1
 46 35 l 1
49 35 m 1
 47 35 l 1
 47 33 l 1
 49 33 l 1
 49 35 l 1
55 39 m 1
 53 39 l 1
 53 37 l 1
 55 37 l 1
 55 39 l 1
55 35 m 1
 53 35 l 1
 53 33 l 1
 55 33 l 1
 55 35 l 1
57 35 m 1
 56 35 l 1
 56 33 l 1
 58 33 l 1
 58 34 l 1
 57 34 l 1
 57 35 l 1
60 43 m 1
 59 43 l 1
 59 42 l 1
 58 42 l 1
 58 41 l 1
 60 41 l 1
 60 43 l 1
63 43 m 1
 61 43 l 1
 61 41 l 1
 63 41 l 1
 63 43 l 1
60 35 m 1
 58 35 l 1
 58 34 l 1
 59 34 l 1
 59 33 l 1
 60 33 l 1
 60 35 l 1
63 35 m 1
 61 35 l 1
 61 33 l 1
 63 33 l 1
 63 35 l 1
23 27 m 1
 21 27 l 1
 21 25 l 1
 23 25 l 1
 23 27 l 1
26 27 m 1
 24 27 l 1
 24 25 l 1
 25 25 l 1
 25 26 l 1
 26 26 l 1
 26 27 l 1
31 31 m 1
 29 31 l 1
 29 29 l 1
 31 29 l 1
 31 31 l 1
28 27 m 1
 27 27 l 1
 27 26 l 1
 26 26 l 1
 26 25 l 1
 28 25 l 1
 28 27 l 1
31 27 m 1
 29 27 l 1
 29 25 l 1
 31 25 l 1
 31 27 l 1
36 33 m 1
 34 33 l 1
 34 31 l 1
 36 31 l 1
 36 33 l 1
41 27 m 1
 39 27 l 1
 39 25 l 1
 41 25 l 1
 41 27 l 1
49 31 m 1
 47 31 l 1
 47 29 l 1
 49 29 l 1
 49 31 l 1
44 27 m 1
 42 27 l 1
 42 25 l 1
 43 25 l 1
 43 26 l 1
 44 26 l 1
 44 27 l 1
46 27 m 1
 45 27 l 1
 45 26 l 1
 44 26 l 1
 44 25 l 1
 46 25 l 1
 46 27 l 1
49 27 m 1
 47 27 l 1
 47 25 l 1
 49 25 l 1
 49 27 l 1
55 27 m 1
 53 27 l 1
 53 25 l 1
 55 25 l 1
 55 27 l 1
58 27 m 1
 56 27 l 1
 56 25 l 1
 57 25 l 1
 57 26 l 1
 58 26 l 1
 58 27 l 1
63 31 m 1
 61 31 l 1
 61 29 l 1
 63 29 l 1
 63 31 l 1
60 27 m 1
 59 27 l 1
 59 26 l 1
 58 26 l 1
 58 25 l 1
 60 25 l 1
 60 27 l 1
63 27 m 1
 61 27 l 1
 61 25 l 1
 63 25 l 1
 63 27 l 1
EndSplineSet
EndChar

StartChar: custom_5_5_0_5_0
Encoding: 36518 36518 16550
Width: 70
Flags: H
LayerCount: 2
Fore
SplineSet
23 43 m 1
 21 43 l 1
 21 41 l 1
 23 41 l 1
 23 43 l 1
26 43 m 1
 24 43 l 1
 24 41 l 1
 25 41 l 1
 25 42 l 1
 26 42 l 1
 26 43 l 1
23 35 m 1
 21 35 l 1
 21 33 l 1
 23 33 l 1
 23 35 l 1
25 35 m 1
 24 35 l 1
 24 33 l 1
 26 33 l 1
 26 34 l 1
 25 34 l 1
 25 35 l 1
28 43 m 1
 27 43 l 1
 27 42 l 1
 26 42 l 1
 26 41 l 1
 28 41 l 1
 28 43 l 1
31 43 m 1
 29 43 l 1
 29 41 l 1
 31 41 l 1
 31 43 l 1
41 43 m 1
 39 43 l 1
 39 41 l 1
 41 41 l 1
 41 43 l 1
31 39 m 1
 29 39 l 1
 29 37 l 1
 31 37 l 1
 31 39 l 1
28 35 m 1
 26 35 l 1
 26 34 l 1
 27 34 l 1
 27 33 l 1
 28 33 l 1
 28 35 l 1
31 35 m 1
 29 35 l 1
 29 33 l 1
 31 33 l 1
 31 35 l 1
41 39 m 1
 39 39 l 1
 39 37 l 1
 41 37 l 1
 41 39 l 1
36 37 m 1
 34 37 l 1
 34 35 l 1
 36 35 l 1
 36 37 l 1
41 35 m 1
 39 35 l 1
 39 33 l 1
 41 33 l 1
 41 35 l 1
44 43 m 1
 42 43 l 1
 42 41 l 1
 43 41 l 1
 43 42 l 1
 44 42 l 1
 44 43 l 1
46 43 m 1
 45 43 l 1
 45 42 l 1
 44 42 l 1
 44 41 l 1
 46 41 l 1
 46 43 l 1
49 43 m 1
 47 43 l 1
 47 41 l 1
 49 41 l 1
 49 43 l 1
55 43 m 1
 53 43 l 1
 53 41 l 1
 55 41 l 1
 55 43 l 1
58 43 m 1
 56 43 l 1
 56 41 l 1
 57 41 l 1
 57 42 l 1
 58 42 l 1
 58 43 l 1
43 35 m 1
 42 35 l 1
 42 33 l 1
 44 33 l 1
 44 34 l 1
 43 34 l 1
 43 35 l 1
46 35 m 1
 44 35 l 1
 44 34 l 1
 45 34 l 1
 45 33 l 1
 46 33 l 1
 46 35 l 1
49 35 m 1
 47 35 l 1
 47 33 l 1
 49 33 l 1
 49 35 l 1
55 39 m 1
 53 39 l 1
 53 37 l 1
 55 37 l 1
 55 39 l 1
55 35 m 1
 53 35 l 1
 53 33 l 1
 55 33 l 1
 55 35 l 1
57 35 m 1
 56 35 l 1
 56 33 l 1
 58 33 l 1
 58 34 l 1
 57 34 l 1
 57 35 l 1
60 43 m 1
 59 43 l 1
 59 42 l 1
 58 42 l 1
 58 41 l 1
 60 41 l 1
 60 43 l 1
63 43 m 1
 61 43 l 1
 61 41 l 1
 63 41 l 1
 63 43 l 1
60 35 m 1
 58 35 l 1
 58 34 l 1
 59 34 l 1
 59 33 l 1
 60 33 l 1
 60 35 l 1
63 35 m 1
 61 35 l 1
 61 33 l 1
 63 33 l 1
 63 35 l 1
23 27 m 1
 21 27 l 1
 21 25 l 1
 23 25 l 1
 23 27 l 1
26 27 m 1
 24 27 l 1
 24 25 l 1
 25 25 l 1
 25 26 l 1
 26 26 l 1
 26 27 l 1
31 31 m 1
 29 31 l 1
 29 29 l 1
 31 29 l 1
 31 31 l 1
28 27 m 1
 27 27 l 1
 27 26 l 1
 26 26 l 1
 26 25 l 1
 28 25 l 1
 28 27 l 1
31 27 m 1
 29 27 l 1
 29 25 l 1
 31 25 l 1
 31 27 l 1
36 33 m 1
 34 33 l 1
 34 31 l 1
 36 31 l 1
 36 33 l 1
41 27 m 1
 39 27 l 1
 39 25 l 1
 41 25 l 1
 41 27 l 1
49 31 m 1
 47 31 l 1
 47 29 l 1
 49 29 l 1
 49 31 l 1
44 27 m 1
 42 27 l 1
 42 25 l 1
 43 25 l 1
 43 26 l 1
 44 26 l 1
 44 27 l 1
46 27 m 1
 45 27 l 1
 45 26 l 1
 44 26 l 1
 44 25 l 1
 46 25 l 1
 46 27 l 1
49 27 m 1
 47 27 l 1
 47 25 l 1
 49 25 l 1
 49 27 l 1
55 27 m 1
 53 27 l 1
 53 25 l 1
 55 25 l 1
 55 27 l 1
58 27 m 1
 56 27 l 1
 56 25 l 1
 57 25 l 1
 57 26 l 1
 58 26 l 1
 58 27 l 1
63 31 m 1
 61 31 l 1
 61 29 l 1
 63 29 l 1
 63 31 l 1
60 27 m 1
 59 27 l 1
 59 26 l 1
 58 26 l 1
 58 25 l 1
 60 25 l 1
 60 27 l 1
63 27 m 1
 61 27 l 1
 61 25 l 1
 63 25 l 1
 63 27 l 1
EndSplineSet
EndChar

StartChar: custom_5_5_0_5_1
Encoding: 36519 36519 16551
Width: 70
Flags: H
LayerCount: 2
Fore
SplineSet
23 43 m 1
 21 43 l 1
 21 41 l 1
 23 41 l 1
 23 43 l 1
26 43 m 1
 24 43 l 1
 24 41 l 1
 25 41 l 1
 25 42 l 1
 26 42 l 1
 26 43 l 1
23 35 m 1
 21 35 l 1
 21 33 l 1
 23 33 l 1
 23 35 l 1
25 35 m 1
 24 35 l 1
 24 33 l 1
 26 33 l 1
 26 34 l 1
 25 34 l 1
 25 35 l 1
28 43 m 1
 27 43 l 1
 27 42 l 1
 26 42 l 1
 26 41 l 1
 28 41 l 1
 28 43 l 1
31 43 m 1
 29 43 l 1
 29 41 l 1
 31 41 l 1
 31 43 l 1
41 43 m 1
 39 43 l 1
 39 41 l 1
 41 41 l 1
 41 43 l 1
31 39 m 1
 29 39 l 1
 29 37 l 1
 31 37 l 1
 31 39 l 1
28 35 m 1
 26 35 l 1
 26 34 l 1
 27 34 l 1
 27 33 l 1
 28 33 l 1
 28 35 l 1
31 35 m 1
 29 35 l 1
 29 33 l 1
 31 33 l 1
 31 35 l 1
41 39 m 1
 39 39 l 1
 39 37 l 1
 41 37 l 1
 41 39 l 1
36 37 m 1
 34 37 l 1
 34 35 l 1
 36 35 l 1
 36 37 l 1
41 35 m 1
 39 35 l 1
 39 33 l 1
 41 33 l 1
 41 35 l 1
44 43 m 1
 42 43 l 1
 42 41 l 1
 43 41 l 1
 43 42 l 1
 44 42 l 1
 44 43 l 1
46 43 m 1
 45 43 l 1
 45 42 l 1
 44 42 l 1
 44 41 l 1
 46 41 l 1
 46 43 l 1
49 43 m 1
 47 43 l 1
 47 41 l 1
 49 41 l 1
 49 43 l 1
55 43 m 1
 53 43 l 1
 53 41 l 1
 55 41 l 1
 55 43 l 1
58 43 m 1
 56 43 l 1
 56 41 l 1
 57 41 l 1
 57 42 l 1
 58 42 l 1
 58 43 l 1
43 35 m 1
 42 35 l 1
 42 33 l 1
 44 33 l 1
 44 34 l 1
 43 34 l 1
 43 35 l 1
46 35 m 1
 44 35 l 1
 44 34 l 1
 45 34 l 1
 45 33 l 1
 46 33 l 1
 46 35 l 1
49 35 m 1
 47 35 l 1
 47 33 l 1
 49 33 l 1
 49 35 l 1
55 39 m 1
 53 39 l 1
 53 37 l 1
 55 37 l 1
 55 39 l 1
55 35 m 1
 53 35 l 1
 53 33 l 1
 55 33 l 1
 55 35 l 1
57 35 m 1
 56 35 l 1
 56 33 l 1
 58 33 l 1
 58 34 l 1
 57 34 l 1
 57 35 l 1
60 43 m 1
 59 43 l 1
 59 42 l 1
 58 42 l 1
 58 41 l 1
 60 41 l 1
 60 43 l 1
63 43 m 1
 61 43 l 1
 61 41 l 1
 63 41 l 1
 63 43 l 1
60 35 m 1
 58 35 l 1
 58 34 l 1
 59 34 l 1
 59 33 l 1
 60 33 l 1
 60 35 l 1
63 35 m 1
 61 35 l 1
 61 33 l 1
 63 33 l 1
 63 35 l 1
23 27 m 1
 21 27 l 1
 21 25 l 1
 23 25 l 1
 23 27 l 1
26 27 m 1
 24 27 l 1
 24 25 l 1
 25 25 l 1
 25 26 l 1
 26 26 l 1
 26 27 l 1
31 31 m 1
 29 31 l 1
 29 29 l 1
 31 29 l 1
 31 31 l 1
28 27 m 1
 27 27 l 1
 27 26 l 1
 26 26 l 1
 26 25 l 1
 28 25 l 1
 28 27 l 1
31 27 m 1
 29 27 l 1
 29 25 l 1
 31 25 l 1
 31 27 l 1
36 33 m 1
 34 33 l 1
 34 31 l 1
 36 31 l 1
 36 33 l 1
41 27 m 1
 39 27 l 1
 39 25 l 1
 41 25 l 1
 41 27 l 1
49 31 m 1
 47 31 l 1
 47 29 l 1
 49 29 l 1
 49 31 l 1
44 27 m 1
 42 27 l 1
 42 25 l 1
 43 25 l 1
 43 26 l 1
 44 26 l 1
 44 27 l 1
46 27 m 1
 45 27 l 1
 45 26 l 1
 44 26 l 1
 44 25 l 1
 46 25 l 1
 46 27 l 1
49 27 m 1
 47 27 l 1
 47 25 l 1
 49 25 l 1
 49 27 l 1
55 27 m 1
 53 27 l 1
 53 25 l 1
 55 25 l 1
 55 27 l 1
58 27 m 1
 56 27 l 1
 56 25 l 1
 57 25 l 1
 57 26 l 1
 58 26 l 1
 58 27 l 1
63 31 m 1
 61 31 l 1
 61 29 l 1
 63 29 l 1
 63 31 l 1
60 27 m 1
 59 27 l 1
 59 26 l 1
 58 26 l 1
 58 25 l 1
 60 25 l 1
 60 27 l 1
63 27 m 1
 61 27 l 1
 61 25 l 1
 63 25 l 1
 63 27 l 1
EndSplineSet
EndChar

StartChar: custom_5_5_0_5_2
Encoding: 36520 36520 16552
Width: 70
Flags: H
LayerCount: 2
Fore
SplineSet
23 43 m 1
 21 43 l 1
 21 41 l 1
 23 41 l 1
 23 43 l 1
26 43 m 1
 24 43 l 1
 24 41 l 1
 25 41 l 1
 25 42 l 1
 26 42 l 1
 26 43 l 1
23 35 m 1
 21 35 l 1
 21 33 l 1
 23 33 l 1
 23 35 l 1
25 35 m 1
 24 35 l 1
 24 33 l 1
 26 33 l 1
 26 34 l 1
 25 34 l 1
 25 35 l 1
28 43 m 1
 27 43 l 1
 27 42 l 1
 26 42 l 1
 26 41 l 1
 28 41 l 1
 28 43 l 1
31 43 m 1
 29 43 l 1
 29 41 l 1
 31 41 l 1
 31 43 l 1
41 43 m 1
 39 43 l 1
 39 41 l 1
 41 41 l 1
 41 43 l 1
31 39 m 1
 29 39 l 1
 29 37 l 1
 31 37 l 1
 31 39 l 1
28 35 m 1
 26 35 l 1
 26 34 l 1
 27 34 l 1
 27 33 l 1
 28 33 l 1
 28 35 l 1
31 35 m 1
 29 35 l 1
 29 33 l 1
 31 33 l 1
 31 35 l 1
41 39 m 1
 39 39 l 1
 39 37 l 1
 41 37 l 1
 41 39 l 1
36 37 m 1
 34 37 l 1
 34 35 l 1
 36 35 l 1
 36 37 l 1
41 35 m 1
 39 35 l 1
 39 33 l 1
 41 33 l 1
 41 35 l 1
44 43 m 1
 42 43 l 1
 42 41 l 1
 43 41 l 1
 43 42 l 1
 44 42 l 1
 44 43 l 1
46 43 m 1
 45 43 l 1
 45 42 l 1
 44 42 l 1
 44 41 l 1
 46 41 l 1
 46 43 l 1
49 43 m 1
 47 43 l 1
 47 41 l 1
 49 41 l 1
 49 43 l 1
55 43 m 1
 53 43 l 1
 53 41 l 1
 55 41 l 1
 55 43 l 1
58 43 m 1
 56 43 l 1
 56 41 l 1
 57 41 l 1
 57 42 l 1
 58 42 l 1
 58 43 l 1
43 35 m 1
 42 35 l 1
 42 33 l 1
 44 33 l 1
 44 34 l 1
 43 34 l 1
 43 35 l 1
46 35 m 1
 44 35 l 1
 44 34 l 1
 45 34 l 1
 45 33 l 1
 46 33 l 1
 46 35 l 1
49 35 m 1
 47 35 l 1
 47 33 l 1
 49 33 l 1
 49 35 l 1
55 39 m 1
 53 39 l 1
 53 37 l 1
 55 37 l 1
 55 39 l 1
55 35 m 1
 53 35 l 1
 53 33 l 1
 55 33 l 1
 55 35 l 1
57 35 m 1
 56 35 l 1
 56 33 l 1
 58 33 l 1
 58 34 l 1
 57 34 l 1
 57 35 l 1
60 43 m 1
 59 43 l 1
 59 42 l 1
 58 42 l 1
 58 41 l 1
 60 41 l 1
 60 43 l 1
63 43 m 1
 61 43 l 1
 61 41 l 1
 63 41 l 1
 63 43 l 1
60 35 m 1
 58 35 l 1
 58 34 l 1
 59 34 l 1
 59 33 l 1
 60 33 l 1
 60 35 l 1
63 35 m 1
 61 35 l 1
 61 33 l 1
 63 33 l 1
 63 35 l 1
23 27 m 1
 21 27 l 1
 21 25 l 1
 23 25 l 1
 23 27 l 1
26 27 m 1
 24 27 l 1
 24 25 l 1
 25 25 l 1
 25 26 l 1
 26 26 l 1
 26 27 l 1
31 31 m 1
 29 31 l 1
 29 29 l 1
 31 29 l 1
 31 31 l 1
28 27 m 1
 27 27 l 1
 27 26 l 1
 26 26 l 1
 26 25 l 1
 28 25 l 1
 28 27 l 1
31 27 m 1
 29 27 l 1
 29 25 l 1
 31 25 l 1
 31 27 l 1
36 33 m 1
 34 33 l 1
 34 31 l 1
 36 31 l 1
 36 33 l 1
41 27 m 1
 39 27 l 1
 39 25 l 1
 41 25 l 1
 41 27 l 1
49 31 m 1
 47 31 l 1
 47 29 l 1
 49 29 l 1
 49 31 l 1
44 27 m 1
 42 27 l 1
 42 25 l 1
 43 25 l 1
 43 26 l 1
 44 26 l 1
 44 27 l 1
46 27 m 1
 45 27 l 1
 45 26 l 1
 44 26 l 1
 44 25 l 1
 46 25 l 1
 46 27 l 1
49 27 m 1
 47 27 l 1
 47 25 l 1
 49 25 l 1
 49 27 l 1
55 27 m 1
 53 27 l 1
 53 25 l 1
 55 25 l 1
 55 27 l 1
58 27 m 1
 56 27 l 1
 56 25 l 1
 57 25 l 1
 57 26 l 1
 58 26 l 1
 58 27 l 1
63 31 m 1
 61 31 l 1
 61 29 l 1
 63 29 l 1
 63 31 l 1
60 27 m 1
 59 27 l 1
 59 26 l 1
 58 26 l 1
 58 25 l 1
 60 25 l 1
 60 27 l 1
63 27 m 1
 61 27 l 1
 61 25 l 1
 63 25 l 1
 63 27 l 1
EndSplineSet
EndChar

StartChar: custom_5_5_0_5_3
Encoding: 36521 36521 16553
Width: 70
Flags: H
LayerCount: 2
Fore
SplineSet
23 43 m 1
 21 43 l 1
 21 41 l 1
 23 41 l 1
 23 43 l 1
26 43 m 1
 24 43 l 1
 24 41 l 1
 25 41 l 1
 25 42 l 1
 26 42 l 1
 26 43 l 1
23 35 m 1
 21 35 l 1
 21 33 l 1
 23 33 l 1
 23 35 l 1
25 35 m 1
 24 35 l 1
 24 33 l 1
 26 33 l 1
 26 34 l 1
 25 34 l 1
 25 35 l 1
28 43 m 1
 27 43 l 1
 27 42 l 1
 26 42 l 1
 26 41 l 1
 28 41 l 1
 28 43 l 1
31 43 m 1
 29 43 l 1
 29 41 l 1
 31 41 l 1
 31 43 l 1
41 43 m 1
 39 43 l 1
 39 41 l 1
 41 41 l 1
 41 43 l 1
31 39 m 1
 29 39 l 1
 29 37 l 1
 31 37 l 1
 31 39 l 1
28 35 m 1
 26 35 l 1
 26 34 l 1
 27 34 l 1
 27 33 l 1
 28 33 l 1
 28 35 l 1
31 35 m 1
 29 35 l 1
 29 33 l 1
 31 33 l 1
 31 35 l 1
41 39 m 1
 39 39 l 1
 39 37 l 1
 41 37 l 1
 41 39 l 1
36 37 m 1
 34 37 l 1
 34 35 l 1
 36 35 l 1
 36 37 l 1
41 35 m 1
 39 35 l 1
 39 33 l 1
 41 33 l 1
 41 35 l 1
44 43 m 1
 42 43 l 1
 42 41 l 1
 43 41 l 1
 43 42 l 1
 44 42 l 1
 44 43 l 1
46 43 m 1
 45 43 l 1
 45 42 l 1
 44 42 l 1
 44 41 l 1
 46 41 l 1
 46 43 l 1
49 43 m 1
 47 43 l 1
 47 41 l 1
 49 41 l 1
 49 43 l 1
55 43 m 1
 53 43 l 1
 53 41 l 1
 55 41 l 1
 55 43 l 1
58 43 m 1
 56 43 l 1
 56 41 l 1
 57 41 l 1
 57 42 l 1
 58 42 l 1
 58 43 l 1
43 35 m 1
 42 35 l 1
 42 33 l 1
 44 33 l 1
 44 34 l 1
 43 34 l 1
 43 35 l 1
46 35 m 1
 44 35 l 1
 44 34 l 1
 45 34 l 1
 45 33 l 1
 46 33 l 1
 46 35 l 1
49 35 m 1
 47 35 l 1
 47 33 l 1
 49 33 l 1
 49 35 l 1
55 39 m 1
 53 39 l 1
 53 37 l 1
 55 37 l 1
 55 39 l 1
55 35 m 1
 53 35 l 1
 53 33 l 1
 55 33 l 1
 55 35 l 1
57 35 m 1
 56 35 l 1
 56 33 l 1
 58 33 l 1
 58 34 l 1
 57 34 l 1
 57 35 l 1
60 43 m 1
 59 43 l 1
 59 42 l 1
 58 42 l 1
 58 41 l 1
 60 41 l 1
 60 43 l 1
63 43 m 1
 61 43 l 1
 61 41 l 1
 63 41 l 1
 63 43 l 1
60 35 m 1
 58 35 l 1
 58 34 l 1
 59 34 l 1
 59 33 l 1
 60 33 l 1
 60 35 l 1
63 35 m 1
 61 35 l 1
 61 33 l 1
 63 33 l 1
 63 35 l 1
23 27 m 1
 21 27 l 1
 21 25 l 1
 23 25 l 1
 23 27 l 1
26 27 m 1
 24 27 l 1
 24 25 l 1
 25 25 l 1
 25 26 l 1
 26 26 l 1
 26 27 l 1
31 31 m 1
 29 31 l 1
 29 29 l 1
 31 29 l 1
 31 31 l 1
28 27 m 1
 27 27 l 1
 27 26 l 1
 26 26 l 1
 26 25 l 1
 28 25 l 1
 28 27 l 1
31 27 m 1
 29 27 l 1
 29 25 l 1
 31 25 l 1
 31 27 l 1
36 33 m 1
 34 33 l 1
 34 31 l 1
 36 31 l 1
 36 33 l 1
41 27 m 1
 39 27 l 1
 39 25 l 1
 41 25 l 1
 41 27 l 1
49 31 m 1
 47 31 l 1
 47 29 l 1
 49 29 l 1
 49 31 l 1
44 27 m 1
 42 27 l 1
 42 25 l 1
 43 25 l 1
 43 26 l 1
 44 26 l 1
 44 27 l 1
46 27 m 1
 45 27 l 1
 45 26 l 1
 44 26 l 1
 44 25 l 1
 46 25 l 1
 46 27 l 1
49 27 m 1
 47 27 l 1
 47 25 l 1
 49 25 l 1
 49 27 l 1
55 27 m 1
 53 27 l 1
 53 25 l 1
 55 25 l 1
 55 27 l 1
58 27 m 1
 56 27 l 1
 56 25 l 1
 57 25 l 1
 57 26 l 1
 58 26 l 1
 58 27 l 1
63 31 m 1
 61 31 l 1
 61 29 l 1
 63 29 l 1
 63 31 l 1
60 27 m 1
 59 27 l 1
 59 26 l 1
 58 26 l 1
 58 25 l 1
 60 25 l 1
 60 27 l 1
63 27 m 1
 61 27 l 1
 61 25 l 1
 63 25 l 1
 63 27 l 1
EndSplineSet
EndChar

StartChar: custom_5_5_0_5_4
Encoding: 36522 36522 16554
Width: 70
Flags: H
LayerCount: 2
Fore
SplineSet
23 43 m 1
 21 43 l 1
 21 41 l 1
 23 41 l 1
 23 43 l 1
26 43 m 1
 24 43 l 1
 24 41 l 1
 25 41 l 1
 25 42 l 1
 26 42 l 1
 26 43 l 1
23 35 m 1
 21 35 l 1
 21 33 l 1
 23 33 l 1
 23 35 l 1
25 35 m 1
 24 35 l 1
 24 33 l 1
 26 33 l 1
 26 34 l 1
 25 34 l 1
 25 35 l 1
28 43 m 1
 27 43 l 1
 27 42 l 1
 26 42 l 1
 26 41 l 1
 28 41 l 1
 28 43 l 1
31 43 m 1
 29 43 l 1
 29 41 l 1
 31 41 l 1
 31 43 l 1
41 43 m 1
 39 43 l 1
 39 41 l 1
 41 41 l 1
 41 43 l 1
31 39 m 1
 29 39 l 1
 29 37 l 1
 31 37 l 1
 31 39 l 1
28 35 m 1
 26 35 l 1
 26 34 l 1
 27 34 l 1
 27 33 l 1
 28 33 l 1
 28 35 l 1
31 35 m 1
 29 35 l 1
 29 33 l 1
 31 33 l 1
 31 35 l 1
41 39 m 1
 39 39 l 1
 39 37 l 1
 41 37 l 1
 41 39 l 1
36 37 m 1
 34 37 l 1
 34 35 l 1
 36 35 l 1
 36 37 l 1
41 35 m 1
 39 35 l 1
 39 33 l 1
 41 33 l 1
 41 35 l 1
44 43 m 1
 42 43 l 1
 42 41 l 1
 43 41 l 1
 43 42 l 1
 44 42 l 1
 44 43 l 1
46 43 m 1
 45 43 l 1
 45 42 l 1
 44 42 l 1
 44 41 l 1
 46 41 l 1
 46 43 l 1
49 43 m 1
 47 43 l 1
 47 41 l 1
 49 41 l 1
 49 43 l 1
55 43 m 1
 53 43 l 1
 53 41 l 1
 55 41 l 1
 55 43 l 1
58 43 m 1
 56 43 l 1
 56 41 l 1
 57 41 l 1
 57 42 l 1
 58 42 l 1
 58 43 l 1
43 35 m 1
 42 35 l 1
 42 33 l 1
 44 33 l 1
 44 34 l 1
 43 34 l 1
 43 35 l 1
46 35 m 1
 44 35 l 1
 44 34 l 1
 45 34 l 1
 45 33 l 1
 46 33 l 1
 46 35 l 1
49 35 m 1
 47 35 l 1
 47 33 l 1
 49 33 l 1
 49 35 l 1
55 39 m 1
 53 39 l 1
 53 37 l 1
 55 37 l 1
 55 39 l 1
55 35 m 1
 53 35 l 1
 53 33 l 1
 55 33 l 1
 55 35 l 1
57 35 m 1
 56 35 l 1
 56 33 l 1
 58 33 l 1
 58 34 l 1
 57 34 l 1
 57 35 l 1
60 43 m 1
 59 43 l 1
 59 42 l 1
 58 42 l 1
 58 41 l 1
 60 41 l 1
 60 43 l 1
63 43 m 1
 61 43 l 1
 61 41 l 1
 63 41 l 1
 63 43 l 1
60 35 m 1
 58 35 l 1
 58 34 l 1
 59 34 l 1
 59 33 l 1
 60 33 l 1
 60 35 l 1
63 35 m 1
 61 35 l 1
 61 33 l 1
 63 33 l 1
 63 35 l 1
23 27 m 1
 21 27 l 1
 21 25 l 1
 23 25 l 1
 23 27 l 1
26 27 m 1
 24 27 l 1
 24 25 l 1
 25 25 l 1
 25 26 l 1
 26 26 l 1
 26 27 l 1
31 31 m 1
 29 31 l 1
 29 29 l 1
 31 29 l 1
 31 31 l 1
28 27 m 1
 27 27 l 1
 27 26 l 1
 26 26 l 1
 26 25 l 1
 28 25 l 1
 28 27 l 1
31 27 m 1
 29 27 l 1
 29 25 l 1
 31 25 l 1
 31 27 l 1
36 33 m 1
 34 33 l 1
 34 31 l 1
 36 31 l 1
 36 33 l 1
41 27 m 1
 39 27 l 1
 39 25 l 1
 41 25 l 1
 41 27 l 1
49 31 m 1
 47 31 l 1
 47 29 l 1
 49 29 l 1
 49 31 l 1
44 27 m 1
 42 27 l 1
 42 25 l 1
 43 25 l 1
 43 26 l 1
 44 26 l 1
 44 27 l 1
46 27 m 1
 45 27 l 1
 45 26 l 1
 44 26 l 1
 44 25 l 1
 46 25 l 1
 46 27 l 1
49 27 m 1
 47 27 l 1
 47 25 l 1
 49 25 l 1
 49 27 l 1
55 27 m 1
 53 27 l 1
 53 25 l 1
 55 25 l 1
 55 27 l 1
58 27 m 1
 56 27 l 1
 56 25 l 1
 57 25 l 1
 57 26 l 1
 58 26 l 1
 58 27 l 1
63 31 m 1
 61 31 l 1
 61 29 l 1
 63 29 l 1
 63 31 l 1
60 27 m 1
 59 27 l 1
 59 26 l 1
 58 26 l 1
 58 25 l 1
 60 25 l 1
 60 27 l 1
63 27 m 1
 61 27 l 1
 61 25 l 1
 63 25 l 1
 63 27 l 1
EndSplineSet
EndChar

StartChar: custom_5_5_0_5_5
Encoding: 36523 36523 16555
Width: 70
Flags: H
LayerCount: 2
Fore
SplineSet
23 43 m 1
 21 43 l 1
 21 41 l 1
 23 41 l 1
 23 43 l 1
26 43 m 1
 24 43 l 1
 24 41 l 1
 25 41 l 1
 25 42 l 1
 26 42 l 1
 26 43 l 1
23 35 m 1
 21 35 l 1
 21 33 l 1
 23 33 l 1
 23 35 l 1
25 35 m 1
 24 35 l 1
 24 33 l 1
 26 33 l 1
 26 34 l 1
 25 34 l 1
 25 35 l 1
28 43 m 1
 27 43 l 1
 27 42 l 1
 26 42 l 1
 26 41 l 1
 28 41 l 1
 28 43 l 1
31 43 m 1
 29 43 l 1
 29 41 l 1
 31 41 l 1
 31 43 l 1
41 43 m 1
 39 43 l 1
 39 41 l 1
 41 41 l 1
 41 43 l 1
31 39 m 1
 29 39 l 1
 29 37 l 1
 31 37 l 1
 31 39 l 1
28 35 m 1
 26 35 l 1
 26 34 l 1
 27 34 l 1
 27 33 l 1
 28 33 l 1
 28 35 l 1
31 35 m 1
 29 35 l 1
 29 33 l 1
 31 33 l 1
 31 35 l 1
41 39 m 1
 39 39 l 1
 39 37 l 1
 41 37 l 1
 41 39 l 1
36 37 m 1
 34 37 l 1
 34 35 l 1
 36 35 l 1
 36 37 l 1
41 35 m 1
 39 35 l 1
 39 33 l 1
 41 33 l 1
 41 35 l 1
44 43 m 1
 42 43 l 1
 42 41 l 1
 43 41 l 1
 43 42 l 1
 44 42 l 1
 44 43 l 1
46 43 m 1
 45 43 l 1
 45 42 l 1
 44 42 l 1
 44 41 l 1
 46 41 l 1
 46 43 l 1
49 43 m 1
 47 43 l 1
 47 41 l 1
 49 41 l 1
 49 43 l 1
55 43 m 1
 53 43 l 1
 53 41 l 1
 55 41 l 1
 55 43 l 1
58 43 m 1
 56 43 l 1
 56 41 l 1
 57 41 l 1
 57 42 l 1
 58 42 l 1
 58 43 l 1
43 35 m 1
 42 35 l 1
 42 33 l 1
 44 33 l 1
 44 34 l 1
 43 34 l 1
 43 35 l 1
46 35 m 1
 44 35 l 1
 44 34 l 1
 45 34 l 1
 45 33 l 1
 46 33 l 1
 46 35 l 1
49 35 m 1
 47 35 l 1
 47 33 l 1
 49 33 l 1
 49 35 l 1
55 39 m 1
 53 39 l 1
 53 37 l 1
 55 37 l 1
 55 39 l 1
55 35 m 1
 53 35 l 1
 53 33 l 1
 55 33 l 1
 55 35 l 1
57 35 m 1
 56 35 l 1
 56 33 l 1
 58 33 l 1
 58 34 l 1
 57 34 l 1
 57 35 l 1
60 43 m 1
 59 43 l 1
 59 42 l 1
 58 42 l 1
 58 41 l 1
 60 41 l 1
 60 43 l 1
63 43 m 1
 61 43 l 1
 61 41 l 1
 63 41 l 1
 63 43 l 1
60 35 m 1
 58 35 l 1
 58 34 l 1
 59 34 l 1
 59 33 l 1
 60 33 l 1
 60 35 l 1
63 35 m 1
 61 35 l 1
 61 33 l 1
 63 33 l 1
 63 35 l 1
23 27 m 1
 21 27 l 1
 21 25 l 1
 23 25 l 1
 23 27 l 1
26 27 m 1
 24 27 l 1
 24 25 l 1
 25 25 l 1
 25 26 l 1
 26 26 l 1
 26 27 l 1
31 31 m 1
 29 31 l 1
 29 29 l 1
 31 29 l 1
 31 31 l 1
28 27 m 1
 27 27 l 1
 27 26 l 1
 26 26 l 1
 26 25 l 1
 28 25 l 1
 28 27 l 1
31 27 m 1
 29 27 l 1
 29 25 l 1
 31 25 l 1
 31 27 l 1
36 33 m 1
 34 33 l 1
 34 31 l 1
 36 31 l 1
 36 33 l 1
41 27 m 1
 39 27 l 1
 39 25 l 1
 41 25 l 1
 41 27 l 1
49 31 m 1
 47 31 l 1
 47 29 l 1
 49 29 l 1
 49 31 l 1
44 27 m 1
 42 27 l 1
 42 25 l 1
 43 25 l 1
 43 26 l 1
 44 26 l 1
 44 27 l 1
46 27 m 1
 45 27 l 1
 45 26 l 1
 44 26 l 1
 44 25 l 1
 46 25 l 1
 46 27 l 1
49 27 m 1
 47 27 l 1
 47 25 l 1
 49 25 l 1
 49 27 l 1
55 27 m 1
 53 27 l 1
 53 25 l 1
 55 25 l 1
 55 27 l 1
58 27 m 1
 56 27 l 1
 56 25 l 1
 57 25 l 1
 57 26 l 1
 58 26 l 1
 58 27 l 1
63 31 m 1
 61 31 l 1
 61 29 l 1
 63 29 l 1
 63 31 l 1
60 27 m 1
 59 27 l 1
 59 26 l 1
 58 26 l 1
 58 25 l 1
 60 25 l 1
 60 27 l 1
63 27 m 1
 61 27 l 1
 61 25 l 1
 63 25 l 1
 63 27 l 1
EndSplineSet
EndChar

StartChar: custom_5_5_0_5_6
Encoding: 36524 36524 16556
Width: 70
Flags: H
LayerCount: 2
Fore
SplineSet
23 43 m 1
 21 43 l 1
 21 41 l 1
 23 41 l 1
 23 43 l 1
26 43 m 1
 24 43 l 1
 24 41 l 1
 25 41 l 1
 25 42 l 1
 26 42 l 1
 26 43 l 1
23 35 m 1
 21 35 l 1
 21 33 l 1
 23 33 l 1
 23 35 l 1
25 35 m 1
 24 35 l 1
 24 33 l 1
 26 33 l 1
 26 34 l 1
 25 34 l 1
 25 35 l 1
28 43 m 1
 27 43 l 1
 27 42 l 1
 26 42 l 1
 26 41 l 1
 28 41 l 1
 28 43 l 1
31 43 m 1
 29 43 l 1
 29 41 l 1
 31 41 l 1
 31 43 l 1
41 43 m 1
 39 43 l 1
 39 41 l 1
 41 41 l 1
 41 43 l 1
31 39 m 1
 29 39 l 1
 29 37 l 1
 31 37 l 1
 31 39 l 1
28 35 m 1
 26 35 l 1
 26 34 l 1
 27 34 l 1
 27 33 l 1
 28 33 l 1
 28 35 l 1
31 35 m 1
 29 35 l 1
 29 33 l 1
 31 33 l 1
 31 35 l 1
41 39 m 1
 39 39 l 1
 39 37 l 1
 41 37 l 1
 41 39 l 1
36 37 m 1
 34 37 l 1
 34 35 l 1
 36 35 l 1
 36 37 l 1
41 35 m 1
 39 35 l 1
 39 33 l 1
 41 33 l 1
 41 35 l 1
44 43 m 1
 42 43 l 1
 42 41 l 1
 43 41 l 1
 43 42 l 1
 44 42 l 1
 44 43 l 1
46 43 m 1
 45 43 l 1
 45 42 l 1
 44 42 l 1
 44 41 l 1
 46 41 l 1
 46 43 l 1
49 43 m 1
 47 43 l 1
 47 41 l 1
 49 41 l 1
 49 43 l 1
55 43 m 1
 53 43 l 1
 53 41 l 1
 55 41 l 1
 55 43 l 1
58 43 m 1
 56 43 l 1
 56 41 l 1
 57 41 l 1
 57 42 l 1
 58 42 l 1
 58 43 l 1
43 35 m 1
 42 35 l 1
 42 33 l 1
 44 33 l 1
 44 34 l 1
 43 34 l 1
 43 35 l 1
46 35 m 1
 44 35 l 1
 44 34 l 1
 45 34 l 1
 45 33 l 1
 46 33 l 1
 46 35 l 1
49 35 m 1
 47 35 l 1
 47 33 l 1
 49 33 l 1
 49 35 l 1
55 39 m 1
 53 39 l 1
 53 37 l 1
 55 37 l 1
 55 39 l 1
55 35 m 1
 53 35 l 1
 53 33 l 1
 55 33 l 1
 55 35 l 1
57 35 m 1
 56 35 l 1
 56 33 l 1
 58 33 l 1
 58 34 l 1
 57 34 l 1
 57 35 l 1
60 43 m 1
 59 43 l 1
 59 42 l 1
 58 42 l 1
 58 41 l 1
 60 41 l 1
 60 43 l 1
63 43 m 1
 61 43 l 1
 61 41 l 1
 63 41 l 1
 63 43 l 1
60 35 m 1
 58 35 l 1
 58 34 l 1
 59 34 l 1
 59 33 l 1
 60 33 l 1
 60 35 l 1
63 35 m 1
 61 35 l 1
 61 33 l 1
 63 33 l 1
 63 35 l 1
23 27 m 1
 21 27 l 1
 21 25 l 1
 23 25 l 1
 23 27 l 1
26 27 m 1
 24 27 l 1
 24 25 l 1
 25 25 l 1
 25 26 l 1
 26 26 l 1
 26 27 l 1
31 31 m 1
 29 31 l 1
 29 29 l 1
 31 29 l 1
 31 31 l 1
28 27 m 1
 27 27 l 1
 27 26 l 1
 26 26 l 1
 26 25 l 1
 28 25 l 1
 28 27 l 1
31 27 m 1
 29 27 l 1
 29 25 l 1
 31 25 l 1
 31 27 l 1
36 33 m 1
 34 33 l 1
 34 31 l 1
 36 31 l 1
 36 33 l 1
41 27 m 1
 39 27 l 1
 39 25 l 1
 41 25 l 1
 41 27 l 1
49 31 m 1
 47 31 l 1
 47 29 l 1
 49 29 l 1
 49 31 l 1
44 27 m 1
 42 27 l 1
 42 25 l 1
 43 25 l 1
 43 26 l 1
 44 26 l 1
 44 27 l 1
46 27 m 1
 45 27 l 1
 45 26 l 1
 44 26 l 1
 44 25 l 1
 46 25 l 1
 46 27 l 1
49 27 m 1
 47 27 l 1
 47 25 l 1
 49 25 l 1
 49 27 l 1
55 27 m 1
 53 27 l 1
 53 25 l 1
 55 25 l 1
 55 27 l 1
58 27 m 1
 56 27 l 1
 56 25 l 1
 57 25 l 1
 57 26 l 1
 58 26 l 1
 58 27 l 1
63 31 m 1
 61 31 l 1
 61 29 l 1
 63 29 l 1
 63 31 l 1
60 27 m 1
 59 27 l 1
 59 26 l 1
 58 26 l 1
 58 25 l 1
 60 25 l 1
 60 27 l 1
63 27 m 1
 61 27 l 1
 61 25 l 1
 63 25 l 1
 63 27 l 1
EndSplineSet
EndChar

StartChar: custom_5_5_0_5_7
Encoding: 36525 36525 16557
Width: 70
Flags: H
LayerCount: 2
Fore
SplineSet
23 43 m 1
 21 43 l 1
 21 41 l 1
 23 41 l 1
 23 43 l 1
26 43 m 1
 24 43 l 1
 24 41 l 1
 25 41 l 1
 25 42 l 1
 26 42 l 1
 26 43 l 1
23 35 m 1
 21 35 l 1
 21 33 l 1
 23 33 l 1
 23 35 l 1
25 35 m 1
 24 35 l 1
 24 33 l 1
 26 33 l 1
 26 34 l 1
 25 34 l 1
 25 35 l 1
28 43 m 1
 27 43 l 1
 27 42 l 1
 26 42 l 1
 26 41 l 1
 28 41 l 1
 28 43 l 1
31 43 m 1
 29 43 l 1
 29 41 l 1
 31 41 l 1
 31 43 l 1
41 43 m 1
 39 43 l 1
 39 41 l 1
 41 41 l 1
 41 43 l 1
31 39 m 1
 29 39 l 1
 29 37 l 1
 31 37 l 1
 31 39 l 1
28 35 m 1
 26 35 l 1
 26 34 l 1
 27 34 l 1
 27 33 l 1
 28 33 l 1
 28 35 l 1
31 35 m 1
 29 35 l 1
 29 33 l 1
 31 33 l 1
 31 35 l 1
41 39 m 1
 39 39 l 1
 39 37 l 1
 41 37 l 1
 41 39 l 1
36 37 m 1
 34 37 l 1
 34 35 l 1
 36 35 l 1
 36 37 l 1
41 35 m 1
 39 35 l 1
 39 33 l 1
 41 33 l 1
 41 35 l 1
44 43 m 1
 42 43 l 1
 42 41 l 1
 43 41 l 1
 43 42 l 1
 44 42 l 1
 44 43 l 1
46 43 m 1
 45 43 l 1
 45 42 l 1
 44 42 l 1
 44 41 l 1
 46 41 l 1
 46 43 l 1
49 43 m 1
 47 43 l 1
 47 41 l 1
 49 41 l 1
 49 43 l 1
55 43 m 1
 53 43 l 1
 53 41 l 1
 55 41 l 1
 55 43 l 1
58 43 m 1
 56 43 l 1
 56 41 l 1
 57 41 l 1
 57 42 l 1
 58 42 l 1
 58 43 l 1
43 35 m 1
 42 35 l 1
 42 33 l 1
 44 33 l 1
 44 34 l 1
 43 34 l 1
 43 35 l 1
46 35 m 1
 44 35 l 1
 44 34 l 1
 45 34 l 1
 45 33 l 1
 46 33 l 1
 46 35 l 1
49 35 m 1
 47 35 l 1
 47 33 l 1
 49 33 l 1
 49 35 l 1
55 39 m 1
 53 39 l 1
 53 37 l 1
 55 37 l 1
 55 39 l 1
55 35 m 1
 53 35 l 1
 53 33 l 1
 55 33 l 1
 55 35 l 1
57 35 m 1
 56 35 l 1
 56 33 l 1
 58 33 l 1
 58 34 l 1
 57 34 l 1
 57 35 l 1
60 43 m 1
 59 43 l 1
 59 42 l 1
 58 42 l 1
 58 41 l 1
 60 41 l 1
 60 43 l 1
63 43 m 1
 61 43 l 1
 61 41 l 1
 63 41 l 1
 63 43 l 1
60 35 m 1
 58 35 l 1
 58 34 l 1
 59 34 l 1
 59 33 l 1
 60 33 l 1
 60 35 l 1
63 35 m 1
 61 35 l 1
 61 33 l 1
 63 33 l 1
 63 35 l 1
23 27 m 1
 21 27 l 1
 21 25 l 1
 23 25 l 1
 23 27 l 1
26 27 m 1
 24 27 l 1
 24 25 l 1
 25 25 l 1
 25 26 l 1
 26 26 l 1
 26 27 l 1
31 31 m 1
 29 31 l 1
 29 29 l 1
 31 29 l 1
 31 31 l 1
28 27 m 1
 27 27 l 1
 27 26 l 1
 26 26 l 1
 26 25 l 1
 28 25 l 1
 28 27 l 1
31 27 m 1
 29 27 l 1
 29 25 l 1
 31 25 l 1
 31 27 l 1
36 33 m 1
 34 33 l 1
 34 31 l 1
 36 31 l 1
 36 33 l 1
41 27 m 1
 39 27 l 1
 39 25 l 1
 41 25 l 1
 41 27 l 1
49 31 m 1
 47 31 l 1
 47 29 l 1
 49 29 l 1
 49 31 l 1
44 27 m 1
 42 27 l 1
 42 25 l 1
 43 25 l 1
 43 26 l 1
 44 26 l 1
 44 27 l 1
46 27 m 1
 45 27 l 1
 45 26 l 1
 44 26 l 1
 44 25 l 1
 46 25 l 1
 46 27 l 1
49 27 m 1
 47 27 l 1
 47 25 l 1
 49 25 l 1
 49 27 l 1
55 27 m 1
 53 27 l 1
 53 25 l 1
 55 25 l 1
 55 27 l 1
58 27 m 1
 56 27 l 1
 56 25 l 1
 57 25 l 1
 57 26 l 1
 58 26 l 1
 58 27 l 1
63 31 m 1
 61 31 l 1
 61 29 l 1
 63 29 l 1
 63 31 l 1
60 27 m 1
 59 27 l 1
 59 26 l 1
 58 26 l 1
 58 25 l 1
 60 25 l 1
 60 27 l 1
63 27 m 1
 61 27 l 1
 61 25 l 1
 63 25 l 1
 63 27 l 1
EndSplineSet
EndChar

StartChar: custom_5_5_0_5_8
Encoding: 36526 36526 16558
Width: 70
Flags: H
LayerCount: 2
Fore
SplineSet
23 43 m 1
 21 43 l 1
 21 41 l 1
 23 41 l 1
 23 43 l 1
26 43 m 1
 24 43 l 1
 24 41 l 1
 25 41 l 1
 25 42 l 1
 26 42 l 1
 26 43 l 1
23 35 m 1
 21 35 l 1
 21 33 l 1
 23 33 l 1
 23 35 l 1
25 35 m 1
 24 35 l 1
 24 33 l 1
 26 33 l 1
 26 34 l 1
 25 34 l 1
 25 35 l 1
28 43 m 1
 27 43 l 1
 27 42 l 1
 26 42 l 1
 26 41 l 1
 28 41 l 1
 28 43 l 1
31 43 m 1
 29 43 l 1
 29 41 l 1
 31 41 l 1
 31 43 l 1
41 43 m 1
 39 43 l 1
 39 41 l 1
 41 41 l 1
 41 43 l 1
31 39 m 1
 29 39 l 1
 29 37 l 1
 31 37 l 1
 31 39 l 1
28 35 m 1
 26 35 l 1
 26 34 l 1
 27 34 l 1
 27 33 l 1
 28 33 l 1
 28 35 l 1
31 35 m 1
 29 35 l 1
 29 33 l 1
 31 33 l 1
 31 35 l 1
41 39 m 1
 39 39 l 1
 39 37 l 1
 41 37 l 1
 41 39 l 1
36 37 m 1
 34 37 l 1
 34 35 l 1
 36 35 l 1
 36 37 l 1
41 35 m 1
 39 35 l 1
 39 33 l 1
 41 33 l 1
 41 35 l 1
44 43 m 1
 42 43 l 1
 42 41 l 1
 43 41 l 1
 43 42 l 1
 44 42 l 1
 44 43 l 1
46 43 m 1
 45 43 l 1
 45 42 l 1
 44 42 l 1
 44 41 l 1
 46 41 l 1
 46 43 l 1
49 43 m 1
 47 43 l 1
 47 41 l 1
 49 41 l 1
 49 43 l 1
55 43 m 1
 53 43 l 1
 53 41 l 1
 55 41 l 1
 55 43 l 1
58 43 m 1
 56 43 l 1
 56 41 l 1
 57 41 l 1
 57 42 l 1
 58 42 l 1
 58 43 l 1
43 35 m 1
 42 35 l 1
 42 33 l 1
 44 33 l 1
 44 34 l 1
 43 34 l 1
 43 35 l 1
46 35 m 1
 44 35 l 1
 44 34 l 1
 45 34 l 1
 45 33 l 1
 46 33 l 1
 46 35 l 1
49 35 m 1
 47 35 l 1
 47 33 l 1
 49 33 l 1
 49 35 l 1
55 39 m 1
 53 39 l 1
 53 37 l 1
 55 37 l 1
 55 39 l 1
55 35 m 1
 53 35 l 1
 53 33 l 1
 55 33 l 1
 55 35 l 1
57 35 m 1
 56 35 l 1
 56 33 l 1
 58 33 l 1
 58 34 l 1
 57 34 l 1
 57 35 l 1
60 43 m 1
 59 43 l 1
 59 42 l 1
 58 42 l 1
 58 41 l 1
 60 41 l 1
 60 43 l 1
63 43 m 1
 61 43 l 1
 61 41 l 1
 63 41 l 1
 63 43 l 1
60 35 m 1
 58 35 l 1
 58 34 l 1
 59 34 l 1
 59 33 l 1
 60 33 l 1
 60 35 l 1
63 35 m 1
 61 35 l 1
 61 33 l 1
 63 33 l 1
 63 35 l 1
23 27 m 1
 21 27 l 1
 21 25 l 1
 23 25 l 1
 23 27 l 1
26 27 m 1
 24 27 l 1
 24 25 l 1
 25 25 l 1
 25 26 l 1
 26 26 l 1
 26 27 l 1
31 31 m 1
 29 31 l 1
 29 29 l 1
 31 29 l 1
 31 31 l 1
28 27 m 1
 27 27 l 1
 27 26 l 1
 26 26 l 1
 26 25 l 1
 28 25 l 1
 28 27 l 1
31 27 m 1
 29 27 l 1
 29 25 l 1
 31 25 l 1
 31 27 l 1
36 33 m 1
 34 33 l 1
 34 31 l 1
 36 31 l 1
 36 33 l 1
41 27 m 1
 39 27 l 1
 39 25 l 1
 41 25 l 1
 41 27 l 1
49 31 m 1
 47 31 l 1
 47 29 l 1
 49 29 l 1
 49 31 l 1
44 27 m 1
 42 27 l 1
 42 25 l 1
 43 25 l 1
 43 26 l 1
 44 26 l 1
 44 27 l 1
46 27 m 1
 45 27 l 1
 45 26 l 1
 44 26 l 1
 44 25 l 1
 46 25 l 1
 46 27 l 1
49 27 m 1
 47 27 l 1
 47 25 l 1
 49 25 l 1
 49 27 l 1
55 27 m 1
 53 27 l 1
 53 25 l 1
 55 25 l 1
 55 27 l 1
58 27 m 1
 56 27 l 1
 56 25 l 1
 57 25 l 1
 57 26 l 1
 58 26 l 1
 58 27 l 1
63 31 m 1
 61 31 l 1
 61 29 l 1
 63 29 l 1
 63 31 l 1
60 27 m 1
 59 27 l 1
 59 26 l 1
 58 26 l 1
 58 25 l 1
 60 25 l 1
 60 27 l 1
63 27 m 1
 61 27 l 1
 61 25 l 1
 63 25 l 1
 63 27 l 1
EndSplineSet
EndChar

StartChar: custom_5_5_0_5_9
Encoding: 36527 36527 16559
Width: 70
Flags: H
LayerCount: 2
Fore
SplineSet
23 43 m 1
 21 43 l 1
 21 41 l 1
 23 41 l 1
 23 43 l 1
26 43 m 1
 24 43 l 1
 24 41 l 1
 25 41 l 1
 25 42 l 1
 26 42 l 1
 26 43 l 1
23 35 m 1
 21 35 l 1
 21 33 l 1
 23 33 l 1
 23 35 l 1
25 35 m 1
 24 35 l 1
 24 33 l 1
 26 33 l 1
 26 34 l 1
 25 34 l 1
 25 35 l 1
28 43 m 1
 27 43 l 1
 27 42 l 1
 26 42 l 1
 26 41 l 1
 28 41 l 1
 28 43 l 1
31 43 m 1
 29 43 l 1
 29 41 l 1
 31 41 l 1
 31 43 l 1
41 43 m 1
 39 43 l 1
 39 41 l 1
 41 41 l 1
 41 43 l 1
31 39 m 1
 29 39 l 1
 29 37 l 1
 31 37 l 1
 31 39 l 1
28 35 m 1
 26 35 l 1
 26 34 l 1
 27 34 l 1
 27 33 l 1
 28 33 l 1
 28 35 l 1
31 35 m 1
 29 35 l 1
 29 33 l 1
 31 33 l 1
 31 35 l 1
41 39 m 1
 39 39 l 1
 39 37 l 1
 41 37 l 1
 41 39 l 1
36 37 m 1
 34 37 l 1
 34 35 l 1
 36 35 l 1
 36 37 l 1
41 35 m 1
 39 35 l 1
 39 33 l 1
 41 33 l 1
 41 35 l 1
44 43 m 1
 42 43 l 1
 42 41 l 1
 43 41 l 1
 43 42 l 1
 44 42 l 1
 44 43 l 1
46 43 m 1
 45 43 l 1
 45 42 l 1
 44 42 l 1
 44 41 l 1
 46 41 l 1
 46 43 l 1
49 43 m 1
 47 43 l 1
 47 41 l 1
 49 41 l 1
 49 43 l 1
55 43 m 1
 53 43 l 1
 53 41 l 1
 55 41 l 1
 55 43 l 1
58 43 m 1
 56 43 l 1
 56 41 l 1
 57 41 l 1
 57 42 l 1
 58 42 l 1
 58 43 l 1
43 35 m 1
 42 35 l 1
 42 33 l 1
 44 33 l 1
 44 34 l 1
 43 34 l 1
 43 35 l 1
46 35 m 1
 44 35 l 1
 44 34 l 1
 45 34 l 1
 45 33 l 1
 46 33 l 1
 46 35 l 1
49 35 m 1
 47 35 l 1
 47 33 l 1
 49 33 l 1
 49 35 l 1
55 39 m 1
 53 39 l 1
 53 37 l 1
 55 37 l 1
 55 39 l 1
55 35 m 1
 53 35 l 1
 53 33 l 1
 55 33 l 1
 55 35 l 1
57 35 m 1
 56 35 l 1
 56 33 l 1
 58 33 l 1
 58 34 l 1
 57 34 l 1
 57 35 l 1
60 43 m 1
 59 43 l 1
 59 42 l 1
 58 42 l 1
 58 41 l 1
 60 41 l 1
 60 43 l 1
63 43 m 1
 61 43 l 1
 61 41 l 1
 63 41 l 1
 63 43 l 1
60 35 m 1
 58 35 l 1
 58 34 l 1
 59 34 l 1
 59 33 l 1
 60 33 l 1
 60 35 l 1
63 35 m 1
 61 35 l 1
 61 33 l 1
 63 33 l 1
 63 35 l 1
23 27 m 1
 21 27 l 1
 21 25 l 1
 23 25 l 1
 23 27 l 1
26 27 m 1
 24 27 l 1
 24 25 l 1
 25 25 l 1
 25 26 l 1
 26 26 l 1
 26 27 l 1
31 31 m 1
 29 31 l 1
 29 29 l 1
 31 29 l 1
 31 31 l 1
28 27 m 1
 27 27 l 1
 27 26 l 1
 26 26 l 1
 26 25 l 1
 28 25 l 1
 28 27 l 1
31 27 m 1
 29 27 l 1
 29 25 l 1
 31 25 l 1
 31 27 l 1
36 33 m 1
 34 33 l 1
 34 31 l 1
 36 31 l 1
 36 33 l 1
41 27 m 1
 39 27 l 1
 39 25 l 1
 41 25 l 1
 41 27 l 1
49 31 m 1
 47 31 l 1
 47 29 l 1
 49 29 l 1
 49 31 l 1
44 27 m 1
 42 27 l 1
 42 25 l 1
 43 25 l 1
 43 26 l 1
 44 26 l 1
 44 27 l 1
46 27 m 1
 45 27 l 1
 45 26 l 1
 44 26 l 1
 44 25 l 1
 46 25 l 1
 46 27 l 1
49 27 m 1
 47 27 l 1
 47 25 l 1
 49 25 l 1
 49 27 l 1
55 27 m 1
 53 27 l 1
 53 25 l 1
 55 25 l 1
 55 27 l 1
58 27 m 1
 56 27 l 1
 56 25 l 1
 57 25 l 1
 57 26 l 1
 58 26 l 1
 58 27 l 1
63 31 m 1
 61 31 l 1
 61 29 l 1
 63 29 l 1
 63 31 l 1
60 27 m 1
 59 27 l 1
 59 26 l 1
 58 26 l 1
 58 25 l 1
 60 25 l 1
 60 27 l 1
63 27 m 1
 61 27 l 1
 61 25 l 1
 63 25 l 1
 63 27 l 1
EndSplineSet
EndChar

StartChar: custom_5_5_0_6_0
Encoding: 36528 36528 16560
Width: 70
Flags: H
LayerCount: 2
Fore
SplineSet
23 43 m 1
 21 43 l 1
 21 41 l 1
 23 41 l 1
 23 43 l 1
26 43 m 1
 24 43 l 1
 24 41 l 1
 25 41 l 1
 25 42 l 1
 26 42 l 1
 26 43 l 1
23 35 m 1
 21 35 l 1
 21 33 l 1
 23 33 l 1
 23 35 l 1
25 35 m 1
 24 35 l 1
 24 33 l 1
 26 33 l 1
 26 34 l 1
 25 34 l 1
 25 35 l 1
28 43 m 1
 27 43 l 1
 27 42 l 1
 26 42 l 1
 26 41 l 1
 28 41 l 1
 28 43 l 1
31 43 m 1
 29 43 l 1
 29 41 l 1
 31 41 l 1
 31 43 l 1
41 43 m 1
 39 43 l 1
 39 41 l 1
 41 41 l 1
 41 43 l 1
31 39 m 1
 29 39 l 1
 29 37 l 1
 31 37 l 1
 31 39 l 1
28 35 m 1
 26 35 l 1
 26 34 l 1
 27 34 l 1
 27 33 l 1
 28 33 l 1
 28 35 l 1
31 35 m 1
 29 35 l 1
 29 33 l 1
 31 33 l 1
 31 35 l 1
41 39 m 1
 39 39 l 1
 39 37 l 1
 41 37 l 1
 41 39 l 1
36 37 m 1
 34 37 l 1
 34 35 l 1
 36 35 l 1
 36 37 l 1
41 35 m 1
 39 35 l 1
 39 33 l 1
 41 33 l 1
 41 35 l 1
44 43 m 1
 42 43 l 1
 42 41 l 1
 43 41 l 1
 43 42 l 1
 44 42 l 1
 44 43 l 1
46 43 m 1
 45 43 l 1
 45 42 l 1
 44 42 l 1
 44 41 l 1
 46 41 l 1
 46 43 l 1
49 43 m 1
 47 43 l 1
 47 41 l 1
 49 41 l 1
 49 43 l 1
55 43 m 1
 53 43 l 1
 53 41 l 1
 55 41 l 1
 55 43 l 1
58 43 m 1
 56 43 l 1
 56 41 l 1
 57 41 l 1
 57 42 l 1
 58 42 l 1
 58 43 l 1
43 35 m 1
 42 35 l 1
 42 33 l 1
 44 33 l 1
 44 34 l 1
 43 34 l 1
 43 35 l 1
46 35 m 1
 44 35 l 1
 44 34 l 1
 45 34 l 1
 45 33 l 1
 46 33 l 1
 46 35 l 1
49 35 m 1
 47 35 l 1
 47 33 l 1
 49 33 l 1
 49 35 l 1
55 39 m 1
 53 39 l 1
 53 37 l 1
 55 37 l 1
 55 39 l 1
55 35 m 1
 53 35 l 1
 53 33 l 1
 55 33 l 1
 55 35 l 1
57 35 m 1
 56 35 l 1
 56 33 l 1
 58 33 l 1
 58 34 l 1
 57 34 l 1
 57 35 l 1
60 43 m 1
 59 43 l 1
 59 42 l 1
 58 42 l 1
 58 41 l 1
 60 41 l 1
 60 43 l 1
63 43 m 1
 61 43 l 1
 61 41 l 1
 63 41 l 1
 63 43 l 1
60 35 m 1
 58 35 l 1
 58 34 l 1
 59 34 l 1
 59 33 l 1
 60 33 l 1
 60 35 l 1
63 35 m 1
 61 35 l 1
 61 33 l 1
 63 33 l 1
 63 35 l 1
23 27 m 1
 21 27 l 1
 21 25 l 1
 23 25 l 1
 23 27 l 1
26 27 m 1
 24 27 l 1
 24 25 l 1
 25 25 l 1
 25 26 l 1
 26 26 l 1
 26 27 l 1
31 31 m 1
 29 31 l 1
 29 29 l 1
 31 29 l 1
 31 31 l 1
28 27 m 1
 27 27 l 1
 27 26 l 1
 26 26 l 1
 26 25 l 1
 28 25 l 1
 28 27 l 1
31 27 m 1
 29 27 l 1
 29 25 l 1
 31 25 l 1
 31 27 l 1
36 33 m 1
 34 33 l 1
 34 31 l 1
 36 31 l 1
 36 33 l 1
41 27 m 1
 39 27 l 1
 39 25 l 1
 41 25 l 1
 41 27 l 1
49 31 m 1
 47 31 l 1
 47 29 l 1
 49 29 l 1
 49 31 l 1
44 27 m 1
 42 27 l 1
 42 25 l 1
 43 25 l 1
 43 26 l 1
 44 26 l 1
 44 27 l 1
46 27 m 1
 45 27 l 1
 45 26 l 1
 44 26 l 1
 44 25 l 1
 46 25 l 1
 46 27 l 1
49 27 m 1
 47 27 l 1
 47 25 l 1
 49 25 l 1
 49 27 l 1
55 27 m 1
 53 27 l 1
 53 25 l 1
 55 25 l 1
 55 27 l 1
58 27 m 1
 56 27 l 1
 56 25 l 1
 57 25 l 1
 57 26 l 1
 58 26 l 1
 58 27 l 1
63 31 m 1
 61 31 l 1
 61 29 l 1
 63 29 l 1
 63 31 l 1
60 27 m 1
 59 27 l 1
 59 26 l 1
 58 26 l 1
 58 25 l 1
 60 25 l 1
 60 27 l 1
63 27 m 1
 61 27 l 1
 61 25 l 1
 63 25 l 1
 63 27 l 1
EndSplineSet
EndChar

StartChar: custom_5_5_0_6_1
Encoding: 36529 36529 16561
Width: 70
Flags: H
LayerCount: 2
Fore
SplineSet
23 43 m 1
 21 43 l 1
 21 41 l 1
 23 41 l 1
 23 43 l 1
26 43 m 1
 24 43 l 1
 24 41 l 1
 25 41 l 1
 25 42 l 1
 26 42 l 1
 26 43 l 1
23 35 m 1
 21 35 l 1
 21 33 l 1
 23 33 l 1
 23 35 l 1
25 35 m 1
 24 35 l 1
 24 33 l 1
 26 33 l 1
 26 34 l 1
 25 34 l 1
 25 35 l 1
28 43 m 1
 27 43 l 1
 27 42 l 1
 26 42 l 1
 26 41 l 1
 28 41 l 1
 28 43 l 1
31 43 m 1
 29 43 l 1
 29 41 l 1
 31 41 l 1
 31 43 l 1
41 43 m 1
 39 43 l 1
 39 41 l 1
 41 41 l 1
 41 43 l 1
31 39 m 1
 29 39 l 1
 29 37 l 1
 31 37 l 1
 31 39 l 1
28 35 m 1
 26 35 l 1
 26 34 l 1
 27 34 l 1
 27 33 l 1
 28 33 l 1
 28 35 l 1
31 35 m 1
 29 35 l 1
 29 33 l 1
 31 33 l 1
 31 35 l 1
41 39 m 1
 39 39 l 1
 39 37 l 1
 41 37 l 1
 41 39 l 1
36 37 m 1
 34 37 l 1
 34 35 l 1
 36 35 l 1
 36 37 l 1
41 35 m 1
 39 35 l 1
 39 33 l 1
 41 33 l 1
 41 35 l 1
44 43 m 1
 42 43 l 1
 42 41 l 1
 43 41 l 1
 43 42 l 1
 44 42 l 1
 44 43 l 1
46 43 m 1
 45 43 l 1
 45 42 l 1
 44 42 l 1
 44 41 l 1
 46 41 l 1
 46 43 l 1
49 43 m 1
 47 43 l 1
 47 41 l 1
 49 41 l 1
 49 43 l 1
55 43 m 1
 53 43 l 1
 53 41 l 1
 55 41 l 1
 55 43 l 1
58 43 m 1
 56 43 l 1
 56 41 l 1
 57 41 l 1
 57 42 l 1
 58 42 l 1
 58 43 l 1
43 35 m 1
 42 35 l 1
 42 33 l 1
 44 33 l 1
 44 34 l 1
 43 34 l 1
 43 35 l 1
46 35 m 1
 44 35 l 1
 44 34 l 1
 45 34 l 1
 45 33 l 1
 46 33 l 1
 46 35 l 1
49 35 m 1
 47 35 l 1
 47 33 l 1
 49 33 l 1
 49 35 l 1
55 39 m 1
 53 39 l 1
 53 37 l 1
 55 37 l 1
 55 39 l 1
55 35 m 1
 53 35 l 1
 53 33 l 1
 55 33 l 1
 55 35 l 1
57 35 m 1
 56 35 l 1
 56 33 l 1
 58 33 l 1
 58 34 l 1
 57 34 l 1
 57 35 l 1
60 43 m 1
 59 43 l 1
 59 42 l 1
 58 42 l 1
 58 41 l 1
 60 41 l 1
 60 43 l 1
63 43 m 1
 61 43 l 1
 61 41 l 1
 63 41 l 1
 63 43 l 1
60 35 m 1
 58 35 l 1
 58 34 l 1
 59 34 l 1
 59 33 l 1
 60 33 l 1
 60 35 l 1
63 35 m 1
 61 35 l 1
 61 33 l 1
 63 33 l 1
 63 35 l 1
23 27 m 1
 21 27 l 1
 21 25 l 1
 23 25 l 1
 23 27 l 1
26 27 m 1
 24 27 l 1
 24 25 l 1
 25 25 l 1
 25 26 l 1
 26 26 l 1
 26 27 l 1
31 31 m 1
 29 31 l 1
 29 29 l 1
 31 29 l 1
 31 31 l 1
28 27 m 1
 27 27 l 1
 27 26 l 1
 26 26 l 1
 26 25 l 1
 28 25 l 1
 28 27 l 1
31 27 m 1
 29 27 l 1
 29 25 l 1
 31 25 l 1
 31 27 l 1
36 33 m 1
 34 33 l 1
 34 31 l 1
 36 31 l 1
 36 33 l 1
41 27 m 1
 39 27 l 1
 39 25 l 1
 41 25 l 1
 41 27 l 1
49 31 m 1
 47 31 l 1
 47 29 l 1
 49 29 l 1
 49 31 l 1
44 27 m 1
 42 27 l 1
 42 25 l 1
 43 25 l 1
 43 26 l 1
 44 26 l 1
 44 27 l 1
46 27 m 1
 45 27 l 1
 45 26 l 1
 44 26 l 1
 44 25 l 1
 46 25 l 1
 46 27 l 1
49 27 m 1
 47 27 l 1
 47 25 l 1
 49 25 l 1
 49 27 l 1
55 27 m 1
 53 27 l 1
 53 25 l 1
 55 25 l 1
 55 27 l 1
58 27 m 1
 56 27 l 1
 56 25 l 1
 57 25 l 1
 57 26 l 1
 58 26 l 1
 58 27 l 1
63 31 m 1
 61 31 l 1
 61 29 l 1
 63 29 l 1
 63 31 l 1
60 27 m 1
 59 27 l 1
 59 26 l 1
 58 26 l 1
 58 25 l 1
 60 25 l 1
 60 27 l 1
63 27 m 1
 61 27 l 1
 61 25 l 1
 63 25 l 1
 63 27 l 1
EndSplineSet
EndChar

StartChar: custom_5_5_0_6_2
Encoding: 36530 36530 16562
Width: 70
Flags: H
LayerCount: 2
Fore
SplineSet
23 43 m 1
 21 43 l 1
 21 41 l 1
 23 41 l 1
 23 43 l 1
26 43 m 1
 24 43 l 1
 24 41 l 1
 25 41 l 1
 25 42 l 1
 26 42 l 1
 26 43 l 1
23 35 m 1
 21 35 l 1
 21 33 l 1
 23 33 l 1
 23 35 l 1
25 35 m 1
 24 35 l 1
 24 33 l 1
 26 33 l 1
 26 34 l 1
 25 34 l 1
 25 35 l 1
28 43 m 1
 27 43 l 1
 27 42 l 1
 26 42 l 1
 26 41 l 1
 28 41 l 1
 28 43 l 1
31 43 m 1
 29 43 l 1
 29 41 l 1
 31 41 l 1
 31 43 l 1
41 43 m 1
 39 43 l 1
 39 41 l 1
 41 41 l 1
 41 43 l 1
31 39 m 1
 29 39 l 1
 29 37 l 1
 31 37 l 1
 31 39 l 1
28 35 m 1
 26 35 l 1
 26 34 l 1
 27 34 l 1
 27 33 l 1
 28 33 l 1
 28 35 l 1
31 35 m 1
 29 35 l 1
 29 33 l 1
 31 33 l 1
 31 35 l 1
41 39 m 1
 39 39 l 1
 39 37 l 1
 41 37 l 1
 41 39 l 1
36 37 m 1
 34 37 l 1
 34 35 l 1
 36 35 l 1
 36 37 l 1
41 35 m 1
 39 35 l 1
 39 33 l 1
 41 33 l 1
 41 35 l 1
44 43 m 1
 42 43 l 1
 42 41 l 1
 43 41 l 1
 43 42 l 1
 44 42 l 1
 44 43 l 1
46 43 m 1
 45 43 l 1
 45 42 l 1
 44 42 l 1
 44 41 l 1
 46 41 l 1
 46 43 l 1
49 43 m 1
 47 43 l 1
 47 41 l 1
 49 41 l 1
 49 43 l 1
55 43 m 1
 53 43 l 1
 53 41 l 1
 55 41 l 1
 55 43 l 1
58 43 m 1
 56 43 l 1
 56 41 l 1
 57 41 l 1
 57 42 l 1
 58 42 l 1
 58 43 l 1
43 35 m 1
 42 35 l 1
 42 33 l 1
 44 33 l 1
 44 34 l 1
 43 34 l 1
 43 35 l 1
46 35 m 1
 44 35 l 1
 44 34 l 1
 45 34 l 1
 45 33 l 1
 46 33 l 1
 46 35 l 1
49 35 m 1
 47 35 l 1
 47 33 l 1
 49 33 l 1
 49 35 l 1
55 39 m 1
 53 39 l 1
 53 37 l 1
 55 37 l 1
 55 39 l 1
55 35 m 1
 53 35 l 1
 53 33 l 1
 55 33 l 1
 55 35 l 1
57 35 m 1
 56 35 l 1
 56 33 l 1
 58 33 l 1
 58 34 l 1
 57 34 l 1
 57 35 l 1
60 43 m 1
 59 43 l 1
 59 42 l 1
 58 42 l 1
 58 41 l 1
 60 41 l 1
 60 43 l 1
63 43 m 1
 61 43 l 1
 61 41 l 1
 63 41 l 1
 63 43 l 1
60 35 m 1
 58 35 l 1
 58 34 l 1
 59 34 l 1
 59 33 l 1
 60 33 l 1
 60 35 l 1
63 35 m 1
 61 35 l 1
 61 33 l 1
 63 33 l 1
 63 35 l 1
23 27 m 1
 21 27 l 1
 21 25 l 1
 23 25 l 1
 23 27 l 1
26 27 m 1
 24 27 l 1
 24 25 l 1
 25 25 l 1
 25 26 l 1
 26 26 l 1
 26 27 l 1
31 31 m 1
 29 31 l 1
 29 29 l 1
 31 29 l 1
 31 31 l 1
28 27 m 1
 27 27 l 1
 27 26 l 1
 26 26 l 1
 26 25 l 1
 28 25 l 1
 28 27 l 1
31 27 m 1
 29 27 l 1
 29 25 l 1
 31 25 l 1
 31 27 l 1
36 33 m 1
 34 33 l 1
 34 31 l 1
 36 31 l 1
 36 33 l 1
41 27 m 1
 39 27 l 1
 39 25 l 1
 41 25 l 1
 41 27 l 1
49 31 m 1
 47 31 l 1
 47 29 l 1
 49 29 l 1
 49 31 l 1
44 27 m 1
 42 27 l 1
 42 25 l 1
 43 25 l 1
 43 26 l 1
 44 26 l 1
 44 27 l 1
46 27 m 1
 45 27 l 1
 45 26 l 1
 44 26 l 1
 44 25 l 1
 46 25 l 1
 46 27 l 1
49 27 m 1
 47 27 l 1
 47 25 l 1
 49 25 l 1
 49 27 l 1
55 27 m 1
 53 27 l 1
 53 25 l 1
 55 25 l 1
 55 27 l 1
58 27 m 1
 56 27 l 1
 56 25 l 1
 57 25 l 1
 57 26 l 1
 58 26 l 1
 58 27 l 1
63 31 m 1
 61 31 l 1
 61 29 l 1
 63 29 l 1
 63 31 l 1
60 27 m 1
 59 27 l 1
 59 26 l 1
 58 26 l 1
 58 25 l 1
 60 25 l 1
 60 27 l 1
63 27 m 1
 61 27 l 1
 61 25 l 1
 63 25 l 1
 63 27 l 1
EndSplineSet
EndChar

StartChar: custom_5_5_0_6_3
Encoding: 36531 36531 16563
Width: 70
Flags: H
LayerCount: 2
Fore
SplineSet
23 43 m 1
 21 43 l 1
 21 41 l 1
 23 41 l 1
 23 43 l 1
26 43 m 1
 24 43 l 1
 24 41 l 1
 25 41 l 1
 25 42 l 1
 26 42 l 1
 26 43 l 1
23 35 m 1
 21 35 l 1
 21 33 l 1
 23 33 l 1
 23 35 l 1
25 35 m 1
 24 35 l 1
 24 33 l 1
 26 33 l 1
 26 34 l 1
 25 34 l 1
 25 35 l 1
28 43 m 1
 27 43 l 1
 27 42 l 1
 26 42 l 1
 26 41 l 1
 28 41 l 1
 28 43 l 1
31 43 m 1
 29 43 l 1
 29 41 l 1
 31 41 l 1
 31 43 l 1
41 43 m 1
 39 43 l 1
 39 41 l 1
 41 41 l 1
 41 43 l 1
31 39 m 1
 29 39 l 1
 29 37 l 1
 31 37 l 1
 31 39 l 1
28 35 m 1
 26 35 l 1
 26 34 l 1
 27 34 l 1
 27 33 l 1
 28 33 l 1
 28 35 l 1
31 35 m 1
 29 35 l 1
 29 33 l 1
 31 33 l 1
 31 35 l 1
41 39 m 1
 39 39 l 1
 39 37 l 1
 41 37 l 1
 41 39 l 1
36 37 m 1
 34 37 l 1
 34 35 l 1
 36 35 l 1
 36 37 l 1
41 35 m 1
 39 35 l 1
 39 33 l 1
 41 33 l 1
 41 35 l 1
44 43 m 1
 42 43 l 1
 42 41 l 1
 43 41 l 1
 43 42 l 1
 44 42 l 1
 44 43 l 1
46 43 m 1
 45 43 l 1
 45 42 l 1
 44 42 l 1
 44 41 l 1
 46 41 l 1
 46 43 l 1
49 43 m 1
 47 43 l 1
 47 41 l 1
 49 41 l 1
 49 43 l 1
55 43 m 1
 53 43 l 1
 53 41 l 1
 55 41 l 1
 55 43 l 1
58 43 m 1
 56 43 l 1
 56 41 l 1
 57 41 l 1
 57 42 l 1
 58 42 l 1
 58 43 l 1
43 35 m 1
 42 35 l 1
 42 33 l 1
 44 33 l 1
 44 34 l 1
 43 34 l 1
 43 35 l 1
46 35 m 1
 44 35 l 1
 44 34 l 1
 45 34 l 1
 45 33 l 1
 46 33 l 1
 46 35 l 1
49 35 m 1
 47 35 l 1
 47 33 l 1
 49 33 l 1
 49 35 l 1
55 39 m 1
 53 39 l 1
 53 37 l 1
 55 37 l 1
 55 39 l 1
55 35 m 1
 53 35 l 1
 53 33 l 1
 55 33 l 1
 55 35 l 1
57 35 m 1
 56 35 l 1
 56 33 l 1
 58 33 l 1
 58 34 l 1
 57 34 l 1
 57 35 l 1
60 43 m 1
 59 43 l 1
 59 42 l 1
 58 42 l 1
 58 41 l 1
 60 41 l 1
 60 43 l 1
63 43 m 1
 61 43 l 1
 61 41 l 1
 63 41 l 1
 63 43 l 1
60 35 m 1
 58 35 l 1
 58 34 l 1
 59 34 l 1
 59 33 l 1
 60 33 l 1
 60 35 l 1
63 35 m 1
 61 35 l 1
 61 33 l 1
 63 33 l 1
 63 35 l 1
23 27 m 1
 21 27 l 1
 21 25 l 1
 23 25 l 1
 23 27 l 1
26 27 m 1
 24 27 l 1
 24 25 l 1
 25 25 l 1
 25 26 l 1
 26 26 l 1
 26 27 l 1
31 31 m 1
 29 31 l 1
 29 29 l 1
 31 29 l 1
 31 31 l 1
28 27 m 1
 27 27 l 1
 27 26 l 1
 26 26 l 1
 26 25 l 1
 28 25 l 1
 28 27 l 1
31 27 m 1
 29 27 l 1
 29 25 l 1
 31 25 l 1
 31 27 l 1
36 33 m 1
 34 33 l 1
 34 31 l 1
 36 31 l 1
 36 33 l 1
41 27 m 1
 39 27 l 1
 39 25 l 1
 41 25 l 1
 41 27 l 1
49 31 m 1
 47 31 l 1
 47 29 l 1
 49 29 l 1
 49 31 l 1
44 27 m 1
 42 27 l 1
 42 25 l 1
 43 25 l 1
 43 26 l 1
 44 26 l 1
 44 27 l 1
46 27 m 1
 45 27 l 1
 45 26 l 1
 44 26 l 1
 44 25 l 1
 46 25 l 1
 46 27 l 1
49 27 m 1
 47 27 l 1
 47 25 l 1
 49 25 l 1
 49 27 l 1
55 27 m 1
 53 27 l 1
 53 25 l 1
 55 25 l 1
 55 27 l 1
58 27 m 1
 56 27 l 1
 56 25 l 1
 57 25 l 1
 57 26 l 1
 58 26 l 1
 58 27 l 1
63 31 m 1
 61 31 l 1
 61 29 l 1
 63 29 l 1
 63 31 l 1
60 27 m 1
 59 27 l 1
 59 26 l 1
 58 26 l 1
 58 25 l 1
 60 25 l 1
 60 27 l 1
63 27 m 1
 61 27 l 1
 61 25 l 1
 63 25 l 1
 63 27 l 1
EndSplineSet
EndChar

StartChar: custom_5_5_0_6_4
Encoding: 36532 36532 16564
Width: 70
Flags: H
LayerCount: 2
Fore
SplineSet
23 43 m 1
 21 43 l 1
 21 41 l 1
 23 41 l 1
 23 43 l 1
26 43 m 1
 24 43 l 1
 24 41 l 1
 25 41 l 1
 25 42 l 1
 26 42 l 1
 26 43 l 1
23 35 m 1
 21 35 l 1
 21 33 l 1
 23 33 l 1
 23 35 l 1
25 35 m 1
 24 35 l 1
 24 33 l 1
 26 33 l 1
 26 34 l 1
 25 34 l 1
 25 35 l 1
28 43 m 1
 27 43 l 1
 27 42 l 1
 26 42 l 1
 26 41 l 1
 28 41 l 1
 28 43 l 1
31 43 m 1
 29 43 l 1
 29 41 l 1
 31 41 l 1
 31 43 l 1
41 43 m 1
 39 43 l 1
 39 41 l 1
 41 41 l 1
 41 43 l 1
31 39 m 1
 29 39 l 1
 29 37 l 1
 31 37 l 1
 31 39 l 1
28 35 m 1
 26 35 l 1
 26 34 l 1
 27 34 l 1
 27 33 l 1
 28 33 l 1
 28 35 l 1
31 35 m 1
 29 35 l 1
 29 33 l 1
 31 33 l 1
 31 35 l 1
41 39 m 1
 39 39 l 1
 39 37 l 1
 41 37 l 1
 41 39 l 1
36 37 m 1
 34 37 l 1
 34 35 l 1
 36 35 l 1
 36 37 l 1
41 35 m 1
 39 35 l 1
 39 33 l 1
 41 33 l 1
 41 35 l 1
44 43 m 1
 42 43 l 1
 42 41 l 1
 43 41 l 1
 43 42 l 1
 44 42 l 1
 44 43 l 1
46 43 m 1
 45 43 l 1
 45 42 l 1
 44 42 l 1
 44 41 l 1
 46 41 l 1
 46 43 l 1
49 43 m 1
 47 43 l 1
 47 41 l 1
 49 41 l 1
 49 43 l 1
55 43 m 1
 53 43 l 1
 53 41 l 1
 55 41 l 1
 55 43 l 1
58 43 m 1
 56 43 l 1
 56 41 l 1
 57 41 l 1
 57 42 l 1
 58 42 l 1
 58 43 l 1
43 35 m 1
 42 35 l 1
 42 33 l 1
 44 33 l 1
 44 34 l 1
 43 34 l 1
 43 35 l 1
46 35 m 1
 44 35 l 1
 44 34 l 1
 45 34 l 1
 45 33 l 1
 46 33 l 1
 46 35 l 1
49 35 m 1
 47 35 l 1
 47 33 l 1
 49 33 l 1
 49 35 l 1
55 39 m 1
 53 39 l 1
 53 37 l 1
 55 37 l 1
 55 39 l 1
55 35 m 1
 53 35 l 1
 53 33 l 1
 55 33 l 1
 55 35 l 1
57 35 m 1
 56 35 l 1
 56 33 l 1
 58 33 l 1
 58 34 l 1
 57 34 l 1
 57 35 l 1
60 43 m 1
 59 43 l 1
 59 42 l 1
 58 42 l 1
 58 41 l 1
 60 41 l 1
 60 43 l 1
63 43 m 1
 61 43 l 1
 61 41 l 1
 63 41 l 1
 63 43 l 1
60 35 m 1
 58 35 l 1
 58 34 l 1
 59 34 l 1
 59 33 l 1
 60 33 l 1
 60 35 l 1
63 35 m 1
 61 35 l 1
 61 33 l 1
 63 33 l 1
 63 35 l 1
23 27 m 1
 21 27 l 1
 21 25 l 1
 23 25 l 1
 23 27 l 1
26 27 m 1
 24 27 l 1
 24 25 l 1
 25 25 l 1
 25 26 l 1
 26 26 l 1
 26 27 l 1
31 31 m 1
 29 31 l 1
 29 29 l 1
 31 29 l 1
 31 31 l 1
28 27 m 1
 27 27 l 1
 27 26 l 1
 26 26 l 1
 26 25 l 1
 28 25 l 1
 28 27 l 1
31 27 m 1
 29 27 l 1
 29 25 l 1
 31 25 l 1
 31 27 l 1
36 33 m 1
 34 33 l 1
 34 31 l 1
 36 31 l 1
 36 33 l 1
41 27 m 1
 39 27 l 1
 39 25 l 1
 41 25 l 1
 41 27 l 1
49 31 m 1
 47 31 l 1
 47 29 l 1
 49 29 l 1
 49 31 l 1
44 27 m 1
 42 27 l 1
 42 25 l 1
 43 25 l 1
 43 26 l 1
 44 26 l 1
 44 27 l 1
46 27 m 1
 45 27 l 1
 45 26 l 1
 44 26 l 1
 44 25 l 1
 46 25 l 1
 46 27 l 1
49 27 m 1
 47 27 l 1
 47 25 l 1
 49 25 l 1
 49 27 l 1
55 27 m 1
 53 27 l 1
 53 25 l 1
 55 25 l 1
 55 27 l 1
58 27 m 1
 56 27 l 1
 56 25 l 1
 57 25 l 1
 57 26 l 1
 58 26 l 1
 58 27 l 1
63 31 m 1
 61 31 l 1
 61 29 l 1
 63 29 l 1
 63 31 l 1
60 27 m 1
 59 27 l 1
 59 26 l 1
 58 26 l 1
 58 25 l 1
 60 25 l 1
 60 27 l 1
63 27 m 1
 61 27 l 1
 61 25 l 1
 63 25 l 1
 63 27 l 1
EndSplineSet
EndChar

StartChar: custom_5_5_0_6_5
Encoding: 36533 36533 16565
Width: 70
Flags: H
LayerCount: 2
Fore
SplineSet
23 43 m 1
 21 43 l 1
 21 41 l 1
 23 41 l 1
 23 43 l 1
26 43 m 1
 24 43 l 1
 24 41 l 1
 25 41 l 1
 25 42 l 1
 26 42 l 1
 26 43 l 1
23 35 m 1
 21 35 l 1
 21 33 l 1
 23 33 l 1
 23 35 l 1
25 35 m 1
 24 35 l 1
 24 33 l 1
 26 33 l 1
 26 34 l 1
 25 34 l 1
 25 35 l 1
28 43 m 1
 27 43 l 1
 27 42 l 1
 26 42 l 1
 26 41 l 1
 28 41 l 1
 28 43 l 1
31 43 m 1
 29 43 l 1
 29 41 l 1
 31 41 l 1
 31 43 l 1
41 43 m 1
 39 43 l 1
 39 41 l 1
 41 41 l 1
 41 43 l 1
31 39 m 1
 29 39 l 1
 29 37 l 1
 31 37 l 1
 31 39 l 1
28 35 m 1
 26 35 l 1
 26 34 l 1
 27 34 l 1
 27 33 l 1
 28 33 l 1
 28 35 l 1
31 35 m 1
 29 35 l 1
 29 33 l 1
 31 33 l 1
 31 35 l 1
41 39 m 1
 39 39 l 1
 39 37 l 1
 41 37 l 1
 41 39 l 1
36 37 m 1
 34 37 l 1
 34 35 l 1
 36 35 l 1
 36 37 l 1
41 35 m 1
 39 35 l 1
 39 33 l 1
 41 33 l 1
 41 35 l 1
44 43 m 1
 42 43 l 1
 42 41 l 1
 43 41 l 1
 43 42 l 1
 44 42 l 1
 44 43 l 1
46 43 m 1
 45 43 l 1
 45 42 l 1
 44 42 l 1
 44 41 l 1
 46 41 l 1
 46 43 l 1
49 43 m 1
 47 43 l 1
 47 41 l 1
 49 41 l 1
 49 43 l 1
55 43 m 1
 53 43 l 1
 53 41 l 1
 55 41 l 1
 55 43 l 1
58 43 m 1
 56 43 l 1
 56 41 l 1
 57 41 l 1
 57 42 l 1
 58 42 l 1
 58 43 l 1
43 35 m 1
 42 35 l 1
 42 33 l 1
 44 33 l 1
 44 34 l 1
 43 34 l 1
 43 35 l 1
46 35 m 1
 44 35 l 1
 44 34 l 1
 45 34 l 1
 45 33 l 1
 46 33 l 1
 46 35 l 1
49 35 m 1
 47 35 l 1
 47 33 l 1
 49 33 l 1
 49 35 l 1
55 39 m 1
 53 39 l 1
 53 37 l 1
 55 37 l 1
 55 39 l 1
55 35 m 1
 53 35 l 1
 53 33 l 1
 55 33 l 1
 55 35 l 1
57 35 m 1
 56 35 l 1
 56 33 l 1
 58 33 l 1
 58 34 l 1
 57 34 l 1
 57 35 l 1
60 43 m 1
 59 43 l 1
 59 42 l 1
 58 42 l 1
 58 41 l 1
 60 41 l 1
 60 43 l 1
63 43 m 1
 61 43 l 1
 61 41 l 1
 63 41 l 1
 63 43 l 1
60 35 m 1
 58 35 l 1
 58 34 l 1
 59 34 l 1
 59 33 l 1
 60 33 l 1
 60 35 l 1
63 35 m 1
 61 35 l 1
 61 33 l 1
 63 33 l 1
 63 35 l 1
23 27 m 1
 21 27 l 1
 21 25 l 1
 23 25 l 1
 23 27 l 1
26 27 m 1
 24 27 l 1
 24 25 l 1
 25 25 l 1
 25 26 l 1
 26 26 l 1
 26 27 l 1
31 31 m 1
 29 31 l 1
 29 29 l 1
 31 29 l 1
 31 31 l 1
28 27 m 1
 27 27 l 1
 27 26 l 1
 26 26 l 1
 26 25 l 1
 28 25 l 1
 28 27 l 1
31 27 m 1
 29 27 l 1
 29 25 l 1
 31 25 l 1
 31 27 l 1
36 33 m 1
 34 33 l 1
 34 31 l 1
 36 31 l 1
 36 33 l 1
41 27 m 1
 39 27 l 1
 39 25 l 1
 41 25 l 1
 41 27 l 1
49 31 m 1
 47 31 l 1
 47 29 l 1
 49 29 l 1
 49 31 l 1
44 27 m 1
 42 27 l 1
 42 25 l 1
 43 25 l 1
 43 26 l 1
 44 26 l 1
 44 27 l 1
46 27 m 1
 45 27 l 1
 45 26 l 1
 44 26 l 1
 44 25 l 1
 46 25 l 1
 46 27 l 1
49 27 m 1
 47 27 l 1
 47 25 l 1
 49 25 l 1
 49 27 l 1
55 27 m 1
 53 27 l 1
 53 25 l 1
 55 25 l 1
 55 27 l 1
58 27 m 1
 56 27 l 1
 56 25 l 1
 57 25 l 1
 57 26 l 1
 58 26 l 1
 58 27 l 1
63 31 m 1
 61 31 l 1
 61 29 l 1
 63 29 l 1
 63 31 l 1
60 27 m 1
 59 27 l 1
 59 26 l 1
 58 26 l 1
 58 25 l 1
 60 25 l 1
 60 27 l 1
63 27 m 1
 61 27 l 1
 61 25 l 1
 63 25 l 1
 63 27 l 1
EndSplineSet
EndChar

StartChar: custom_5_5_0_6_6
Encoding: 36534 36534 16566
Width: 70
Flags: H
LayerCount: 2
Fore
SplineSet
23 43 m 1
 21 43 l 1
 21 41 l 1
 23 41 l 1
 23 43 l 1
26 43 m 1
 24 43 l 1
 24 41 l 1
 25 41 l 1
 25 42 l 1
 26 42 l 1
 26 43 l 1
23 35 m 1
 21 35 l 1
 21 33 l 1
 23 33 l 1
 23 35 l 1
25 35 m 1
 24 35 l 1
 24 33 l 1
 26 33 l 1
 26 34 l 1
 25 34 l 1
 25 35 l 1
28 43 m 1
 27 43 l 1
 27 42 l 1
 26 42 l 1
 26 41 l 1
 28 41 l 1
 28 43 l 1
31 43 m 1
 29 43 l 1
 29 41 l 1
 31 41 l 1
 31 43 l 1
41 43 m 1
 39 43 l 1
 39 41 l 1
 41 41 l 1
 41 43 l 1
31 39 m 1
 29 39 l 1
 29 37 l 1
 31 37 l 1
 31 39 l 1
28 35 m 1
 26 35 l 1
 26 34 l 1
 27 34 l 1
 27 33 l 1
 28 33 l 1
 28 35 l 1
31 35 m 1
 29 35 l 1
 29 33 l 1
 31 33 l 1
 31 35 l 1
41 39 m 1
 39 39 l 1
 39 37 l 1
 41 37 l 1
 41 39 l 1
36 37 m 1
 34 37 l 1
 34 35 l 1
 36 35 l 1
 36 37 l 1
41 35 m 1
 39 35 l 1
 39 33 l 1
 41 33 l 1
 41 35 l 1
44 43 m 1
 42 43 l 1
 42 41 l 1
 43 41 l 1
 43 42 l 1
 44 42 l 1
 44 43 l 1
46 43 m 1
 45 43 l 1
 45 42 l 1
 44 42 l 1
 44 41 l 1
 46 41 l 1
 46 43 l 1
49 43 m 1
 47 43 l 1
 47 41 l 1
 49 41 l 1
 49 43 l 1
55 43 m 1
 53 43 l 1
 53 41 l 1
 55 41 l 1
 55 43 l 1
58 43 m 1
 56 43 l 1
 56 41 l 1
 57 41 l 1
 57 42 l 1
 58 42 l 1
 58 43 l 1
43 35 m 1
 42 35 l 1
 42 33 l 1
 44 33 l 1
 44 34 l 1
 43 34 l 1
 43 35 l 1
46 35 m 1
 44 35 l 1
 44 34 l 1
 45 34 l 1
 45 33 l 1
 46 33 l 1
 46 35 l 1
49 35 m 1
 47 35 l 1
 47 33 l 1
 49 33 l 1
 49 35 l 1
55 39 m 1
 53 39 l 1
 53 37 l 1
 55 37 l 1
 55 39 l 1
55 35 m 1
 53 35 l 1
 53 33 l 1
 55 33 l 1
 55 35 l 1
57 35 m 1
 56 35 l 1
 56 33 l 1
 58 33 l 1
 58 34 l 1
 57 34 l 1
 57 35 l 1
60 43 m 1
 59 43 l 1
 59 42 l 1
 58 42 l 1
 58 41 l 1
 60 41 l 1
 60 43 l 1
63 43 m 1
 61 43 l 1
 61 41 l 1
 63 41 l 1
 63 43 l 1
60 35 m 1
 58 35 l 1
 58 34 l 1
 59 34 l 1
 59 33 l 1
 60 33 l 1
 60 35 l 1
63 35 m 1
 61 35 l 1
 61 33 l 1
 63 33 l 1
 63 35 l 1
23 27 m 1
 21 27 l 1
 21 25 l 1
 23 25 l 1
 23 27 l 1
26 27 m 1
 24 27 l 1
 24 25 l 1
 25 25 l 1
 25 26 l 1
 26 26 l 1
 26 27 l 1
31 31 m 1
 29 31 l 1
 29 29 l 1
 31 29 l 1
 31 31 l 1
28 27 m 1
 27 27 l 1
 27 26 l 1
 26 26 l 1
 26 25 l 1
 28 25 l 1
 28 27 l 1
31 27 m 1
 29 27 l 1
 29 25 l 1
 31 25 l 1
 31 27 l 1
36 33 m 1
 34 33 l 1
 34 31 l 1
 36 31 l 1
 36 33 l 1
41 27 m 1
 39 27 l 1
 39 25 l 1
 41 25 l 1
 41 27 l 1
49 31 m 1
 47 31 l 1
 47 29 l 1
 49 29 l 1
 49 31 l 1
44 27 m 1
 42 27 l 1
 42 25 l 1
 43 25 l 1
 43 26 l 1
 44 26 l 1
 44 27 l 1
46 27 m 1
 45 27 l 1
 45 26 l 1
 44 26 l 1
 44 25 l 1
 46 25 l 1
 46 27 l 1
49 27 m 1
 47 27 l 1
 47 25 l 1
 49 25 l 1
 49 27 l 1
55 27 m 1
 53 27 l 1
 53 25 l 1
 55 25 l 1
 55 27 l 1
58 27 m 1
 56 27 l 1
 56 25 l 1
 57 25 l 1
 57 26 l 1
 58 26 l 1
 58 27 l 1
63 31 m 1
 61 31 l 1
 61 29 l 1
 63 29 l 1
 63 31 l 1
60 27 m 1
 59 27 l 1
 59 26 l 1
 58 26 l 1
 58 25 l 1
 60 25 l 1
 60 27 l 1
63 27 m 1
 61 27 l 1
 61 25 l 1
 63 25 l 1
 63 27 l 1
EndSplineSet
EndChar

StartChar: custom_5_5_0_6_7
Encoding: 36535 36535 16567
Width: 70
Flags: H
LayerCount: 2
Fore
SplineSet
23 43 m 1
 21 43 l 1
 21 41 l 1
 23 41 l 1
 23 43 l 1
26 43 m 1
 24 43 l 1
 24 41 l 1
 25 41 l 1
 25 42 l 1
 26 42 l 1
 26 43 l 1
23 35 m 1
 21 35 l 1
 21 33 l 1
 23 33 l 1
 23 35 l 1
25 35 m 1
 24 35 l 1
 24 33 l 1
 26 33 l 1
 26 34 l 1
 25 34 l 1
 25 35 l 1
28 43 m 1
 27 43 l 1
 27 42 l 1
 26 42 l 1
 26 41 l 1
 28 41 l 1
 28 43 l 1
31 43 m 1
 29 43 l 1
 29 41 l 1
 31 41 l 1
 31 43 l 1
41 43 m 1
 39 43 l 1
 39 41 l 1
 41 41 l 1
 41 43 l 1
31 39 m 1
 29 39 l 1
 29 37 l 1
 31 37 l 1
 31 39 l 1
28 35 m 1
 26 35 l 1
 26 34 l 1
 27 34 l 1
 27 33 l 1
 28 33 l 1
 28 35 l 1
31 35 m 1
 29 35 l 1
 29 33 l 1
 31 33 l 1
 31 35 l 1
41 39 m 1
 39 39 l 1
 39 37 l 1
 41 37 l 1
 41 39 l 1
36 37 m 1
 34 37 l 1
 34 35 l 1
 36 35 l 1
 36 37 l 1
41 35 m 1
 39 35 l 1
 39 33 l 1
 41 33 l 1
 41 35 l 1
44 43 m 1
 42 43 l 1
 42 41 l 1
 43 41 l 1
 43 42 l 1
 44 42 l 1
 44 43 l 1
46 43 m 1
 45 43 l 1
 45 42 l 1
 44 42 l 1
 44 41 l 1
 46 41 l 1
 46 43 l 1
49 43 m 1
 47 43 l 1
 47 41 l 1
 49 41 l 1
 49 43 l 1
55 43 m 1
 53 43 l 1
 53 41 l 1
 55 41 l 1
 55 43 l 1
58 43 m 1
 56 43 l 1
 56 41 l 1
 57 41 l 1
 57 42 l 1
 58 42 l 1
 58 43 l 1
43 35 m 1
 42 35 l 1
 42 33 l 1
 44 33 l 1
 44 34 l 1
 43 34 l 1
 43 35 l 1
46 35 m 1
 44 35 l 1
 44 34 l 1
 45 34 l 1
 45 33 l 1
 46 33 l 1
 46 35 l 1
49 35 m 1
 47 35 l 1
 47 33 l 1
 49 33 l 1
 49 35 l 1
55 39 m 1
 53 39 l 1
 53 37 l 1
 55 37 l 1
 55 39 l 1
55 35 m 1
 53 35 l 1
 53 33 l 1
 55 33 l 1
 55 35 l 1
57 35 m 1
 56 35 l 1
 56 33 l 1
 58 33 l 1
 58 34 l 1
 57 34 l 1
 57 35 l 1
60 43 m 1
 59 43 l 1
 59 42 l 1
 58 42 l 1
 58 41 l 1
 60 41 l 1
 60 43 l 1
63 43 m 1
 61 43 l 1
 61 41 l 1
 63 41 l 1
 63 43 l 1
60 35 m 1
 58 35 l 1
 58 34 l 1
 59 34 l 1
 59 33 l 1
 60 33 l 1
 60 35 l 1
63 35 m 1
 61 35 l 1
 61 33 l 1
 63 33 l 1
 63 35 l 1
23 27 m 1
 21 27 l 1
 21 25 l 1
 23 25 l 1
 23 27 l 1
26 27 m 1
 24 27 l 1
 24 25 l 1
 25 25 l 1
 25 26 l 1
 26 26 l 1
 26 27 l 1
31 31 m 1
 29 31 l 1
 29 29 l 1
 31 29 l 1
 31 31 l 1
28 27 m 1
 27 27 l 1
 27 26 l 1
 26 26 l 1
 26 25 l 1
 28 25 l 1
 28 27 l 1
31 27 m 1
 29 27 l 1
 29 25 l 1
 31 25 l 1
 31 27 l 1
36 33 m 1
 34 33 l 1
 34 31 l 1
 36 31 l 1
 36 33 l 1
41 27 m 1
 39 27 l 1
 39 25 l 1
 41 25 l 1
 41 27 l 1
49 31 m 1
 47 31 l 1
 47 29 l 1
 49 29 l 1
 49 31 l 1
44 27 m 1
 42 27 l 1
 42 25 l 1
 43 25 l 1
 43 26 l 1
 44 26 l 1
 44 27 l 1
46 27 m 1
 45 27 l 1
 45 26 l 1
 44 26 l 1
 44 25 l 1
 46 25 l 1
 46 27 l 1
49 27 m 1
 47 27 l 1
 47 25 l 1
 49 25 l 1
 49 27 l 1
55 27 m 1
 53 27 l 1
 53 25 l 1
 55 25 l 1
 55 27 l 1
58 27 m 1
 56 27 l 1
 56 25 l 1
 57 25 l 1
 57 26 l 1
 58 26 l 1
 58 27 l 1
63 31 m 1
 61 31 l 1
 61 29 l 1
 63 29 l 1
 63 31 l 1
60 27 m 1
 59 27 l 1
 59 26 l 1
 58 26 l 1
 58 25 l 1
 60 25 l 1
 60 27 l 1
63 27 m 1
 61 27 l 1
 61 25 l 1
 63 25 l 1
 63 27 l 1
EndSplineSet
EndChar

StartChar: custom_5_5_0_6_8
Encoding: 36536 36536 16568
Width: 70
Flags: H
LayerCount: 2
Fore
SplineSet
23 43 m 1
 21 43 l 1
 21 41 l 1
 23 41 l 1
 23 43 l 1
26 43 m 1
 24 43 l 1
 24 41 l 1
 25 41 l 1
 25 42 l 1
 26 42 l 1
 26 43 l 1
23 35 m 1
 21 35 l 1
 21 33 l 1
 23 33 l 1
 23 35 l 1
25 35 m 1
 24 35 l 1
 24 33 l 1
 26 33 l 1
 26 34 l 1
 25 34 l 1
 25 35 l 1
28 43 m 1
 27 43 l 1
 27 42 l 1
 26 42 l 1
 26 41 l 1
 28 41 l 1
 28 43 l 1
31 43 m 1
 29 43 l 1
 29 41 l 1
 31 41 l 1
 31 43 l 1
41 43 m 1
 39 43 l 1
 39 41 l 1
 41 41 l 1
 41 43 l 1
31 39 m 1
 29 39 l 1
 29 37 l 1
 31 37 l 1
 31 39 l 1
28 35 m 1
 26 35 l 1
 26 34 l 1
 27 34 l 1
 27 33 l 1
 28 33 l 1
 28 35 l 1
31 35 m 1
 29 35 l 1
 29 33 l 1
 31 33 l 1
 31 35 l 1
41 39 m 1
 39 39 l 1
 39 37 l 1
 41 37 l 1
 41 39 l 1
36 37 m 1
 34 37 l 1
 34 35 l 1
 36 35 l 1
 36 37 l 1
41 35 m 1
 39 35 l 1
 39 33 l 1
 41 33 l 1
 41 35 l 1
44 43 m 1
 42 43 l 1
 42 41 l 1
 43 41 l 1
 43 42 l 1
 44 42 l 1
 44 43 l 1
46 43 m 1
 45 43 l 1
 45 42 l 1
 44 42 l 1
 44 41 l 1
 46 41 l 1
 46 43 l 1
49 43 m 1
 47 43 l 1
 47 41 l 1
 49 41 l 1
 49 43 l 1
55 43 m 1
 53 43 l 1
 53 41 l 1
 55 41 l 1
 55 43 l 1
58 43 m 1
 56 43 l 1
 56 41 l 1
 57 41 l 1
 57 42 l 1
 58 42 l 1
 58 43 l 1
43 35 m 1
 42 35 l 1
 42 33 l 1
 44 33 l 1
 44 34 l 1
 43 34 l 1
 43 35 l 1
46 35 m 1
 44 35 l 1
 44 34 l 1
 45 34 l 1
 45 33 l 1
 46 33 l 1
 46 35 l 1
49 35 m 1
 47 35 l 1
 47 33 l 1
 49 33 l 1
 49 35 l 1
55 39 m 1
 53 39 l 1
 53 37 l 1
 55 37 l 1
 55 39 l 1
55 35 m 1
 53 35 l 1
 53 33 l 1
 55 33 l 1
 55 35 l 1
57 35 m 1
 56 35 l 1
 56 33 l 1
 58 33 l 1
 58 34 l 1
 57 34 l 1
 57 35 l 1
60 43 m 1
 59 43 l 1
 59 42 l 1
 58 42 l 1
 58 41 l 1
 60 41 l 1
 60 43 l 1
63 43 m 1
 61 43 l 1
 61 41 l 1
 63 41 l 1
 63 43 l 1
60 35 m 1
 58 35 l 1
 58 34 l 1
 59 34 l 1
 59 33 l 1
 60 33 l 1
 60 35 l 1
63 35 m 1
 61 35 l 1
 61 33 l 1
 63 33 l 1
 63 35 l 1
23 27 m 1
 21 27 l 1
 21 25 l 1
 23 25 l 1
 23 27 l 1
26 27 m 1
 24 27 l 1
 24 25 l 1
 25 25 l 1
 25 26 l 1
 26 26 l 1
 26 27 l 1
31 31 m 1
 29 31 l 1
 29 29 l 1
 31 29 l 1
 31 31 l 1
28 27 m 1
 27 27 l 1
 27 26 l 1
 26 26 l 1
 26 25 l 1
 28 25 l 1
 28 27 l 1
31 27 m 1
 29 27 l 1
 29 25 l 1
 31 25 l 1
 31 27 l 1
36 33 m 1
 34 33 l 1
 34 31 l 1
 36 31 l 1
 36 33 l 1
41 27 m 1
 39 27 l 1
 39 25 l 1
 41 25 l 1
 41 27 l 1
49 31 m 1
 47 31 l 1
 47 29 l 1
 49 29 l 1
 49 31 l 1
44 27 m 1
 42 27 l 1
 42 25 l 1
 43 25 l 1
 43 26 l 1
 44 26 l 1
 44 27 l 1
46 27 m 1
 45 27 l 1
 45 26 l 1
 44 26 l 1
 44 25 l 1
 46 25 l 1
 46 27 l 1
49 27 m 1
 47 27 l 1
 47 25 l 1
 49 25 l 1
 49 27 l 1
55 27 m 1
 53 27 l 1
 53 25 l 1
 55 25 l 1
 55 27 l 1
58 27 m 1
 56 27 l 1
 56 25 l 1
 57 25 l 1
 57 26 l 1
 58 26 l 1
 58 27 l 1
63 31 m 1
 61 31 l 1
 61 29 l 1
 63 29 l 1
 63 31 l 1
60 27 m 1
 59 27 l 1
 59 26 l 1
 58 26 l 1
 58 25 l 1
 60 25 l 1
 60 27 l 1
63 27 m 1
 61 27 l 1
 61 25 l 1
 63 25 l 1
 63 27 l 1
EndSplineSet
EndChar

